<?xml version="1.0" encoding="UTF-8" standalone="no"?>
<svg
   height="38"
   viewBox="0 0 360 38"
   width="360"
   version="1.1"
   id="svg18"
   sodipodi:docname="logo-ds-wide.svg"
   inkscape:version="1.2.1 (9c6d41e410, 2022-07-14)"
   inkscape:export-filename="logo-ds-wide.svg"
   inkscape:export-xdpi="150"
   inkscape:export-ydpi="150"
   xmlns:inkscape="http://www.inkscape.org/namespaces/inkscape"
   xmlns:sodipodi="http://sodipodi.sourceforge.net/DTD/sodipodi-0.dtd"
   xmlns="http://www.w3.org/2000/svg"
   xmlns:svg="http://www.w3.org/2000/svg">
  <defs
     id="defs22" />
  <sodipodi:namedview
     id="namedview20"
     pagecolor="#ffffff"
     bordercolor="#666666"
     borderopacity="1.0"
     inkscape:showpageshadow="2"
     inkscape:pageopacity="0.0"
     inkscape:pagecheckerboard="0"
     inkscape:deskcolor="#d1d1d1"
     showgrid="false"
     showguides="true"
     inkscape:zoom="4.2777778"
     inkscape:cx="113.72727"
     inkscape:cy="26.766234"
     inkscape:window-width="1920"
     inkscape:window-height="1001"
     inkscape:window-x="-9"
     inkscape:window-y="-9"
     inkscape:window-maximized="1"
     inkscape:current-layer="text4325-7-8-6-7-3-6">
    <sodipodi:guide
       position="109.09647,38"
       orientation="0,-1"
       id="guide1531"
       inkscape:locked="false" />
    <sodipodi:guide
       position="0,-0.33766234"
       orientation="1,0"
       id="guide1533"
       inkscape:locked="false" />
    <sodipodi:guide
       position="79.480519,13.688312"
       orientation="0,-1"
       id="guide1539"
       inkscape:locked="false" />
    <sodipodi:guide
       position="82.051948,24.207792"
       orientation="0,-1"
       id="guide1541"
       inkscape:locked="false" />
  </sodipodi:namedview>
  <g
     fill="none"
     fill-rule="evenodd"
     id="g16">
    <g
       id="g1529"
       transform="matrix(0.16862409,0,0,0.16862409,43.034386,21.966122)">
      <g
         id="g4026-0-6"
         transform="matrix(0.71886577,0,0,0.71886577,-1831.0169,126.70432)">
        <g
           id="g5762-0-7-2-5-3-7"
           transform="translate(341.65802,-1227.5096)">
          <path
             style="opacity:1;fill:#000000;fill-opacity:1;stroke:none;stroke-width:36.8112;stroke-dasharray:36.8112, 36.8112;stop-color:#000000"
             id="path15082-0-7-1-4-8-4"
             transform="matrix(-0.13997337,-0.99015527,0.9913098,-0.13154798,0,0)"
             d="m -1228.1049,1792.0285 a 153.87494,155.69708 0 0 1 74.9878,203.6158 153.87494,155.69708 0 0 1 -199.2052,81.1693 153.87494,155.69708 0 0 1 -85.3961,-199.3748" />
          <g
             id="g17548-0-7-0-0-48-3"
             style="fill:none;fill-opacity:1;stroke:#ffffff;stroke-opacity:1">
            <path
               style="fill:none;fill-opacity:1;stroke:#ffffff;stroke-width:2.21555px;stroke-linecap:butt;stroke-linejoin:miter;stroke-opacity:1"
               d="m 2179.0586,980.41016 68.1567,34.64154 -33.1573,33.3093 z"
               id="path16488-9-4-0-4-5-0" />
            <path
               style="fill:none;fill-opacity:1;stroke:#ffffff;stroke-width:1.90178px;stroke-linecap:butt;stroke-linejoin:miter;stroke-opacity:1"
               d="m 2178.7295,980.09664 13.4477,-69.92761"
               id="path16492-7-1-8-8-0-1" />
            <path
               style="fill:none;fill-opacity:1;stroke:#ffffff;stroke-width:1.90178px;stroke-linecap:butt;stroke-linejoin:miter;stroke-opacity:1"
               d="m 2248.6571,1052.7138 -34.5991,-4.3528 17.1173,59.488"
               id="path16687-6-3-9-4-5-5" />
          </g>
          <path
             style="fill:none;stroke:#ffffff;stroke-width:1.90178px;stroke-linecap:butt;stroke-linejoin:miter;stroke-opacity:1"
             d="m 2178.7295,980.09664 -44.3771,54.79906 79.7056,13.4653 -113.997,39.989 131.1143,19.499 -120.6924,27.5676 36.3085,36.3086 -84.4267,4.8658"
             id="path1783-8-7-1-5-0-9" />
          <path
             style="fill:none;stroke:#ffffff;stroke-width:1.90178px;stroke-linecap:butt;stroke-linejoin:miter;stroke-opacity:1"
             d="m 2178.7295,980.09664 -82.7028,-3.69809 96.1505,-66.22952 -105.2277,-36.98095 9.7495,102.2019 37.6534,59.50572 -34.2914,53.4543 -54.4629,-29.921 88.7543,-23.5333"
             id="path1818-1-8-4-5-0-4" />
          <path
             style="fill:none;stroke:#ffffff;stroke-width:1.90178px;stroke-linecap:butt;stroke-linejoin:miter;stroke-opacity:1"
             d="M 2110.4829,1135.4166 2100.061,1088.35"
             id="path1853-9-6-6-2-3-7" />
          <path
             style="fill:none;stroke:#ffffff;stroke-width:1.90178px;stroke-linecap:butt;stroke-linejoin:miter;stroke-opacity:1"
             d="m 2062.3647,1176.591 48.1182,-41.1744 -73.2896,-4.0343 62.8677,-43.0323"
             id="path1890-4-3-6-6-4-0" />
          <path
             style="fill:none;stroke:#ffffff;stroke-width:1.90178px;stroke-linecap:butt;stroke-linejoin:miter;stroke-opacity:1"
             d="m 2045.5981,1058.429 50.4286,-82.03045 -79.341,-23.86953 70.2638,-79.34094"
             id="path1925-8-5-7-9-1-1" />
          <path
             style="fill:none;stroke:#ffffff;stroke-width:1.90178px;stroke-linecap:butt;stroke-linejoin:miter;stroke-opacity:1"
             d="m 2016.6857,952.52902 28.9124,105.89998 -8.4048,72.9533"
             id="path1960-9-8-7-6-5-5" />
          <path
             style="fill:none;stroke:#ffffff;stroke-width:1.90178px;stroke-linecap:butt;stroke-linejoin:miter;stroke-opacity:1"
             d="m 2016.6857,952.52902 -42.0238,-22.18856 -13.4476,72.61714 z"
             id="path1995-3-1-8-2-1-2" />
          <path
             style="fill:none;stroke:#ffffff;stroke-width:1.90178px;stroke-linecap:butt;stroke-linejoin:miter;stroke-opacity:1"
             d="m 2045.5981,1058.429 -44.0409,11.7667 2.6895,-39.3343 z"
             id="path2030-4-6-3-5-9-3" />
          <path
             style="fill:none;stroke:#ffffff;stroke-width:1.90178px;stroke-linecap:butt;stroke-linejoin:miter;stroke-opacity:1"
             d="m 2004.2467,1030.8614 12.439,-78.33238"
             id="path2065-4-7-6-0-4-4" />
        </g>
      </g>
      <g
         aria-label="DGNUM"
         transform="matrix(0.71886577,0,0,0.71886577,-1759.6753,-214.44053)"
         id="text4325-7-8-6-7-3-6"
         style="font-size:134.392px;line-height:1.15;white-space:pre;inline-size:492.011;display:inline;fill:#000000;stroke-width:1.90178">
        <path
           d="m 2406.453,273.19883 q 0,9.58068 -3.0186,17.65207 -3.0186,8.00577 -8.5964,13.78043 -5.5122,5.77466 -13.3211,8.99009 -7.8089,3.21543 -17.3239,3.21543 h -31.7606 v -87.14481 h 31.7606 q 9.515,0 17.3239,3.21544 7.8089,3.21543 13.3211,8.99008 5.5778,5.77466 8.5964,13.78043 3.0186,8.00578 3.0186,17.52084 z m -17.5209,0 q 0,-6.95584 -1.7061,-12.46801 -1.7062,-5.51217 -4.9216,-9.38382 -3.1498,-3.87164 -7.7433,-5.9059 -4.5935,-2.09987 -10.3681,-2.09987 h -14.4367 v 59.78081 h 14.4367 q 5.7746,0 10.3681,-2.03425 4.5935,-2.03425 7.7433,-5.9059 3.2154,-3.87164 4.9216,-9.38381 1.7061,-5.5778 1.7061,-12.59925 z"
           style="font-weight:bold;font-family:Carlito;-inkscape-font-specification:'Carlito Bold';fill:#ffffff"
           id="path1922" />
        <path
           d="m 2489.3324,308.43735 q -6.5621,4.92159 -13.9773,7.1527 -7.4152,2.1655 -15.7491,2.1655 -10.565,0 -19.1613,-3.28106 -8.5308,-3.34667 -14.6335,-9.25257 -6.1028,-5.97152 -9.4495,-14.10854 -3.281,-8.20263 -3.281,-17.91455 0,-9.77755 3.1498,-17.91456 3.1498,-8.20264 8.9901,-14.10854 5.9059,-5.9059 14.1741,-9.18695 8.3339,-3.28105 18.5708,-3.28105 5.3153,0 9.9088,0.85307 4.5935,0.85307 8.5307,2.36236 3.9373,1.50928 7.1527,3.60916 3.2811,2.09987 5.9059,4.6591 l -4.9216,7.74329 q -1.1155,1.83739 -3.0185,2.29673 -1.8374,0.39373 -4.0029,-0.91869 -2.0343,-1.2468 -4.0685,-2.29674 -2.0343,-1.11556 -4.3966,-1.90301 -2.2968,-0.85308 -5.1185,-1.31242 -2.8217,-0.45935 -6.4965,-0.45935 -6.1683,0 -11.0899,2.1655 -4.9216,2.09987 -8.3995,5.97151 -3.4779,3.87165 -5.381,9.44944 -1.8373,5.51217 -1.8373,12.27115 0,7.34956 2.0342,13.12421 2.0343,5.77466 5.709,9.77755 3.7404,3.93726 8.9901,6.03714 5.2497,2.03425 11.6806,2.03425 4.331,0 7.7433,-0.85307 3.4779,-0.9187 6.8246,-2.4936 v -15.2241 h -10.0401 q -1.5749,0 -2.5592,-0.91869 -0.9187,-0.9187 -0.9187,-2.23112 v -9.71192 h 29.1358 v 35.69787 z"
           style="font-weight:bold;font-family:Carlito;-inkscape-font-specification:'Carlito Bold';fill:#ffffff"
           id="path1924" />
        <path
           d="m 2512.2342,229.69204 q 1.1155,0 1.903,0.13124 0.7874,0.0656 1.378,0.39373 0.6562,0.26248 1.1812,0.78745 0.5906,0.52497 1.3124,1.37805 l 42.9162,56.56538 q -0.3937,-4.33099 -0.3937,-8.20264 v -51.05321 h 15.1584 v 87.14481 h -8.8588 q -2.0343,0 -3.4123,-0.65621 -1.3124,-0.72183 -2.6248,-2.29674 l -42.785,-56.23727 q 0.3937,4.0685 0.3937,7.54642 v 51.6438 h -15.2241 v -87.14481 h 9.0558 z"
           style="font-weight:bold;font-family:Carlito;-inkscape-font-specification:'Carlito Bold'"
           id="path1926" />
        <path
           d="m 2626.8086,307.38742 q 5.1841,0 9.2526,-1.77177 4.1341,-1.83739 6.9558,-5.05283 2.8217,-3.28105 4.2654,-7.74329 1.5093,-4.46223 1.5093,-9.84316 v -52.36563 h 11.943 v 52.36563 q 0,7.4808 -2.3624,13.84605 -2.3623,6.36525 -6.7589,11.02434 -4.331,4.6591 -10.6307,7.34957 -6.2996,2.62484 -14.1741,2.62484 -7.8745,0 -14.1742,-2.62484 -6.234,-2.69047 -10.6306,-7.34957 -4.3966,-4.65909 -6.759,-11.02434 -2.3623,-6.36525 -2.3623,-13.84605 v -52.36563 h 11.943 v 52.30001 q 0,5.38093 1.4437,9.90878 1.5093,4.46224 4.331,7.74329 2.8217,3.21544 6.8902,5.05283 4.1341,1.77177 9.3182,1.77177 z"
           style="font-family:Carlito;-inkscape-font-specification:Carlito"
           id="path1928" />
        <path
           d="m 2724.7152,285.40435 q 0.8531,1.50928 1.5093,3.08419 0.7219,1.57491 1.3781,3.21543 0.6562,-1.70614 1.3124,-3.28105 0.7218,-1.57491 1.5093,-3.01857 l 30.4482,-52.82498 q 0.7874,-1.37804 1.7061,-1.64053 0.9187,-0.3281 2.4936,-0.3281 h 8.7932 v 86.22611 h -10.565 v -62.93063 q 0,-1.31242 0.066,-2.88732 0.1312,-1.64053 0.2625,-3.28106 l -30.7763,54.07178 q -1.5093,2.69047 -4.331,2.69047 h -1.7062 q -2.8217,0 -4.331,-2.69047 l -31.4981,-54.00616 q 0.3937,3.28106 0.3937,6.10276 v 62.93063 h -10.4993 v -86.22611 h 8.7932 q 1.5749,0 2.428,0.3281 0.9187,0.26249 1.7717,1.70615 l 30.8419,52.75936 z"
           style="font-family:Carlito;-inkscape-font-specification:Carlito"
           id="path1930" />
      </g>
      <g
         aria-label="Délégation GénéraleNumérique"
         id="text13534"
         style="font-size:23.8194px;line-height:1.25;fill:#000000;stroke-width:0.893227">
        <path
           d="m 51.335571,39.553977 q 0,1.721324 -0.511745,3.128622 -0.500114,1.407299 -1.418929,2.419158 -0.907184,1.000229 -2.198177,1.546865 -1.279363,0.546637 -2.837859,0.546637 H 39.088584 V 31.912694 h 5.280277 q 1.558496,0 2.837859,0.558268 1.290993,0.546636 2.198177,1.546865 0.918815,1.000229 1.418929,2.419158 0.511745,1.407298 0.511745,3.116992 z m -2.174916,0 q 0,-1.395668 -0.337287,-2.488942 -0.337286,-1.104903 -0.965337,-1.872521 -0.62805,-0.767617 -1.511973,-1.163057 -0.883923,-0.407069 -1.977197,-0.407069 h -3.151883 v 11.863178 h 3.151883 q 1.093274,0 1.977197,-0.395439 0.883923,-0.40707 1.511973,-1.163057 0.628051,-0.767618 0.965337,-1.872521 0.337287,-1.104904 0.337287,-2.500572 z"
           style="font-weight:300;font-family:Carlito;-inkscape-font-specification:'Carlito Light'"
           id="path1869" />
        <path
           d="m 52.998742,47.195259 z m 5.350061,-11.549153 q 1.02349,0 1.895782,0.337287 0.872293,0.337286 1.511974,0.988598 0.639681,0.651312 1.000229,1.593388 0.360547,0.942075 0.360547,2.163285 0,0.476853 -0.104675,0.639681 -0.104675,0.151198 -0.383809,0.151198 h -7.60639 q 0.02326,1.070012 0.290764,1.872521 0.267503,0.790878 0.732726,1.314254 0.476853,0.523375 1.128165,0.790878 0.651311,0.255873 1.45382,0.255873 0.744357,0 1.290993,-0.162828 0.546637,-0.174459 0.930446,-0.383809 0.395439,-0.20935 0.662942,-0.372178 0.267503,-0.174458 0.465223,-0.174458 0.127936,0 0.22098,0.05815 0.09304,0.04652 0.162828,0.139567 l 0.581529,0.744356 q -0.383809,0.453593 -0.907185,0.790879 -0.511744,0.325656 -1.104903,0.546637 -0.593159,0.20935 -1.23284,0.314025 -0.628051,0.104675 -1.244471,0.104675 -1.186318,0 -2.186547,-0.395439 -1.000228,-0.39544 -1.732954,-1.163057 -0.721095,-0.779248 -1.128165,-1.907413 -0.40707,-1.139795 -0.40707,-2.616877 0,-1.186318 0.360548,-2.209808 0.372178,-1.035121 1.058381,-1.791107 0.697834,-0.767618 1.686432,-1.197949 1.000229,-0.430331 2.2447,-0.430331 z m 0.03489,1.488713 q -1.43056,0 -2.267961,0.837401 -0.82577,0.8374 -1.03512,2.291221 h 6.199092 q 0,-0.686203 -0.19772,-1.256101 -0.19772,-0.581528 -0.569898,-0.988598 -0.372178,-0.418701 -0.918815,-0.651312 -0.535006,-0.232611 -1.209578,-0.232611 z m 2.87275,-6.210723 -2.628509,2.896011 q -0.162828,0.174459 -0.325655,0.244242 -0.151198,0.06978 -0.383809,0.06978 h -1.22121 l 1.663171,-2.709922 q 0.151198,-0.255873 0.337287,-0.372179 0.186089,-0.127936 0.558267,-0.127936 z"
           style="font-weight:300;font-family:Carlito;-inkscape-font-specification:'Carlito Light'"
           id="path1871" />
        <path
           d="M 67.73467,30.656593 V 47.195259 H 65.68769 V 30.656593 Z"
           style="font-weight:300;font-family:Carlito;-inkscape-font-specification:'Carlito Light'"
           id="path1873" />
        <path
           d="m 70.316655,47.195259 z m 5.350061,-11.549153 q 1.02349,0 1.895782,0.337287 0.872293,0.337286 1.511974,0.988598 0.639681,0.651312 1.000229,1.593388 0.360547,0.942075 0.360547,2.163285 0,0.476853 -0.104675,0.639681 -0.104675,0.151198 -0.383809,0.151198 h -7.60639 q 0.02326,1.070012 0.290764,1.872521 0.267503,0.790878 0.732726,1.314254 0.476853,0.523375 1.128165,0.790878 0.651311,0.255873 1.45382,0.255873 0.744357,0 1.290993,-0.162828 0.546637,-0.174459 0.930446,-0.383809 0.395439,-0.20935 0.662942,-0.372178 0.267503,-0.174458 0.465223,-0.174458 0.127936,0 0.22098,0.05815 0.09304,0.04652 0.162828,0.139567 l 0.581529,0.744356 q -0.383809,0.453593 -0.907184,0.790879 -0.511745,0.325656 -1.104904,0.546637 -0.593159,0.20935 -1.23284,0.314025 -0.628051,0.104675 -1.244471,0.104675 -1.186318,0 -2.186547,-0.395439 -1.000228,-0.39544 -1.732954,-1.163057 -0.721095,-0.779248 -1.128165,-1.907413 -0.40707,-1.139795 -0.40707,-2.616877 0,-1.186318 0.360548,-2.209808 0.372178,-1.035121 1.058381,-1.791107 0.697834,-0.767618 1.686432,-1.197949 1.000229,-0.430331 2.2447,-0.430331 z m 0.03489,1.488713 q -1.43056,0 -2.267961,0.837401 -0.82577,0.8374 -1.03512,2.291221 h 6.199092 q 0,-0.686203 -0.19772,-1.256101 -0.19772,-0.581528 -0.569898,-0.988598 -0.372178,-0.418701 -0.918814,-0.651312 -0.535007,-0.232611 -1.209579,-0.232611 z m 2.87275,-6.210723 -2.628509,2.896011 q -0.162827,0.174459 -0.325655,0.244242 -0.151198,0.06978 -0.383809,0.06978 h -1.22121 l 1.663171,-2.709922 q 0.151198,-0.255873 0.337287,-0.372179 0.186089,-0.127936 0.558267,-0.127936 z"
           style="font-weight:300;font-family:Carlito;-inkscape-font-specification:'Carlito Light'"
           id="path1875" />
        <path
           d="m 86.669232,35.634476 q 0.709464,0 1.325884,0.162828 0.61642,0.162828 1.116535,0.465222 h 2.977425 v 0.755987 q 0,0.40707 -0.465223,0.476853 l -1.209579,0.174459 q 0.360548,0.744356 0.360548,1.628279 0,0.837401 -0.314025,1.511974 -0.302395,0.674573 -0.849032,1.151426 -0.546637,0.476853 -1.302623,0.744356 -0.744357,0.255873 -1.63991,0.255873 -0.744357,0 -1.372407,-0.174459 -0.337287,0.220981 -0.500115,0.476854 -0.162827,0.244241 -0.162827,0.488483 0,0.40707 0.314025,0.60479 0.314025,0.197719 0.82577,0.290764 0.511745,0.09305 1.163057,0.116306 0.651312,0.02326 1.325884,0.08141 0.686204,0.04652 1.337516,0.162828 0.651311,0.116305 1.163056,0.407069 0.511745,0.279134 0.82577,0.779248 0.314026,0.488484 0.314026,1.279363 0,0.732725 -0.348917,1.418929 -0.348917,0.686203 -1.01186,1.221209 -0.651311,0.535006 -1.605018,0.849032 -0.942076,0.325656 -2.140024,0.325656 -1.197948,0 -2.093502,-0.244242 -0.895554,-0.244242 -1.488713,-0.662943 -0.593159,-0.4187 -0.883923,-0.965337 -0.290764,-0.546636 -0.290764,-1.139795 0,-0.837401 0.488484,-1.418929 0.500114,-0.581529 1.372407,-0.918815 -0.476853,-0.220981 -0.755987,-0.60479 -0.279134,-0.383808 -0.279134,-1.023489 0,-0.488484 0.348917,-1.035121 0.348917,-0.546637 1.046751,-0.907184 -0.802509,-0.476853 -1.267731,-1.256101 -0.453592,-0.779248 -0.453592,-1.814369 0,-0.837401 0.302394,-1.511973 0.314026,-0.674573 0.860662,-1.151427 0.546637,-0.488483 1.302624,-0.744356 0.755987,-0.255872 1.663171,-0.255872 z m 3.349603,12.177203 q 0,-0.40707 -0.220981,-0.662942 -0.20935,-0.255873 -0.581528,-0.395439 -0.372178,-0.151198 -0.860662,-0.209351 -0.488484,-0.06978 -1.035121,-0.104675 -0.546636,-0.03489 -1.116534,-0.05815 -0.558267,-0.02326 -1.081643,-0.104675 -0.569897,0.302395 -0.930445,0.732726 -0.360548,0.4187 -0.360548,1.011859 0,0.383809 0.174459,0.709465 0.174458,0.325656 0.535006,0.558267 0.372178,0.244242 0.942076,0.383809 0.569898,0.139567 1.349146,0.139567 0.767617,0 1.360776,-0.151198 0.593159,-0.151197 1.000229,-0.4187 0.40707,-0.255873 0.61642,-0.628051 0.20935,-0.360547 0.20935,-0.802509 z m -3.349603,-6.199092 q 1.128165,0 1.698062,-0.628051 0.581529,-0.62805 0.581529,-1.639909 0,-1.035121 -0.581529,-1.63991 -0.569897,-0.61642 -1.698062,-0.61642 -1.104904,0 -1.686432,0.61642 -0.569898,0.604789 -0.569898,1.63991 0,0.500114 0.139567,0.918814 0.151197,0.40707 0.430331,0.709465 0.290764,0.302395 0.709464,0.476853 0.430331,0.162828 0.976968,0.162828 z"
           style="font-weight:300;font-family:Carlito;-inkscape-font-specification:'Carlito Light'"
           id="path1877" />
        <path
           d="m 101.10277,47.195259 q -0.3024,0 -0.46523,-0.09304 -0.16283,-0.09305 -0.22098,-0.383809 l -0.25587,-1.058382 q -0.441962,0.40707 -0.872293,0.732726 -0.4187,0.314025 -0.883923,0.535006 -0.465223,0.220981 -1.000229,0.325656 -0.535006,0.116306 -1.174687,0.116306 -0.662942,0 -1.244471,-0.174459 -0.569898,-0.186089 -1.011859,-0.558267 -0.430331,-0.383809 -0.686204,-0.942076 -0.244241,-0.569898 -0.244241,-1.337515 0,-0.674573 0.360547,-1.290993 0.372178,-0.628051 1.197949,-1.116535 0.82577,-0.488483 2.151654,-0.790878 1.325885,-0.314025 3.256557,-0.360548 v -0.872292 q 0,-1.325885 -0.569896,-1.988827 -0.558267,-0.674573 -1.63991,-0.674573 -0.721095,0 -1.221209,0.186089 -0.488484,0.186089 -0.849031,0.40707 -0.360548,0.220981 -0.628051,0.40707 -0.255873,0.186089 -0.523376,0.186089 -0.20935,0 -0.360547,-0.104675 -0.151198,-0.104675 -0.244242,-0.267503 L 93.60105,37.425583 q 0.942076,-0.907184 2.023718,-1.349146 1.093274,-0.453592 2.419158,-0.453592 0.953707,0 1.698063,0.314025 0.744361,0.302395 1.244471,0.872293 0.50011,0.569898 0.75599,1.360776 0.2675,0.790879 0.2675,1.756216 v 7.269104 z m -4.256792,-1.256101 q 0.511745,0 0.942076,-0.104675 0.430331,-0.104675 0.81414,-0.290764 0.383808,-0.19772 0.721095,-0.476854 0.348917,-0.290764 0.686201,-0.639681 V 42.07781 q -1.360774,0.05815 -2.314481,0.232611 -0.953706,0.162828 -1.558496,0.441962 -0.593159,0.279133 -0.860662,0.662942 -0.267503,0.372178 -0.267503,0.837401 0,0.441961 0.139567,0.767617 0.151198,0.314025 0.395439,0.523376 0.244242,0.197719 0.581529,0.302394 0.337286,0.09304 0.721095,0.09304 z"
           style="font-weight:300;font-family:Carlito;-inkscape-font-specification:'Carlito Light'"
           id="path1879" />
        <path
           d="m 103.6266,47.195259 z m 11.1886,-11.165344 v 11.165344 h -2.04698 v -9.676631 h -5.40821 v 6.792251 q 0,0.697834 0.3024,1.046751 0.31402,0.348917 0.81414,0.348917 0.29076,0 0.48848,-0.08141 0.20935,-0.08141 0.34892,-0.186089 0.15119,-0.104676 0.25587,-0.18609 0.10467,-0.08141 0.19772,-0.08141 0.10467,0 0.16283,0.04652 0.0698,0.04652 0.12793,0.151197 l 0.60479,0.976968 q -0.51174,0.488484 -1.20958,0.755987 -0.69783,0.267503 -1.45382,0.267503 -1.29099,0 -1.98882,-0.755987 -0.69784,-0.755987 -0.69784,-2.163286 v -6.931817 h -1.2561 q -0.18609,0 -0.31402,-0.116306 -0.11631,-0.116306 -0.11631,-0.337287 v -0.814139 l 1.75621,-0.232612 0.46523,-3.5008 q 0.0349,-0.174459 0.15119,-0.279134 0.11631,-0.104675 0.31403,-0.104675 h 1.04675 v 3.89624 z m 0.44197,-3.849718 q 0,0.290765 -0.11631,0.558268 -0.11631,0.255872 -0.32566,0.453592 -0.19772,0.186089 -0.46522,0.302394 -0.25587,0.116306 -0.54663,0.116306 -0.29077,0 -0.54664,-0.116306 -0.25587,-0.116305 -0.45359,-0.302394 -0.18609,-0.19772 -0.3024,-0.453592 -0.1163,-0.267503 -0.1163,-0.558268 0,-0.302394 0.1163,-0.558267 0.11631,-0.267503 0.3024,-0.465223 0.19772,-0.197719 0.45359,-0.314025 0.25587,-0.116305 0.54664,-0.116305 0.29076,0 0.54663,0.116305 0.2675,0.116306 0.46522,0.314025 0.20935,0.19772 0.32566,0.465223 0.11631,0.255873 0.11631,0.558267 z"
           style="font-weight:300;font-family:Carlito;-inkscape-font-specification:'Carlito Light'"
           id="path1881" />
        <path
           d="m 122.81704,35.646106 q 1.24447,0 2.24469,0.418701 1.00023,0.40707 1.69807,1.174687 0.69783,0.755987 1.07001,1.837629 0.38381,1.081643 0.38381,2.419158 0,1.349146 -0.38381,2.430789 -0.37218,1.081643 -1.07001,1.84926 -0.69784,0.755987 -1.69807,1.174687 -1.00022,0.40707 -2.24469,0.40707 -1.24448,0 -2.25633,-0.40707 -1.00023,-0.4187 -1.7097,-1.174687 -0.69783,-0.767617 -1.08164,-1.84926 -0.37218,-1.081643 -0.37218,-2.430789 0,-1.337515 0.37218,-2.419158 0.38381,-1.081642 1.08164,-1.837629 0.70947,-0.767617 1.7097,-1.174687 1.01185,-0.418701 2.25633,-0.418701 z m 0,10.118593 q 0.82577,0 1.44219,-0.279133 0.61642,-0.290764 1.02349,-0.837401 0.4187,-0.546637 0.61642,-1.337515 0.20935,-0.790879 0.20935,-1.802738 0,-1.011859 -0.20935,-1.802738 -0.19772,-0.790878 -0.61642,-1.337515 -0.40707,-0.546637 -1.02349,-0.837401 -0.61642,-0.290764 -1.44219,-0.290764 -0.83741,0 -1.46546,0.290764 -0.61642,0.290764 -1.03512,0.837401 -0.40707,0.546637 -0.61642,1.337515 -0.19772,0.790879 -0.19772,1.802738 0,1.011859 0.19772,1.802738 0.20935,0.790878 0.61642,1.337515 0.4187,0.546637 1.03512,0.837401 0.62805,0.279133 1.46546,0.279133 z"
           style="font-weight:300;font-family:Carlito;-inkscape-font-specification:'Carlito Light'"
           id="path1883" />
        <path
           d="M 130.71419,47.195259 V 35.820565 h 1.22121 q 0.22098,0 0.36055,0.104675 0.13956,0.09304 0.16283,0.314025 l 0.17445,1.209579 q 0.73273,-0.81414 1.63991,-1.302623 0.90719,-0.500115 2.09351,-0.500115 0.93044,0 1.62827,0.314026 0.70947,0.302394 1.18632,0.872292 0.47686,0.558267 0.7211,1.360776 0.24424,0.790879 0.24424,1.756216 v 7.245843 h -2.04698 v -7.245843 q 0,-1.267732 -0.58153,-1.977196 -0.5699,-0.709465 -1.74458,-0.709465 -0.8723,0 -1.62828,0.4187 -0.75599,0.40707 -1.38404,1.139796 v 8.374008 z"
           style="font-weight:300;font-family:Carlito;-inkscape-font-specification:'Carlito Light'"
           id="path1885" />
        <path
           d="m 160.76758,45.718177 q -1.11654,0.82577 -2.38427,1.23284 -1.2561,0.40707 -2.73318,0.40707 -1.77948,0 -3.22167,-0.569898 -1.43056,-0.569898 -2.44242,-1.593387 -1.01186,-1.035121 -1.55849,-2.465681 -0.54664,-1.44219 -0.54664,-3.175144 0,-1.744585 0.52337,-3.175145 0.53501,-1.44219 1.51198,-2.46568 0.9886,-1.035121 2.38426,-1.605018 1.39567,-0.569898 3.12863,-0.569898 0.88392,0 1.62828,0.139567 0.75598,0.127936 1.39566,0.383808 0.63969,0.244242 1.17469,0.60479 0.54664,0.360547 1.01186,0.802509 l -0.59316,0.953706 q -0.13956,0.232612 -0.37218,0.290765 -0.23261,0.05815 -0.50011,-0.104676 -0.2675,-0.151197 -0.59316,-0.360547 -0.31402,-0.220981 -0.75599,-0.40707 -0.44196,-0.19772 -1.04675,-0.337286 -0.60479,-0.139567 -1.43056,-0.139567 -1.20958,0 -2.19817,0.4187 -0.97697,0.418701 -1.67481,1.197949 -0.6862,0.779248 -1.05838,1.895782 -0.37218,1.104904 -0.37218,2.477311 0,1.430559 0.38381,2.570355 0.39544,1.128165 1.11654,1.919043 0.73272,0.779248 1.75621,1.197949 1.02349,0.40707 2.29122,0.40707 0.97697,0 1.74459,-0.220981 0.76762,-0.232611 1.51197,-0.639681 v -3.349603 h -2.19817 q -0.20935,0 -0.33729,-0.116306 -0.12794,-0.116306 -0.12794,-0.290764 V 39.83311 h 4.58245 v 5.885067 z"
           style="font-weight:300;font-family:Carlito;-inkscape-font-specification:'Carlito Light'"
           id="path1887" />
        <path
           d="m 162.88434,47.195259 z m 5.35006,-11.549153 q 1.02349,0 1.89578,0.337287 0.87229,0.337286 1.51197,0.988598 0.63968,0.651312 1.00023,1.593388 0.36055,0.942075 0.36055,2.163285 0,0.476853 -0.10468,0.639681 -0.10467,0.151198 -0.38381,0.151198 h -7.60639 q 0.0233,1.070012 0.29077,1.872521 0.2675,0.790878 0.73272,1.314254 0.47686,0.523375 1.12817,0.790878 0.65131,0.255873 1.45382,0.255873 0.74436,0 1.29099,-0.162828 0.54664,-0.174459 0.93045,-0.383809 0.39544,-0.20935 0.66294,-0.372178 0.2675,-0.174458 0.46522,-0.174458 0.12794,0 0.22098,0.05815 0.093,0.04652 0.16283,0.139567 l 0.58153,0.744356 q -0.38381,0.453593 -0.90718,0.790879 -0.51175,0.325656 -1.10491,0.546637 -0.59316,0.20935 -1.23284,0.314025 -0.62805,0.104675 -1.24447,0.104675 -1.18632,0 -2.18655,-0.395439 -1.00022,-0.39544 -1.73295,-1.163057 -0.72109,-0.779248 -1.12816,-1.907413 -0.40707,-1.139795 -0.40707,-2.616877 0,-1.186318 0.36054,-2.209808 0.37218,-1.035121 1.05838,-1.791107 0.69784,-0.767618 1.68644,-1.197949 1.00023,-0.430331 2.2447,-0.430331 z m 0.0349,1.488713 q -1.43056,0 -2.26796,0.837401 -0.82577,0.8374 -1.03512,2.291221 h 6.19909 q 0,-0.686203 -0.19772,-1.256101 -0.19772,-0.581528 -0.5699,-0.988598 -0.37218,-0.418701 -0.91881,-0.651312 -0.53501,-0.232611 -1.20958,-0.232611 z m 2.87275,-6.210723 -2.62851,2.896011 q -0.16283,0.174459 -0.32566,0.244242 -0.15119,0.06978 -0.3838,0.06978 h -1.22121 l 1.66317,-2.709922 q 0.15119,-0.255873 0.33728,-0.372179 0.18609,-0.127936 0.55827,-0.127936 z"
           style="font-weight:300;font-family:Carlito;-inkscape-font-specification:'Carlito Light'"
           id="path1889" />
        <path
           d="M 175.49188,47.195259 V 35.820565 h 1.22121 q 0.22098,0 0.36054,0.104675 0.13957,0.09304 0.16283,0.314025 l 0.17446,1.209579 q 0.73273,-0.81414 1.63991,-1.302623 0.90718,-0.500115 2.0935,-0.500115 0.93045,0 1.62828,0.314026 0.70947,0.302394 1.18632,0.872292 0.47685,0.558267 0.72109,1.360776 0.24425,0.790879 0.24425,1.756216 v 7.245843 h -2.04698 v -7.245843 q 0,-1.267732 -0.58153,-1.977196 -0.5699,-0.709465 -1.74459,-0.709465 -0.87229,0 -1.62828,0.4187 -0.75598,0.40707 -1.38403,1.139796 v 8.374008 z"
           style="font-weight:300;font-family:Carlito;-inkscape-font-specification:'Carlito Light'"
           id="path1891" />
        <path
           d="m 187.25037,47.195259 z m 5.35006,-11.549153 q 1.02349,0 1.89578,0.337287 0.8723,0.337286 1.51198,0.988598 0.63968,0.651312 1.00023,1.593388 0.36054,0.942075 0.36054,2.163285 0,0.476853 -0.10467,0.639681 -0.10468,0.151198 -0.38381,0.151198 h -7.60639 q 0.0233,1.070012 0.29076,1.872521 0.26751,0.790878 0.73273,1.314254 0.47685,0.523375 1.12816,0.790878 0.65132,0.255873 1.45383,0.255873 0.74435,0 1.29099,-0.162828 0.54663,-0.174459 0.93044,-0.383809 0.39544,-0.20935 0.66295,-0.372178 0.2675,-0.174458 0.46522,-0.174458 0.12793,0 0.22098,0.05815 0.093,0.04652 0.16283,0.139567 l 0.58153,0.744356 q -0.38381,0.453593 -0.90719,0.790879 -0.51174,0.325656 -1.1049,0.546637 -0.59316,0.20935 -1.23284,0.314025 -0.62805,0.104675 -1.24447,0.104675 -1.18632,0 -2.18655,-0.395439 -1.00023,-0.39544 -1.73295,-1.163057 -0.7211,-0.779248 -1.12817,-1.907413 -0.40707,-1.139795 -0.40707,-2.616877 0,-1.186318 0.36055,-2.209808 0.37218,-1.035121 1.05838,-1.791107 0.69783,-0.767618 1.68643,-1.197949 1.00023,-0.430331 2.2447,-0.430331 z m 0.0349,1.488713 q -1.43056,0 -2.26796,0.837401 -0.82577,0.8374 -1.03512,2.291221 h 6.19909 q 0,-0.686203 -0.19772,-1.256101 -0.19771,-0.581528 -0.56989,-0.988598 -0.37218,-0.418701 -0.91882,-0.651312 -0.535,-0.232611 -1.20958,-0.232611 z m 2.87275,-6.210723 -2.6285,2.896011 q -0.16283,0.174459 -0.32566,0.244242 -0.1512,0.06978 -0.38381,0.06978 h -1.22121 l 1.66317,-2.709922 q 0.1512,-0.255873 0.33729,-0.372179 0.18609,-0.127936 0.55827,-0.127936 z"
           style="font-weight:300;font-family:Carlito;-inkscape-font-specification:'Carlito Light'"
           id="path1893" />
        <path
           d="M 199.75323,47.195259 V 35.820565 h 1.17469 q 0.32565,0 0.45359,0.127936 0.13957,0.127936 0.16283,0.430331 l 0.13956,1.674802 q 0.52338,-1.128165 1.291,-1.779477 0.76761,-0.651312 1.84926,-0.651312 0.36054,0 0.67457,0.08141 0.31403,0.06978 0.5699,0.244242 l -0.16283,1.511974 q -0.0349,0.290764 -0.32566,0.290764 -0.16282,0 -0.46522,-0.05815 -0.29076,-0.06978 -0.65131,-0.06978 -0.52338,0 -0.93045,0.162828 -0.39544,0.151197 -0.72109,0.465222 -0.31403,0.302395 -0.55827,0.744357 -0.24424,0.441961 -0.45359,1.011859 v 7.18769 z"
           style="font-weight:300;font-family:Carlito;-inkscape-font-specification:'Carlito Light'"
           id="path1895" />
        <path
           d="m 215.08233,47.195259 q -0.3024,0 -0.46523,-0.09304 -0.16282,-0.09305 -0.22098,-0.383809 l -0.25587,-1.058382 q -0.44196,0.40707 -0.87229,0.732726 -0.4187,0.314025 -0.88393,0.535006 -0.46522,0.220981 -1.00022,0.325656 -0.53501,0.116306 -1.17469,0.116306 -0.66294,0 -1.24447,-0.174459 -0.5699,-0.186089 -1.01186,-0.558267 -0.43033,-0.383809 -0.6862,-0.942076 -0.24425,-0.569898 -0.24425,-1.337515 0,-0.674573 0.36055,-1.290993 0.37218,-0.628051 1.19795,-1.116535 0.82577,-0.488483 2.15165,-0.790878 1.32589,-0.314025 3.25656,-0.360548 v -0.872292 q 0,-1.325885 -0.56989,-1.988827 -0.55827,-0.674573 -1.63991,-0.674573 -0.7211,0 -1.22121,0.186089 -0.48849,0.186089 -0.84904,0.40707 -0.36054,0.220981 -0.62805,0.40707 -0.25587,0.186089 -0.52337,0.186089 -0.20935,0 -0.36055,-0.104675 -0.1512,-0.104675 -0.24424,-0.267503 l -0.37218,-0.651312 q 0.94208,-0.907184 2.02372,-1.349146 1.09327,-0.453592 2.41916,-0.453592 0.9537,0 1.69806,0.314025 0.74436,0.302395 1.24447,0.872293 0.50011,0.569898 0.75599,1.360776 0.2675,0.790879 0.2675,1.756216 v 7.269104 z m -4.25679,-1.256101 q 0.51174,0 0.94207,-0.104675 0.43034,-0.104675 0.81414,-0.290764 0.38381,-0.19772 0.7211,-0.476854 0.34892,-0.290764 0.6862,-0.639681 V 42.07781 q -1.36077,0.05815 -2.31448,0.232611 -0.95371,0.162828 -1.5585,0.441962 -0.59315,0.279133 -0.86066,0.662942 -0.2675,0.372178 -0.2675,0.837401 0,0.441961 0.13957,0.767617 0.15119,0.314025 0.39544,0.523376 0.24424,0.197719 0.58152,0.302394 0.33729,0.09304 0.7211,0.09304 z"
           style="font-weight:300;font-family:Carlito;-inkscape-font-specification:'Carlito Light'"
           id="path1897" />
        <path
           d="m 221.21163,30.656593 v 16.538666 h -2.04698 V 30.656593 Z"
           style="font-weight:300;font-family:Carlito;-inkscape-font-specification:'Carlito Light'"
           id="path1899" />
        <path
           d="m 229.14368,35.646106 q 1.02348,0 1.89578,0.337287 0.87229,0.337286 1.51197,0.988598 0.63968,0.651312 1.00023,1.593388 0.36055,0.942075 0.36055,2.163285 0,0.476853 -0.10468,0.639681 -0.10467,0.151198 -0.38381,0.151198 h -7.60639 q 0.0233,1.070012 0.29077,1.872521 0.2675,0.790878 0.73272,1.314254 0.47686,0.523375 1.12817,0.790878 0.65131,0.255873 1.45382,0.255873 0.74435,0 1.29099,-0.162828 0.54664,-0.174459 0.93045,-0.383809 0.39544,-0.20935 0.66294,-0.372178 0.2675,-0.174458 0.46522,-0.174458 0.12794,0 0.22098,0.05815 0.0931,0.04652 0.16283,0.139567 l 0.58153,0.744356 q -0.38381,0.453593 -0.90719,0.790879 -0.51174,0.325656 -1.1049,0.546637 -0.59316,0.20935 -1.23284,0.314025 -0.62805,0.104675 -1.24447,0.104675 -1.18632,0 -2.18655,-0.395439 -1.00023,-0.39544 -1.73295,-1.163057 -0.7211,-0.779248 -1.12817,-1.907413 -0.40707,-1.139795 -0.40707,-2.616877 0,-1.186318 0.36055,-2.209808 0.37218,-1.035121 1.05838,-1.791107 0.69784,-0.767618 1.68644,-1.197949 1.00022,-0.430331 2.2447,-0.430331 z m 0.0349,1.488713 q -1.43056,0 -2.26796,0.837401 -0.82577,0.8374 -1.03512,2.291221 h 6.19909 q 0,-0.686203 -0.19772,-1.256101 -0.19772,-0.581528 -0.5699,-0.988598 -0.37218,-0.418701 -0.91881,-0.651312 -0.53501,-0.232611 -1.20958,-0.232611 z"
           style="font-weight:300;font-family:Carlito;-inkscape-font-specification:'Carlito Light'"
           id="path1901" />
        <path
           d="m 40.298163,61.9195 q 0.267503,0 0.40707,0.06978 0.139567,0.05815 0.314025,0.290764 l 8.304225,11.432847 q -0.02326,-0.279133 -0.04652,-0.546636 -0.01163,-0.279134 -0.01163,-0.511745 V 61.9195 h 1.860891 v 15.282565 h -1.070012 q -0.244242,0 -0.418701,-0.08141 -0.162828,-0.08141 -0.325656,-0.290765 L 41.007628,65.431931 q 0.02326,0.267503 0.03489,0.511745 0.01163,0.244242 0.01163,0.465223 V 77.202065 H 39.193259 V 61.9195 h 1.104904 z"
           style="font-weight:300;font-family:Carlito;-inkscape-font-specification:'Carlito Light'"
           id="path1903" />
        <path
           d="m 56.348345,65.82737 v 7.245843 q 0,1.279363 0.569898,1.988827 0.581528,0.697834 1.756216,0.697834 0.872292,0 1.616648,-0.40707 0.755987,-0.4187 1.395668,-1.139795 V 65.82737 h 2.04698 v 11.374695 h -1.23284 q -0.20935,0 -0.348917,-0.09305 -0.139567,-0.104675 -0.162828,-0.325656 l -0.186089,-1.209579 q -0.732726,0.81414 -1.63991,1.314254 -0.895553,0.488484 -2.081871,0.488484 -0.930446,0 -1.63991,-0.302395 -0.697834,-0.314025 -1.174687,-0.872292 -0.476854,-0.569898 -0.721096,-1.360777 -0.244241,-0.802509 -0.244241,-1.767846 V 65.82737 Z"
           style="font-weight:300;font-family:Carlito;-inkscape-font-specification:'Carlito Light'"
           id="path1905" />
        <path
           d="M 67.071727,77.202065 V 65.82737 h 1.209579 q 0.232611,0 0.360548,0.104675 0.139566,0.09305 0.162828,0.314026 l 0.174458,1.163056 q 0.325656,-0.383808 0.674573,-0.697834 0.360548,-0.325656 0.767617,-0.558267 0.40707,-0.244242 0.872293,-0.372178 0.465223,-0.127936 0.988598,-0.127936 1.174687,0 1.907413,0.639681 0.744356,0.639681 1.058382,1.721324 0.244242,-0.628051 0.639681,-1.070012 0.40707,-0.441962 0.895553,-0.732726 0.488484,-0.290764 1.046751,-0.418701 0.558268,-0.139566 1.139796,-0.139566 1.860891,0 2.87275,1.116534 1.02349,1.116535 1.02349,3.186775 v 7.245844 h -2.04698 v -7.245844 q 0,-1.325884 -0.604789,-2.000457 -0.60479,-0.686204 -1.732955,-0.686204 -0.511745,0 -0.965337,0.174459 -0.453592,0.162828 -0.802509,0.511745 -0.337286,0.337286 -0.546637,0.837401 -0.197719,0.500114 -0.197719,1.163056 v 7.245844 h -2.04698 v -7.245844 q 0,-1.360776 -0.569898,-2.023718 -0.558267,-0.662943 -1.65154,-0.662943 -0.744357,0 -1.395668,0.39544 -0.651312,0.383808 -1.186318,1.070012 v 8.467053 z"
           style="font-weight:300;font-family:Carlito;-inkscape-font-specification:'Carlito Light'"
           id="path1907" />
        <path
           d="m 85.261933,77.202065 z m 5.350061,-11.549153 q 1.02349,0 1.895782,0.337286 0.872293,0.337287 1.511974,0.988598 0.639681,0.651312 1.000229,1.593388 0.360547,0.942076 0.360547,2.163285 0,0.476854 -0.104675,0.639682 -0.104675,0.151197 -0.383808,0.151197 h -7.606391 q 0.02326,1.070012 0.290764,1.872521 0.267503,0.790879 0.732726,1.314254 0.476853,0.523376 1.128165,0.790879 0.651312,0.255872 1.453821,0.255872 0.744356,0 1.290993,-0.162828 0.546636,-0.174458 0.930445,-0.383808 0.395439,-0.209351 0.662942,-0.372179 0.267503,-0.174458 0.465223,-0.174458 0.127936,0 0.220981,0.05815 0.09304,0.04652 0.162828,0.139567 l 0.581528,0.744356 q -0.383809,0.453592 -0.907184,0.790878 -0.511745,0.325656 -1.104904,0.546637 -0.593159,0.20935 -1.23284,0.314025 -0.628051,0.104675 -1.244471,0.104675 -1.186318,0 -2.186546,-0.395439 -1.000229,-0.395439 -1.732955,-1.163057 -0.721095,-0.779247 -1.128165,-1.907412 -0.40707,-1.139796 -0.40707,-2.616878 0,-1.186318 0.360548,-2.209808 0.372178,-1.03512 1.058381,-1.791107 0.697834,-0.767617 1.686433,-1.197948 1.000228,-0.430331 2.244699,-0.430331 z m 0.03489,1.488712 q -1.43056,0 -2.267961,0.837401 -0.82577,0.837401 -1.03512,2.291222 h 6.199092 q 0,-0.686204 -0.19772,-1.256102 -0.197719,-0.581528 -0.569898,-0.988598 -0.372178,-0.4187 -0.918814,-0.651311 -0.535006,-0.232612 -1.209579,-0.232612 z m 2.87275,-6.210722 -2.628508,2.896011 q -0.162828,0.174458 -0.325656,0.244242 -0.151198,0.06978 -0.383809,0.06978 h -1.221209 l 1.663171,-2.709922 q 0.151197,-0.255873 0.337286,-0.372178 0.186089,-0.127936 0.558267,-0.127936 z"
           style="font-weight:300;font-family:Carlito;-inkscape-font-specification:'Carlito Light'"
           id="path1909" />
        <path
           d="M 97.764792,77.202065 V 65.82737 h 1.174688 q 0.325655,0 0.453592,0.127936 0.139566,0.127937 0.162828,0.430331 l 0.139566,1.674802 q 0.523374,-1.128165 1.290994,-1.779477 0.76762,-0.651311 1.84926,-0.651311 0.36055,0 0.67457,0.08141 0.31403,0.06978 0.5699,0.244241 l -0.16283,1.511974 q -0.0349,0.290764 -0.32565,0.290764 -0.16283,0 -0.46523,-0.05815 -0.29076,-0.06978 -0.65131,-0.06978 -0.52337,0 -0.93044,0.162828 -0.39544,0.151197 -0.7211,0.465223 -0.31402,0.302394 -0.55827,0.744356 -0.24424,0.441961 -0.453588,1.011859 v 7.187691 z"
           style="font-weight:300;font-family:Carlito;-inkscape-font-specification:'Carlito Light'"
           id="path1911" />
        <path
           d="m 105.82478,77.202065 z m 2.47731,-11.374695 v 11.374695 h -2.04698 V 65.82737 Z m 0.39544,-3.558953 q 0,0.290764 -0.11631,0.558267 -0.11631,0.255872 -0.32566,0.453592 -0.19771,0.186089 -0.46522,0.302395 -0.25587,0.116305 -0.54663,0.116305 -0.29077,0 -0.54664,-0.116305 -0.25587,-0.116306 -0.45359,-0.302395 -0.18609,-0.19772 -0.3024,-0.453592 -0.1163,-0.267503 -0.1163,-0.558267 0,-0.302395 0.1163,-0.558267 0.11631,-0.267503 0.3024,-0.465223 0.19772,-0.19772 0.45359,-0.314025 0.25587,-0.116306 0.54664,-0.116306 0.29076,0 0.54663,0.116306 0.26751,0.116305 0.46522,0.314025 0.20935,0.19772 0.32566,0.465223 0.11631,0.255872 0.11631,0.558267 z"
           style="font-weight:300;font-family:Carlito;-inkscape-font-specification:'Carlito Light'"
           id="path1913" />
        <path
           d="m 120.88636,65.82737 v 15.212782 h -2.04698 v -5.501259 q -0.70946,0.837401 -1.61664,1.337516 -0.90719,0.488483 -2.07025,0.488483 -0.97696,0 -1.76784,-0.372178 -0.79088,-0.383808 -1.34915,-1.116534 -0.55826,-0.732726 -0.86066,-1.814369 -0.30239,-1.093273 -0.30239,-2.512202 0,-1.256101 0.33728,-2.337744 0.33729,-1.093273 0.96534,-1.884152 0.62805,-0.790878 1.53523,-1.24447 0.90719,-0.453592 2.04698,-0.453592 1.10491,0 1.86089,0.395439 0.76762,0.383809 1.36078,1.093273 l 0.1512,-0.872292 q 0.0814,-0.418701 0.535,-0.418701 z m -5.07092,9.897613 q 0.96533,0 1.68643,-0.441962 0.72109,-0.453592 1.33751,-1.256101 v -5.501258 q -0.52337,-0.709465 -1.18631,-1.01186 -0.65132,-0.314025 -1.43056,-0.314025 -1.5585,0 -2.40753,1.128165 -0.8374,1.128165 -0.8374,3.221667 0,1.104904 0.18609,1.895782 0.19772,0.790879 0.55826,1.302624 0.37218,0.500114 0.89556,0.744356 0.535,0.232612 1.19795,0.232612 z"
           style="font-weight:300;font-family:Carlito;-inkscape-font-specification:'Carlito Light'"
           id="path1915" />
        <path
           d="m 126.02707,65.82737 v 7.245843 q 0,1.279363 0.5699,1.988827 0.58153,0.697834 1.75622,0.697834 0.87229,0 1.61664,-0.40707 0.75599,-0.4187 1.39567,-1.139795 V 65.82737 h 2.04698 v 11.374695 h -1.23284 q -0.20935,0 -0.34891,-0.09305 -0.13957,-0.104675 -0.16283,-0.325656 l -0.18609,-1.209579 q -0.73273,0.81414 -1.63991,1.314254 -0.89556,0.488484 -2.08187,0.488484 -0.93045,0 -1.63991,-0.302395 -0.69784,-0.314025 -1.17469,-0.872292 -0.47685,-0.569898 -0.7211,-1.360777 -0.24424,-0.802509 -0.24424,-1.767846 V 65.82737 Z"
           style="font-weight:300;font-family:Carlito;-inkscape-font-specification:'Carlito Light'"
           id="path1917" />
        <path
           d="m 141.26311,65.652912 q 1.02349,0 1.89579,0.337286 0.87229,0.337287 1.51197,0.988598 0.63968,0.651312 1.00023,1.593388 0.36055,0.942076 0.36055,2.163285 0,0.476854 -0.10468,0.639682 -0.10467,0.151197 -0.38381,0.151197 h -7.60639 q 0.0233,1.070012 0.29077,1.872521 0.2675,0.790879 0.73272,1.314254 0.47685,0.523376 1.12817,0.790879 0.65131,0.255872 1.45382,0.255872 0.74435,0 1.29099,-0.162828 0.54664,-0.174458 0.93045,-0.383808 0.39543,-0.209351 0.66294,-0.372179 0.2675,-0.174458 0.46522,-0.174458 0.12794,0 0.22098,0.05815 0.0931,0.04652 0.16283,0.139567 l 0.58153,0.744356 q -0.38381,0.453592 -0.90719,0.790878 -0.51174,0.325656 -1.1049,0.546637 -0.59316,0.20935 -1.23284,0.314025 -0.62805,0.104675 -1.24447,0.104675 -1.18632,0 -2.18655,-0.395439 -1.00023,-0.395439 -1.73295,-1.163057 -0.7211,-0.779247 -1.12817,-1.907412 -0.40707,-1.139796 -0.40707,-2.616878 0,-1.186318 0.36055,-2.209808 0.37218,-1.03512 1.05838,-1.791107 0.69784,-0.767617 1.68643,-1.197948 1.00023,-0.430331 2.2447,-0.430331 z m 0.0349,1.488712 q -1.43055,0 -2.26796,0.837401 -0.82577,0.837401 -1.03512,2.291222 h 6.1991 q 0,-0.686204 -0.19772,-1.256102 -0.19772,-0.581528 -0.5699,-0.988598 -0.37218,-0.4187 -0.91882,-0.651311 -0.535,-0.232612 -1.20958,-0.232612 z"
           style="font-weight:300;font-family:Carlito;-inkscape-font-specification:'Carlito Light'"
           id="path1919" />
      </g>
    </g>
    <g
       aria-label="démarches normaliennes"
       id="text1537"
       style="font-weight:bold;font-size:20.6667px;line-height:1.25;font-family:Marianne;-inkscape-font-specification:'Marianne Bold';letter-spacing:0.91px;fill:#000000">
      <path
         d="m 111.96941,24.152809 q -0.19173,0 -0.31282,-0.08073 -0.1211,-0.09082 -0.14128,-0.282553 l -0.18164,-1.180666 q -0.62565,0.756837 -1.42285,1.221031 -0.7972,0.464193 -1.84669,0.464193 -0.83756,0 -1.52376,-0.322917 -0.67611,-0.333008 -1.16048,-0.968751 -0.48438,-0.635744 -0.74675,-1.574222 -0.26237,-0.948569 -0.26237,-2.179691 0,-1.089845 0.28255,-2.028323 0.29265,-0.94857 0.83757,-1.634769 0.54492,-0.686199 1.32194,-1.079754 0.78711,-0.393555 1.77605,-0.393555 0.89811,0 1.53385,0.302735 0.63575,0.292643 1.13021,0.847657 V 9.8031764 h 1.77605 V 24.152809 Z m -3.33008,-1.281577 q 0.83757,0 1.45313,-0.383465 0.62565,-0.393555 1.16048,-1.089845 v -4.77312 q -0.47428,-0.635743 -1.0293,-0.888022 -0.55501,-0.26237 -1.23112,-0.26237 -1.34212,0 -2.06869,0.978842 -0.72656,0.978843 -0.72656,2.795252 0,0.958661 0.16146,1.64486 0.17155,0.686199 0.48437,1.13021 0.31283,0.43392 0.76693,0.645834 0.4541,0.201824 1.0293,0.201824 z"
         style="font-weight:normal;font-family:Carlito;-inkscape-font-specification:Carlito;fill:#000000"
         id="path1826" />
      <path
         d="m 116.14895,24.152809 z m 4.64194,-10.020524 q 0.88802,0 1.64485,0.292644 0.75684,0.292643 1.31186,0.857748 0.55501,0.565106 0.86784,1.38249 0.31282,0.817384 0.31282,1.876956 0,0.413738 -0.0908,0.555014 -0.0908,0.131185 -0.33301,0.131185 h -6.59962 q 0.0202,0.928387 0.25228,1.624677 0.2321,0.686199 0.63575,1.140301 0.41373,0.454103 0.97884,0.686199 0.5651,0.222006 1.26139,0.222006 0.64584,0 1.12012,-0.141276 0.47429,-0.151368 0.8073,-0.333009 0.34309,-0.181641 0.57519,-0.322917 0.2321,-0.151367 0.40365,-0.151367 0.111,0 0.19173,0.05046 0.0807,0.04036 0.14128,0.121094 l 0.50455,0.645834 q -0.333,0.393555 -0.78711,0.686199 -0.44401,0.282552 -0.95866,0.474285 -0.51465,0.18164 -1.06966,0.272461 -0.54492,0.09082 -1.07975,0.09082 -1.0293,0 -1.89714,-0.343099 -0.86784,-0.3431 -1.50359,-1.009116 -0.62565,-0.676108 -0.97884,-1.654951 -0.35319,-0.988934 -0.35319,-2.270511 0,-1.029299 0.31283,-1.917321 0.32291,-0.898114 0.91829,-1.554039 0.60547,-0.666017 1.46322,-1.03939 0.86784,-0.373373 1.9476,-0.373373 z m 0.0303,1.291669 q -1.24121,0 -1.96778,0.726563 -0.71647,0.726564 -0.89811,1.987959 h 5.37859 q 0,-0.595378 -0.17155,-1.089845 -0.17155,-0.504558 -0.49447,-0.857749 -0.32292,-0.363282 -0.7972,-0.565105 -0.46419,-0.201823 -1.04948,-0.201823 z m 2.49252,-5.388681 -2.28061,2.5127 q -0.14127,0.151367 -0.28255,0.211914 -0.13118,0.06055 -0.33301,0.06055 h -1.05957 l 1.44304,-2.351241 q 0.13118,-0.222005 0.29264,-0.322917 0.16146,-0.111003 0.48438,-0.111003 z"
         style="font-weight:normal;font-family:Carlito;-inkscape-font-specification:Carlito;fill:#000000"
         id="path1828" />
      <path
         d="m 128.06841,24.152809 v -9.869157 h 1.04948 q 0.20182,0 0.31283,0.09082 0.12109,0.08073 0.14127,0.272461 l 0.15137,1.009116 q 0.28255,-0.333008 0.58529,-0.605469 0.31282,-0.282553 0.66601,-0.484376 0.35319,-0.211914 0.75684,-0.322917 0.40365,-0.111003 0.85775,-0.111003 1.01921,0 1.65495,0.555014 0.64584,0.555014 0.9183,1.493492 0.21191,-0.544923 0.55501,-0.928387 0.35319,-0.383464 0.77702,-0.635743 0.42383,-0.252279 0.9082,-0.363282 0.48438,-0.121094 0.98894,-0.121094 1.61458,0 2.49252,0.968752 0.88802,0.968751 0.88802,2.764978 v 6.286794 h -1.77605 v -6.286794 q 0,-1.150392 -0.52474,-1.73568 -0.52474,-0.595378 -1.50358,-0.595378 -0.44401,0 -0.83757,0.151367 -0.39355,0.141276 -0.69629,0.444011 -0.29264,0.292644 -0.47428,0.726564 -0.17155,0.43392 -0.17155,1.009116 v 6.286794 h -1.77605 v -6.286794 q 0,-1.180666 -0.49446,-1.755862 -0.48438,-0.575196 -1.43295,-0.575196 -0.64583,0 -1.21094,0.343099 -0.5651,0.333008 -1.0293,0.928387 v 7.346366 z"
         style="font-weight:normal;font-family:Carlito;-inkscape-font-specification:Carlito;fill:#000000"
         id="path1830" />
      <path
         d="m 151.84498,24.152809 q -0.26237,0 -0.40364,-0.08073 -0.14128,-0.08073 -0.19174,-0.333009 l -0.222,-0.918295 q -0.38346,0.35319 -0.75684,0.635743 -0.36328,0.272461 -0.76693,0.464193 -0.40364,0.191732 -0.86784,0.282553 -0.46419,0.100912 -1.0192,0.100912 -0.5752,0 -1.07976,-0.151368 -0.49446,-0.161458 -0.87793,-0.484376 -0.37337,-0.333008 -0.59538,-0.817384 -0.21191,-0.494467 -0.21191,-1.160483 0,-0.585288 0.31282,-1.120119 0.32292,-0.544923 1.03939,-0.968752 0.71648,-0.423829 1.86687,-0.686199 1.15039,-0.272461 2.82552,-0.312826 v -0.756837 q 0,-1.150393 -0.49446,-1.725589 -0.48438,-0.585287 -1.42286,-0.585287 -0.62565,0 -1.05957,0.161458 -0.42383,0.161459 -0.73665,0.353191 -0.31283,0.191732 -0.54493,0.353191 -0.222,0.161458 -0.4541,0.161458 -0.18164,0 -0.31282,-0.09082 -0.13119,-0.09082 -0.21192,-0.232097 l -0.32292,-0.565105 q 0.81739,-0.787111 1.75587,-1.170575 0.94857,-0.393555 2.09896,-0.393555 0.82747,0 1.47331,0.272461 0.64583,0.26237 1.07975,0.756837 0.43392,0.494467 0.65593,1.180666 0.23209,0.686199 0.23209,1.523766 v 6.306976 z m -3.69336,-1.089845 q 0.44401,0 0.81738,-0.09082 0.37338,-0.09082 0.70638,-0.252279 0.33301,-0.17155 0.62566,-0.413738 0.30273,-0.252279 0.59537,-0.555013 v -2.038415 q -1.18066,0.05046 -2.00814,0.201823 -0.82747,0.141276 -1.35221,0.383464 -0.51465,0.242188 -0.74675,0.575196 -0.2321,0.322918 -0.2321,0.726564 0,0.383464 0.1211,0.666017 0.13118,0.272461 0.3431,0.454102 0.21191,0.17155 0.50456,0.26237 0.29264,0.08073 0.62565,0.08073 z"
         style="font-weight:normal;font-family:Carlito;-inkscape-font-specification:Carlito;fill:#000000"
         id="path1832" />
      <path
         d="m 156.13552,24.152809 v -9.869157 h 1.01921 q 0.28255,0 0.39355,0.111003 0.1211,0.111003 0.14128,0.373373 l 0.12109,1.453128 q 0.45411,-0.978843 1.12012,-1.543948 0.66602,-0.565105 1.6045,-0.565105 0.31282,0 0.58529,0.07064 0.27246,0.06055 0.49446,0.211914 l -0.14127,1.311851 q -0.0303,0.252279 -0.28256,0.252279 -0.14127,0 -0.40364,-0.05046 -0.25228,-0.06055 -0.56511,-0.06055 -0.4541,0 -0.80729,0.141276 -0.3431,0.131185 -0.62565,0.403646 -0.27246,0.262371 -0.48438,0.645835 -0.21191,0.383464 -0.39355,0.877931 v 6.236338 z"
         style="font-weight:normal;font-family:Carlito;-inkscape-font-specification:Carlito;fill:#000000"
         id="path1834" />
      <path
         d="m 170.38604,16.059697 q -0.0807,0.111003 -0.16146,0.17155 -0.0706,0.05046 -0.21191,0.05046 -0.15137,0 -0.31283,-0.121094 -0.16146,-0.121094 -0.40365,-0.262371 -0.24219,-0.151367 -0.59538,-0.272461 -0.3431,-0.121094 -0.84765,-0.121094 -0.66602,0 -1.18067,0.26237 -0.50456,0.252279 -0.84766,0.736655 -0.33301,0.474285 -0.51465,1.160484 -0.17155,0.686199 -0.17155,1.543948 0,0.888022 0.18164,1.584312 0.19174,0.686199 0.53484,1.160484 0.3431,0.474284 0.82747,0.726563 0.48438,0.242188 1.08985,0.242188 0.58528,0 0.95866,-0.151367 0.37337,-0.151368 0.62565,-0.333008 0.25228,-0.181641 0.41374,-0.333009 0.17155,-0.151367 0.35319,-0.151367 0.20182,0 0.32292,0.17155 l 0.51464,0.645834 q -0.32291,0.393555 -0.71647,0.686199 -0.39355,0.282552 -0.84766,0.474285 -0.4541,0.18164 -0.94856,0.272461 -0.48438,0.09082 -0.98894,0.09082 -0.86784,0 -1.62468,-0.343099 -0.75683,-0.3431 -1.32194,-0.988934 -0.55501,-0.655926 -0.87793,-1.594404 -0.31283,-0.948569 -0.31283,-2.159508 0,-1.099937 0.29265,-2.028324 0.29264,-0.938478 0.84766,-1.614586 0.5651,-0.676108 1.38249,-1.049481 0.82747,-0.383464 1.89713,-0.383464 1.00912,0 1.76596,0.3431 0.75683,0.333008 1.34212,0.938478 z"
         style="font-weight:normal;font-family:Carlito;-inkscape-font-specification:Carlito;fill:#000000"
         id="path1836" />
      <path
         d="M 173.71792,24.152809 V 9.8031764 h 1.77604 v 5.7822356 q 0.61556,-0.666016 1.36231,-1.059572 0.75683,-0.393555 1.74577,-0.393555 0.80729,0 1.41276,0.272461 0.61556,0.262371 1.0293,0.756838 0.41374,0.484375 0.61556,1.180666 0.21191,0.686199 0.21191,1.523765 v 6.286794 h -1.77604 v -6.286794 q 0,-1.099937 -0.49447,-1.715498 -0.49446,-0.61556 -1.51367,-0.61556 -0.75684,0 -1.40267,0.363281 -0.64584,0.363282 -1.19076,0.999025 v 7.255546 z"
         style="font-weight:normal;font-family:Carlito;-inkscape-font-specification:Carlito;fill:#000000"
         id="path1838" />
      <path
         d="m 189.44175,14.132285 q 0.88802,0 1.64486,0.292644 0.75683,0.292643 1.31185,0.857748 0.55501,0.565106 0.86784,1.38249 0.31282,0.817384 0.31282,1.876956 0,0.413738 -0.0908,0.555014 -0.0908,0.131185 -0.333,0.131185 h -6.59962 q 0.0202,0.928387 0.25227,1.624677 0.2321,0.686199 0.63575,1.140301 0.41374,0.454103 0.97884,0.686199 0.56511,0.222006 1.2614,0.222006 0.64583,0 1.12012,-0.141276 0.47428,-0.151368 0.80729,-0.333009 0.3431,-0.181641 0.57519,-0.322917 0.2321,-0.151367 0.40365,-0.151367 0.111,0 0.19173,0.05046 0.0807,0.04036 0.14128,0.121094 l 0.50456,0.645834 q -0.33301,0.393555 -0.78711,0.686199 -0.44401,0.282552 -0.95866,0.474285 -0.51465,0.18164 -1.06967,0.272461 -0.54492,0.09082 -1.07975,0.09082 -1.0293,0 -1.89714,-0.343099 -0.86784,-0.3431 -1.50358,-1.009116 -0.62566,-0.676108 -0.97885,-1.654951 -0.35319,-0.988934 -0.35319,-2.270511 0,-1.029299 0.31283,-1.917321 0.32292,-0.898114 0.9183,-1.554039 0.60547,-0.666017 1.46321,-1.03939 0.86784,-0.373373 1.9476,-0.373373 z m 0.0303,1.291669 q -1.24121,0 -1.96777,0.726563 -0.71648,0.726564 -0.89812,1.987959 h 5.37859 q 0,-0.595378 -0.17155,-1.089845 -0.17155,-0.504558 -0.49447,-0.857749 -0.32291,-0.363282 -0.7972,-0.565105 -0.46419,-0.201823 -1.04948,-0.201823 z"
         style="font-weight:normal;font-family:Carlito;-inkscape-font-specification:Carlito;fill:#000000"
         id="path1840" />
      <path
         d="m 202.08777,15.918421 q -0.12109,0.222005 -0.36328,0.222005 -0.15137,0 -0.33301,-0.111002 -0.17155,-0.111003 -0.42383,-0.232097 -0.24219,-0.131185 -0.58529,-0.242188 -0.33301,-0.111003 -0.7972,-0.111003 -0.39355,0 -0.70638,0.111003 -0.31283,0.111003 -0.53483,0.302735 -0.22201,0.191732 -0.3431,0.454102 -0.1211,0.252279 -0.1211,0.544923 0,0.383464 0.20183,0.635743 0.20182,0.252279 0.53483,0.43392 0.33301,0.181641 0.75684,0.333008 0.43392,0.141277 0.87793,0.292644 0.44401,0.151368 0.86784,0.353191 0.43392,0.201823 0.76693,0.494467 0.333,0.292643 0.53483,0.716472 0.20182,0.413738 0.20182,1.009116 0,0.686199 -0.2321,1.271487 -0.23209,0.575196 -0.68619,0.999025 -0.44402,0.423829 -1.11003,0.666017 -0.65593,0.242188 -1.51368,0.242188 -0.97884,0 -1.78613,-0.333009 -0.7972,-0.333008 -1.35222,-0.86784 l 0.41374,-0.666016 q 0.0807,-0.131186 0.19173,-0.201824 0.111,-0.07064 0.28255,-0.07064 0.18164,0 0.36329,0.141276 0.18164,0.131186 0.43392,0.302735 0.26237,0.161459 0.62565,0.302735 0.36328,0.131185 0.9082,0.131185 0.4642,0 0.7972,-0.131185 0.3431,-0.131185 0.56511,-0.343099 0.222,-0.222006 0.33301,-0.51465 0.111,-0.292643 0.111,-0.615561 0,-0.403646 -0.21191,-0.666016 -0.20183,-0.272462 -0.53484,-0.454103 -0.333,-0.191732 -0.76692,-0.333008 -0.42383,-0.141276 -0.87793,-0.292644 -0.44402,-0.161458 -0.87794,-0.35319 -0.42382,-0.201824 -0.75683,-0.504558 -0.33301,-0.312826 -0.54493,-0.756838 -0.20182,-0.444011 -0.20182,-1.079754 0,-0.575196 0.22201,-1.089845 0.222,-0.524741 0.64583,-0.918296 0.42383,-0.393556 1.04948,-0.625652 0.62565,-0.232097 1.43295,-0.232097 0.91829,0 1.66504,0.302735 0.74674,0.302735 1.27148,0.847657 z"
         style="font-weight:normal;font-family:Carlito;-inkscape-font-specification:Carlito;fill:#000000"
         id="path1842" />
      <path
         d="M 211.0624,24.152809 V 14.132285 h 1.57422 q 0.24219,0 0.40365,0.111003 0.17155,0.111003 0.222,0.343099 l 0.17155,0.736655 q 0.30274,-0.302735 0.62566,-0.544923 0.32291,-0.252279 0.69629,-0.423828 0.37337,-0.181641 0.78711,-0.282553 0.42383,-0.100912 0.92838,-0.100912 0.81739,0 1.44304,0.282553 0.62565,0.282552 1.04948,0.787111 0.42383,0.504558 0.63574,1.210939 0.22201,0.69629 0.22201,1.523766 v 6.377614 h -2.56316 v -6.377614 q 0,-0.857749 -0.39355,-1.332034 -0.39356,-0.474284 -1.18067,-0.474284 -0.58528,0 -1.09993,0.252279 -0.50456,0.252279 -0.95866,0.706381 v 7.225272 z"
         style="font-family:Carlito;-inkscape-font-specification:'Carlito Bold';fill:#000000"
         id="path1844" />
      <path
         d="m 227.38161,13.970826 q 1.09994,0 2.00814,0.363282 0.9082,0.353191 1.55404,1.029299 0.64583,0.666017 0.99902,1.624677 0.35319,0.948569 0.35319,2.129235 0,1.200848 -0.35319,2.159509 -0.35319,0.95866 -0.99902,1.634768 -0.64584,0.666017 -1.55404,1.029299 -0.9082,0.363282 -2.00814,0.363282 -1.11003,0 -2.02833,-0.363282 -0.9082,-0.363282 -1.56413,-1.029299 -0.64583,-0.676108 -0.99902,-1.634768 -0.35319,-0.958661 -0.35319,-2.159509 0,-1.180666 0.35319,-2.129235 0.35319,-0.95866 0.99902,-1.624677 0.65593,-0.676108 1.56413,-1.029299 0.9183,-0.363282 2.02833,-0.363282 z m 0,8.375665 q 1.16048,0 1.7155,-0.807293 0.55501,-0.817384 0.55501,-2.401697 0,-1.584312 -0.55501,-2.391605 -0.55502,-0.817384 -1.7155,-0.817384 -1.18067,0 -1.74577,0.817384 -0.55502,0.807293 -0.55502,2.391605 0,1.584313 0.55502,2.401697 0.5651,0.807293 1.74577,0.807293 z"
         style="font-family:Carlito;-inkscape-font-specification:'Carlito Bold';fill:#000000"
         id="path1846" />
      <path
         d="M 234.94168,24.152809 V 14.132285 h 1.50358 q 0.39356,0 0.54492,0.141276 0.16146,0.141277 0.21192,0.494467 l 0.13118,1.019208 q 0.45411,-0.857749 1.05958,-1.352216 0.60546,-0.494467 1.40267,-0.494467 0.65592,0 1.07975,0.312826 l -0.19173,1.917321 q -0.0202,0.181641 -0.12109,0.26237 -0.10092,0.07064 -0.27247,0.07064 -0.15136,0 -0.43392,-0.04037 -0.28255,-0.05045 -0.52474,-0.05045 -0.35319,0 -0.63574,0.100911 -0.27246,0.100912 -0.49447,0.302735 -0.21191,0.191732 -0.38346,0.474285 -0.17155,0.282552 -0.31283,0.645834 v 6.216156 z"
         style="font-family:Carlito;-inkscape-font-specification:'Carlito Bold';fill:#000000"
         id="path1848" />
      <path
         d="M 243.37968,24.152809 V 14.132285 h 1.57422 q 0.24219,0 0.40365,0.111003 0.17155,0.111003 0.222,0.343099 l 0.17155,0.706382 q 0.27247,-0.282553 0.55502,-0.524741 0.29264,-0.242188 0.62565,-0.413737 0.33301,-0.181641 0.70638,-0.282553 0.38347,-0.100912 0.83757,-0.100912 0.95866,0 1.57422,0.51465 0.62565,0.504558 0.92839,1.342124 0.24218,-0.494467 0.59538,-0.847657 0.36328,-0.353191 0.7972,-0.575197 0.43392,-0.222005 0.9082,-0.322917 0.48438,-0.111003 0.96875,-0.111003 0.84766,0 1.50359,0.262371 0.66601,0.252279 1.11002,0.746746 0.45411,0.484375 0.6862,1.190757 0.2321,0.706381 0.2321,1.604495 v 6.377614 h -2.56316 v -6.377614 q 0,-1.806318 -1.61458,-1.806318 -0.36328,0 -0.67611,0.121093 -0.31283,0.111003 -0.55501,0.3431 -0.2321,0.222006 -0.37338,0.565105 -0.13118,0.333008 -0.13118,0.77702 v 6.377614 h -2.56316 v -6.377614 q 0,-0.968752 -0.40364,-1.38249 -0.40365,-0.423828 -1.17058,-0.423828 -0.51465,0 -0.95866,0.232096 -0.44401,0.232097 -0.82747,0.655926 v 7.29591 z"
         style="font-family:Carlito;-inkscape-font-specification:'Carlito Bold';fill:#000000"
         id="path1850" />
      <path
         d="m 267.77182,24.152809 q -0.36328,0 -0.55502,-0.100911 -0.19173,-0.111003 -0.30273,-0.43392 l -0.22201,-0.666017 q -0.38346,0.333008 -0.73665,0.585287 -0.35319,0.252279 -0.73666,0.423829 -0.37337,0.17155 -0.80729,0.252279 -0.42383,0.09082 -0.94857,0.09082 -0.64583,0 -1.18066,-0.17155 -0.53484,-0.181641 -0.92839,-0.524741 -0.38347,-0.343099 -0.59538,-0.847657 -0.21191,-0.51465 -0.21191,-1.180666 0,-0.555014 0.28255,-1.110028 0.28255,-0.555014 0.95866,-0.999025 0.6862,-0.454102 1.81641,-0.746746 1.1403,-0.302735 2.83561,-0.3431 v -0.534831 q 0,-0.968752 -0.40364,-1.422854 -0.40365,-0.454102 -1.16049,-0.454102 -0.5651,0 -0.93847,0.131185 -0.36329,0.131185 -0.64584,0.292643 -0.28255,0.151368 -0.52474,0.282553 -0.24219,0.131185 -0.54492,0.131185 -0.26237,0 -0.4541,-0.131185 -0.18164,-0.141276 -0.29265,-0.333008 l -0.46419,-0.807293 q 0.86784,-0.807293 1.91732,-1.200849 1.04948,-0.393555 2.27051,-0.393555 0.87793,0 1.57422,0.292644 0.69629,0.282552 1.18067,0.807293 0.48437,0.514649 0.73665,1.231121 0.25228,0.716473 0.25228,1.574222 v 6.306976 z m -3.51173,-1.594403 q 0.6862,0 1.18067,-0.242188 0.50456,-0.252279 0.99902,-0.766929 v -1.614586 q -0.99902,0.04037 -1.66504,0.17155 -0.65592,0.121094 -1.04948,0.322917 -0.39355,0.191732 -0.5651,0.454103 -0.16146,0.26237 -0.16146,0.565105 0,0.605469 0.33301,0.857748 0.3431,0.25228 0.92838,0.25228 z"
         style="font-family:Carlito;-inkscape-font-specification:'Carlito Bold';fill:#000000"
         id="path1852" />
      <path
         d="M 274.74661,9.6518089 V 24.152809 h -2.56316 V 9.6518089 Z"
         style="font-family:Carlito;-inkscape-font-specification:'Carlito Bold';fill:#000000"
         id="path1854" />
      <path
         d="m 277.81612,24.152809 z m 2.91634,-10.020524 v 10.020524 h -2.56315 V 14.132285 Z m 0.31283,-2.875981 q 0,0.333008 -0.13119,0.625652 -0.13118,0.282552 -0.35319,0.504558 -0.222,0.211914 -0.52474,0.343099 -0.30273,0.121094 -0.63574,0.121094 -0.32292,0 -0.61556,-0.121094 -0.28255,-0.131185 -0.50456,-0.343099 -0.21191,-0.222006 -0.3431,-0.504558 -0.12109,-0.292644 -0.12109,-0.625652 0,-0.333009 0.12109,-0.625652 0.13119,-0.292644 0.3431,-0.504558 0.22201,-0.222006 0.50456,-0.3431 0.29264,-0.1311851 0.61556,-0.1311851 0.33301,0 0.63574,0.1311851 0.30274,0.121094 0.52474,0.3431 0.22201,0.211914 0.35319,0.504558 0.13119,0.292643 0.13119,0.625652 z"
         style="font-family:Carlito;-inkscape-font-specification:'Carlito Bold';fill:#000000"
         id="path1856" />
      <path
         d="m 288.3329,13.970826 q 0.94857,0 1.74578,0.312826 0.7972,0.302735 1.37239,0.888023 0.5752,0.575196 0.89812,1.422854 0.32291,0.847657 0.32291,1.937503 0,0.292643 -0.0303,0.484376 -0.0303,0.18164 -0.10091,0.292643 -0.0606,0.111003 -0.18164,0.161459 -0.111,0.04036 -0.28255,0.04036 h -5.99415 q 0.0605,0.726564 0.26237,1.261396 0.20182,0.534831 0.53483,0.877931 0.33301,0.343099 0.78711,0.514649 0.4541,0.161459 1.00911,0.161459 0.55502,0 0.95866,-0.131185 0.41374,-0.141277 0.71648,-0.292644 0.31282,-0.161459 0.55501,-0.292644 0.24219,-0.141276 0.47429,-0.141276 0.28255,0 0.46419,0.232097 l 0.73665,0.948569 q -0.41373,0.484376 -0.91829,0.807293 -0.50456,0.312826 -1.04948,0.504558 -0.53483,0.181641 -1.08985,0.26237 -0.55501,0.08073 -1.06966,0.08073 -1.03939,0 -1.9375,-0.3431 -0.89812,-0.343099 -1.56413,-1.019207 -0.66602,-0.686199 -1.04949,-1.685224 -0.37337,-1.009117 -0.37337,-2.331059 0,-1.019207 0.33301,-1.917321 0.33301,-0.908204 0.94857,-1.574221 0.62565,-0.676108 1.51367,-1.069663 0.88803,-0.393556 2.00814,-0.393556 z m 0.0505,1.826501 q -0.97884,0 -1.53386,0.575196 -0.55501,0.565105 -0.71647,1.604495 h 4.23829 q 0,-0.43392 -0.12109,-0.827475 -0.11101,-0.393556 -0.36329,-0.696291 -0.24218,-0.302735 -0.61556,-0.474284 -0.37337,-0.181641 -0.88802,-0.181641 z"
         style="font-family:Carlito;-inkscape-font-specification:'Carlito Bold';fill:#000000"
         id="path1858" />
      <path
         d="M 295.45907,24.152809 V 14.132285 h 1.57422 q 0.24219,0 0.40365,0.111003 0.17155,0.111003 0.222,0.343099 l 0.17155,0.736655 q 0.30274,-0.302735 0.62565,-0.544923 0.32292,-0.252279 0.69629,-0.423828 0.37338,-0.181641 0.78711,-0.282553 0.42383,-0.100912 0.92839,-0.100912 0.81738,0 1.44304,0.282553 0.62565,0.282552 1.04948,0.787111 0.42383,0.504558 0.63574,1.210939 0.22201,0.69629 0.22201,1.523766 v 6.377614 h -2.56316 v -6.377614 q 0,-0.857749 -0.39355,-1.332034 -0.39356,-0.474284 -1.18067,-0.474284 -0.58529,0 -1.09994,0.252279 -0.50455,0.252279 -0.95866,0.706381 v 7.225272 z"
         style="font-family:Carlito;-inkscape-font-specification:'Carlito Bold';fill:#000000"
         id="path1860" />
      <path
         d="M 307.45925,24.152809 V 14.132285 h 1.57422 q 0.24219,0 0.40365,0.111003 0.17155,0.111003 0.222,0.343099 l 0.17155,0.736655 q 0.30274,-0.302735 0.62566,-0.544923 0.32291,-0.252279 0.69629,-0.423828 0.37337,-0.181641 0.78711,-0.282553 0.42383,-0.100912 0.92838,-0.100912 0.81739,0 1.44304,0.282553 0.62565,0.282552 1.04948,0.787111 0.42383,0.504558 0.63574,1.210939 0.22201,0.69629 0.22201,1.523766 v 6.377614 h -2.56316 v -6.377614 q 0,-0.857749 -0.39355,-1.332034 -0.39356,-0.474284 -1.18067,-0.474284 -0.58528,0 -1.09993,0.252279 -0.50456,0.252279 -0.95866,0.706381 v 7.225272 z"
         style="font-family:Carlito;-inkscape-font-specification:'Carlito Bold';fill:#000000"
         id="path1862" />
      <path
         d="m 323.64727,13.970826 q 0.94857,0 1.74577,0.312826 0.7972,0.302735 1.3724,0.888023 0.57519,0.575196 0.89811,1.422854 0.32292,0.847657 0.32292,1.937503 0,0.292643 -0.0303,0.484376 -0.0303,0.18164 -0.10091,0.292643 -0.0605,0.111003 -0.18164,0.161459 -0.111,0.04036 -0.28255,0.04036 h -5.99415 q 0.0605,0.726564 0.26237,1.261396 0.20182,0.534831 0.53483,0.877931 0.33301,0.343099 0.78711,0.514649 0.4541,0.161459 1.00912,0.161459 0.55501,0 0.95866,-0.131185 0.41373,-0.141277 0.71647,-0.292644 0.31282,-0.161459 0.55501,-0.292644 0.24219,-0.141276 0.47429,-0.141276 0.28255,0 0.46419,0.232097 l 0.73666,0.948569 q -0.41374,0.484376 -0.9183,0.807293 -0.50456,0.312826 -1.04948,0.504558 -0.53483,0.181641 -1.08985,0.26237 -0.55501,0.08073 -1.06966,0.08073 -1.03939,0 -1.9375,-0.3431 -0.89812,-0.343099 -1.56413,-1.019207 -0.66602,-0.686199 -1.04948,-1.685224 -0.37338,-1.009117 -0.37338,-2.331059 0,-1.019207 0.33301,-1.917321 0.33301,-0.908204 0.94857,-1.574221 0.62565,-0.676108 1.51368,-1.069663 0.88802,-0.393556 2.00814,-0.393556 z m 0.0505,1.826501 q -0.97884,0 -1.53385,0.575196 -0.55502,0.565105 -0.71648,1.604495 h 4.23829 q 0,-0.43392 -0.12109,-0.827475 -0.11101,-0.393556 -0.36328,-0.696291 -0.24219,-0.302735 -0.61557,-0.474284 -0.37337,-0.181641 -0.88802,-0.181641 z"
         style="font-family:Carlito;-inkscape-font-specification:'Carlito Bold';fill:#000000"
         id="path1864" />
      <path
         d="m 336.58594,16.150517 q -0.10091,0.17155 -0.22201,0.242188 -0.111,0.06055 -0.28255,0.06055 -0.18164,0 -0.38346,-0.09082 -0.19174,-0.100912 -0.43392,-0.211915 -0.2321,-0.121093 -0.53484,-0.211914 -0.30273,-0.100912 -0.69629,-0.100912 -0.60546,0 -0.93847,0.282553 -0.33301,0.272461 -0.33301,0.736655 0,0.312826 0.19173,0.52474 0.19173,0.201823 0.50456,0.363282 0.32292,0.151368 0.71647,0.282553 0.40365,0.131185 0.82748,0.282552 0.42383,0.151368 0.81738,0.363282 0.40365,0.201823 0.71647,0.504558 0.32292,0.302735 0.51465,0.736655 0.19173,0.43392 0.19173,1.03939 0,0.726563 -0.25227,1.342124 -0.25228,0.615561 -0.74675,1.059572 -0.48438,0.444011 -1.21094,0.696291 -0.71647,0.252279 -1.66504,0.252279 -0.48438,0 -0.95866,-0.09082 -0.47429,-0.09082 -0.90821,-0.252279 -0.43392,-0.17155 -0.81738,-0.393555 -0.37337,-0.222006 -0.64584,-0.484376 l 0.59538,-0.968752 q 0.11101,-0.171549 0.26237,-0.272461 0.15137,-0.100912 0.39356,-0.100912 0.222,0 0.41374,0.121094 0.20182,0.121094 0.43392,0.272462 0.23209,0.141276 0.55501,0.26237 0.32292,0.121094 0.80729,0.121094 0.36329,0 0.61556,-0.09082 0.26237,-0.09082 0.41374,-0.242188 0.16146,-0.161458 0.2321,-0.363281 0.0807,-0.201824 0.0807,-0.413738 0,-0.444011 -0.33301,-0.686199 -0.33301,-0.252279 -0.83757,-0.43392 -0.50456,-0.181641 -1.08984,-0.373373 -0.5752,-0.191732 -1.07976,-0.52474 -0.50456,-0.333009 -0.83756,-0.877932 -0.33301,-0.544922 -0.33301,-1.443036 0,-0.625652 0.23209,-1.180666 0.2321,-0.565105 0.6862,-0.988934 0.4642,-0.423828 1.14031,-0.676108 0.68619,-0.252279 1.5944,-0.252279 0.49447,0 0.95866,0.09082 0.46419,0.09082 0.86784,0.26237 0.41374,0.161459 0.74675,0.393555 0.34309,0.232097 0.60547,0.504559 z"
         style="font-family:Carlito;-inkscape-font-specification:'Carlito Bold';fill:#000000"
         id="path1866" />
    </g>
  </g>
</svg>
