<?xml version="1.0" encoding="UTF-8" standalone="no"?>
<svg
   width="101.279"
   height="36.731998"
   viewBox="0 -66 264.401 99.7"
   version="1.1"
   id="svg10"
   sodipodi:docname="centered_marianne.svg"
   inkscape:version="1.2.1 (9c6d41e410, 2022-07-14)"
   xmlns:inkscape="http://www.inkscape.org/namespaces/inkscape"
   xmlns:sodipodi="http://sodipodi.sourceforge.net/DTD/sodipodi-0.dtd"
   xmlns="http://www.w3.org/2000/svg"
   xmlns:svg="http://www.w3.org/2000/svg">
  <defs
     id="defs14" />
  <sodipodi:namedview
     id="namedview12"
     pagecolor="#ffffff"
     bordercolor="#666666"
     borderopacity="1.0"
     inkscape:showpageshadow="2"
     inkscape:pageopacity="0"
     inkscape:pagecheckerboard="true"
     inkscape:deskcolor="#d1d1d1"
     showgrid="false"
     showguides="true"
     inkscape:zoom="7.6027607"
     inkscape:cx="47.416986"
     inkscape:cy="40.971959"
     inkscape:window-width="1920"
     inkscape:window-height="1001"
     inkscape:window-x="-9"
     inkscape:window-y="-9"
     inkscape:window-maximized="1"
     inkscape:current-layer="svg10">
    <sodipodi:guide
       position="0.48560973,44.16242"
       orientation="1,0"
       id="guide2738"
       inkscape:locked="false" />
    <sodipodi:guide
       position="65.557313,99.195115"
       orientation="0,-1"
       id="guide2740"
       inkscape:locked="false" />
    <sodipodi:guide
       position="102.46365,0.2372419"
       orientation="0,-1"
       id="guide2742"
       inkscape:locked="false" />
    <sodipodi:guide
       position="264.17169,44.16242"
       orientation="1,0"
       id="guide2744"
       inkscape:locked="false" />
  </sodipodi:namedview>
  <path
     d="m 83.85,21.4 c 0,0 0.1,0 0,0 0.4,-0.2 0.6,-0.3 0.8,-0.5 h -0.1 c -0.2,0.1 -0.4,0.3 -0.7,0.5 m 36.5,-12.2 -0.2,0.2 c 0.1,0 0.2,0 0.2,-0.2"
     fill="#1f356c"
     id="path2" />
  <g
     id="g2474"
     transform="matrix(0.44680172,0,0,0.44680172,121.11143,-8.3604936)">
    <g
       id="g4026-0-6"
       transform="matrix(0.71886577,0,0,0.71886577,-1831.0169,126.70432)">
      <g
         id="g5762-0-7-2-5-3-7"
         transform="translate(341.65802,-1227.5096)">
        <path
           style="opacity:1;fill:#000000;fill-opacity:1;stroke:none;stroke-width:36.8112;stroke-dasharray:36.8112, 36.8112;stop-color:#000000"
           id="path15082-0-7-1-4-8-4"
           transform="matrix(-0.13997337,-0.99015527,0.9913098,-0.13154798,0,0)"
           d="m -1228.1049,1792.0285 a 153.87494,155.69708 0 0 1 74.9878,203.6158 153.87494,155.69708 0 0 1 -199.2052,81.1693 153.87494,155.69708 0 0 1 -85.3961,-199.3748" />
        <g
           id="g17548-0-7-0-0-48-3"
           style="fill:none;fill-opacity:1;stroke:#ffffff;stroke-opacity:1">
          <path
             style="fill:none;fill-opacity:1;stroke:#ffffff;stroke-width:2.21555px;stroke-linecap:butt;stroke-linejoin:miter;stroke-opacity:1"
             d="m 2179.0586,980.41016 68.1567,34.64154 -33.1573,33.3093 z"
             id="path16488-9-4-0-4-5-0" />
          <path
             style="fill:none;fill-opacity:1;stroke:#ffffff;stroke-width:1.90178px;stroke-linecap:butt;stroke-linejoin:miter;stroke-opacity:1"
             d="m 2178.7295,980.09664 13.4477,-69.92761"
             id="path16492-7-1-8-8-0-1" />
          <path
             style="fill:none;fill-opacity:1;stroke:#ffffff;stroke-width:1.90178px;stroke-linecap:butt;stroke-linejoin:miter;stroke-opacity:1"
             d="m 2248.6571,1052.7138 -34.5991,-4.3528 17.1173,59.488"
             id="path16687-6-3-9-4-5-5" />
        </g>
        <path
           style="fill:none;stroke:#ffffff;stroke-width:1.90178px;stroke-linecap:butt;stroke-linejoin:miter;stroke-opacity:1"
           d="m 2178.7295,980.09664 -44.3771,54.79906 79.7056,13.4653 -113.997,39.989 131.1143,19.499 -120.6924,27.5676 36.3085,36.3086 -84.4267,4.8658"
           id="path1783-8-7-1-5-0-9" />
        <path
           style="fill:none;stroke:#ffffff;stroke-width:1.90178px;stroke-linecap:butt;stroke-linejoin:miter;stroke-opacity:1"
           d="m 2178.7295,980.09664 -82.7028,-3.69809 96.1505,-66.22952 -105.2277,-36.98095 9.7495,102.2019 37.6534,59.50572 -34.2914,53.4543 -54.4629,-29.921 88.7543,-23.5333"
           id="path1818-1-8-4-5-0-4" />
        <path
           style="fill:none;stroke:#ffffff;stroke-width:1.90178px;stroke-linecap:butt;stroke-linejoin:miter;stroke-opacity:1"
           d="M 2110.4829,1135.4166 2100.061,1088.35"
           id="path1853-9-6-6-2-3-7" />
        <path
           style="fill:none;stroke:#ffffff;stroke-width:1.90178px;stroke-linecap:butt;stroke-linejoin:miter;stroke-opacity:1"
           d="m 2062.3647,1176.591 48.1182,-41.1744 -73.2896,-4.0343 62.8677,-43.0323"
           id="path1890-4-3-6-6-4-0" />
        <path
           style="fill:none;stroke:#ffffff;stroke-width:1.90178px;stroke-linecap:butt;stroke-linejoin:miter;stroke-opacity:1"
           d="m 2045.5981,1058.429 50.4286,-82.03045 -79.341,-23.86953 70.2638,-79.34094"
           id="path1925-8-5-7-9-1-1" />
        <path
           style="fill:none;stroke:#ffffff;stroke-width:1.90178px;stroke-linecap:butt;stroke-linejoin:miter;stroke-opacity:1"
           d="m 2016.6857,952.52902 28.9124,105.89998 -8.4048,72.9533"
           id="path1960-9-8-7-6-5-5" />
        <path
           style="fill:none;stroke:#ffffff;stroke-width:1.90178px;stroke-linecap:butt;stroke-linejoin:miter;stroke-opacity:1"
           d="m 2016.6857,952.52902 -42.0238,-22.18856 -13.4476,72.61714 z"
           id="path1995-3-1-8-2-1-2" />
        <path
           style="fill:none;stroke:#ffffff;stroke-width:1.90178px;stroke-linecap:butt;stroke-linejoin:miter;stroke-opacity:1"
           d="m 2045.5981,1058.429 -44.0409,11.7667 2.6895,-39.3343 z"
           id="path2030-4-6-3-5-9-3" />
        <path
           style="fill:none;stroke:#ffffff;stroke-width:1.90178px;stroke-linecap:butt;stroke-linejoin:miter;stroke-opacity:1"
           d="m 2004.2467,1030.8614 12.439,-78.33238"
           id="path2065-4-7-6-0-4-4" />
      </g>
    </g>
    <path
       d="m 2406.453,273.19883 q 0,9.58068 -3.0186,17.65207 -3.0186,8.00577 -8.5964,13.78043 -5.5122,5.77466 -13.3211,8.99009 -7.8089,3.21543 -17.3239,3.21543 h -31.7606 v -87.14481 h 31.7606 q 9.515,0 17.3239,3.21544 7.8089,3.21543 13.3211,8.99008 5.5778,5.77466 8.5964,13.78043 3.0186,8.00578 3.0186,17.52084 z m -17.5209,0 q 0,-6.95584 -1.7061,-12.46801 -1.7062,-5.51217 -4.9216,-9.38382 -3.1498,-3.87164 -7.7433,-5.9059 -4.5935,-2.09987 -10.3681,-2.09987 h -14.4367 v 59.78081 h 14.4367 q 5.7746,0 10.3681,-2.03425 4.5935,-2.03425 7.7433,-5.9059 3.2154,-3.87164 4.9216,-9.38381 1.7061,-5.5778 1.7061,-12.59925 z"
       style="font-weight:bold;font-size:134.392px;line-height:1.15;font-family:Carlito;-inkscape-font-specification:'Carlito Bold';white-space:pre;inline-size:492.011;display:inline;fill:#ffffff;stroke-width:1.90178"
       id="path1922"
       transform="matrix(0.71886579,0,0,0.71886579,-1759.6753,-214.44053)" />
    <path
       d="m 2489.3324,308.43735 q -6.5621,4.92159 -13.9773,7.1527 -7.4152,2.1655 -15.7491,2.1655 -10.565,0 -19.1613,-3.28106 -8.5308,-3.34667 -14.6335,-9.25257 -6.1028,-5.97152 -9.4495,-14.10854 -3.281,-8.20263 -3.281,-17.91455 0,-9.77755 3.1498,-17.91456 3.1498,-8.20264 8.9901,-14.10854 5.9059,-5.9059 14.1741,-9.18695 8.3339,-3.28105 18.5708,-3.28105 5.3153,0 9.9088,0.85307 4.5935,0.85307 8.5307,2.36236 3.9373,1.50928 7.1527,3.60916 3.2811,2.09987 5.9059,4.6591 l -4.9216,7.74329 q -1.1155,1.83739 -3.0185,2.29673 -1.8374,0.39373 -4.0029,-0.91869 -2.0343,-1.2468 -4.0685,-2.29674 -2.0343,-1.11556 -4.3966,-1.90301 -2.2968,-0.85308 -5.1185,-1.31242 -2.8217,-0.45935 -6.4965,-0.45935 -6.1683,0 -11.0899,2.1655 -4.9216,2.09987 -8.3995,5.97151 -3.4779,3.87165 -5.381,9.44944 -1.8373,5.51217 -1.8373,12.27115 0,7.34956 2.0342,13.12421 2.0343,5.77466 5.709,9.77755 3.7404,3.93726 8.9901,6.03714 5.2497,2.03425 11.6806,2.03425 4.331,0 7.7433,-0.85307 3.4779,-0.9187 6.8246,-2.4936 v -15.2241 h -10.0401 q -1.5749,0 -2.5592,-0.91869 -0.9187,-0.9187 -0.9187,-2.23112 v -9.71192 h 29.1358 z"
       style="font-weight:bold;font-size:134.392px;line-height:1.15;font-family:Carlito;-inkscape-font-specification:'Carlito Bold';white-space:pre;inline-size:492.011;display:inline;fill:#ffffff;stroke-width:1.90178"
       id="path1924"
       transform="matrix(0.71886579,0,0,0.71886579,-1759.6753,-214.44053)" />
    <path
       d="m 2512.2342,229.69204 q 1.1155,0 1.903,0.13124 0.7874,0.0656 1.378,0.39373 0.6562,0.26248 1.1812,0.78745 0.5906,0.52497 1.3124,1.37805 l 42.9162,56.56538 q -0.3937,-4.33099 -0.3937,-8.20264 v -51.05321 h 15.1584 v 87.14481 h -8.8588 q -2.0343,0 -3.4123,-0.65621 -1.3124,-0.72183 -2.6248,-2.29674 l -42.785,-56.23727 q 0.3937,4.0685 0.3937,7.54642 v 51.6438 h -15.2241 v -87.14481 z"
       style="font-weight:bold;font-size:134.392px;line-height:1.15;font-family:Carlito;-inkscape-font-specification:'Carlito Bold';white-space:pre;inline-size:492.011;display:inline;fill:#000000;stroke-width:1.90178"
       id="path1926"
       transform="matrix(0.71886579,0,0,0.71886579,-1759.6753,-214.44053)" />
    <path
       d="m 2626.8086,307.38742 q 5.1841,0 9.2526,-1.77177 4.1341,-1.83739 6.9558,-5.05283 2.8217,-3.28105 4.2654,-7.74329 1.5093,-4.46223 1.5093,-9.84316 v -52.36563 h 11.943 v 52.36563 q 0,7.4808 -2.3624,13.84605 -2.3623,6.36525 -6.7589,11.02434 -4.331,4.6591 -10.6307,7.34957 -6.2996,2.62484 -14.1741,2.62484 -7.8745,0 -14.1742,-2.62484 -6.234,-2.69047 -10.6306,-7.34957 -4.3966,-4.65909 -6.759,-11.02434 -2.3623,-6.36525 -2.3623,-13.84605 v -52.36563 h 11.943 v 52.30001 q 0,5.38093 1.4437,9.90878 1.5093,4.46224 4.331,7.74329 2.8217,3.21544 6.8902,5.05283 4.1341,1.77177 9.3182,1.77177 z"
       style="font-size:134.392px;line-height:1.15;font-family:Carlito;-inkscape-font-specification:Carlito;white-space:pre;inline-size:492.011;display:inline;fill:#000000;stroke-width:1.90178"
       id="path1928"
       transform="matrix(0.71886579,0,0,0.71886579,-1759.6753,-214.44053)" />
    <path
       d="m 2724.7152,285.40435 q 0.8531,1.50928 1.5093,3.08419 0.7219,1.57491 1.3781,3.21543 0.6562,-1.70614 1.3124,-3.28105 0.7218,-1.57491 1.5093,-3.01857 l 30.4482,-52.82498 q 0.7874,-1.37804 1.7061,-1.64053 0.9187,-0.3281 2.4936,-0.3281 h 8.7932 v 86.22611 h -10.565 v -62.93063 q 0,-1.31242 0.066,-2.88732 0.1312,-1.64053 0.2625,-3.28106 l -30.7763,54.07178 q -1.5093,2.69047 -4.331,2.69047 h -1.7062 q -2.8217,0 -4.331,-2.69047 l -31.4981,-54.00616 q 0.3937,3.28106 0.3937,6.10276 v 62.93063 h -10.4993 v -86.22611 h 8.7932 q 1.5749,0 2.428,0.3281 0.9187,0.26249 1.7717,1.70615 l 30.8419,52.75936 z"
       style="font-size:134.392px;line-height:1.15;font-family:Carlito;-inkscape-font-specification:Carlito;white-space:pre;inline-size:492.011;display:inline;fill:#000000;stroke-width:1.90178"
       id="path1930"
       transform="matrix(0.71886579,0,0,0.71886579,-1759.6753,-214.44053)" />
    <g
       aria-label="Délégation GénéraleNumérique"
       id="text13534"
       style="font-size:23.8194px;line-height:1.25;fill:#000000;stroke-width:0.893227">
      <path
         d="m 51.335571,39.553977 q 0,1.721324 -0.511745,3.128622 -0.500114,1.407299 -1.418929,2.419158 -0.907184,1.000229 -2.198177,1.546865 -1.279363,0.546637 -2.837859,0.546637 H 39.088584 V 31.912694 h 5.280277 q 1.558496,0 2.837859,0.558268 1.290993,0.546636 2.198177,1.546865 0.918815,1.000229 1.418929,2.419158 0.511745,1.407298 0.511745,3.116992 z m -2.174916,0 q 0,-1.395668 -0.337287,-2.488942 -0.337286,-1.104903 -0.965337,-1.872521 -0.62805,-0.767617 -1.511973,-1.163057 -0.883923,-0.407069 -1.977197,-0.407069 h -3.151883 v 11.863178 h 3.151883 q 1.093274,0 1.977197,-0.395439 0.883923,-0.40707 1.511973,-1.163057 0.628051,-0.767618 0.965337,-1.872521 0.337287,-1.104904 0.337287,-2.500572 z"
         style="font-weight:300;font-family:Carlito;-inkscape-font-specification:'Carlito Light'"
         id="path1869" />
      <path
         d="m 52.998742,47.195259 z m 5.350061,-11.549153 q 1.02349,0 1.895782,0.337287 0.872293,0.337286 1.511974,0.988598 0.639681,0.651312 1.000229,1.593388 0.360547,0.942075 0.360547,2.163285 0,0.476853 -0.104675,0.639681 -0.104675,0.151198 -0.383809,0.151198 h -7.60639 q 0.02326,1.070012 0.290764,1.872521 0.267503,0.790878 0.732726,1.314254 0.476853,0.523375 1.128165,0.790878 0.651311,0.255873 1.45382,0.255873 0.744357,0 1.290993,-0.162828 0.546637,-0.174459 0.930446,-0.383809 0.395439,-0.20935 0.662942,-0.372178 0.267503,-0.174458 0.465223,-0.174458 0.127936,0 0.22098,0.05815 0.09304,0.04652 0.162828,0.139567 l 0.581529,0.744356 q -0.383809,0.453593 -0.907185,0.790879 -0.511744,0.325656 -1.104903,0.546637 -0.593159,0.20935 -1.23284,0.314025 -0.628051,0.104675 -1.244471,0.104675 -1.186318,0 -2.186547,-0.395439 -1.000228,-0.39544 -1.732954,-1.163057 -0.721095,-0.779248 -1.128165,-1.907413 -0.40707,-1.139795 -0.40707,-2.616877 0,-1.186318 0.360548,-2.209808 0.372178,-1.035121 1.058381,-1.791107 0.697834,-0.767618 1.686432,-1.197949 1.000229,-0.430331 2.2447,-0.430331 z m 0.03489,1.488713 q -1.43056,0 -2.267961,0.837401 -0.82577,0.8374 -1.03512,2.291221 h 6.199092 q 0,-0.686203 -0.19772,-1.256101 -0.19772,-0.581528 -0.569898,-0.988598 -0.372178,-0.418701 -0.918815,-0.651312 -0.535006,-0.232611 -1.209578,-0.232611 z m 2.87275,-6.210723 -2.628509,2.896011 q -0.162828,0.174459 -0.325655,0.244242 -0.151198,0.06978 -0.383809,0.06978 h -1.22121 l 1.663171,-2.709922 q 0.151198,-0.255873 0.337287,-0.372179 0.186089,-0.127936 0.558267,-0.127936 z"
         style="font-weight:300;font-family:Carlito;-inkscape-font-specification:'Carlito Light'"
         id="path1871" />
      <path
         d="M 67.73467,30.656593 V 47.195259 H 65.68769 V 30.656593 Z"
         style="font-weight:300;font-family:Carlito;-inkscape-font-specification:'Carlito Light'"
         id="path1873" />
      <path
         d="m 70.316655,47.195259 z m 5.350061,-11.549153 q 1.02349,0 1.895782,0.337287 0.872293,0.337286 1.511974,0.988598 0.639681,0.651312 1.000229,1.593388 0.360547,0.942075 0.360547,2.163285 0,0.476853 -0.104675,0.639681 -0.104675,0.151198 -0.383809,0.151198 h -7.60639 q 0.02326,1.070012 0.290764,1.872521 0.267503,0.790878 0.732726,1.314254 0.476853,0.523375 1.128165,0.790878 0.651311,0.255873 1.45382,0.255873 0.744357,0 1.290993,-0.162828 0.546637,-0.174459 0.930446,-0.383809 0.395439,-0.20935 0.662942,-0.372178 0.267503,-0.174458 0.465223,-0.174458 0.127936,0 0.22098,0.05815 0.09304,0.04652 0.162828,0.139567 l 0.581529,0.744356 q -0.383809,0.453593 -0.907184,0.790879 -0.511745,0.325656 -1.104904,0.546637 -0.593159,0.20935 -1.23284,0.314025 -0.628051,0.104675 -1.244471,0.104675 -1.186318,0 -2.186547,-0.395439 -1.000228,-0.39544 -1.732954,-1.163057 -0.721095,-0.779248 -1.128165,-1.907413 -0.40707,-1.139795 -0.40707,-2.616877 0,-1.186318 0.360548,-2.209808 0.372178,-1.035121 1.058381,-1.791107 0.697834,-0.767618 1.686432,-1.197949 1.000229,-0.430331 2.2447,-0.430331 z m 0.03489,1.488713 q -1.43056,0 -2.267961,0.837401 -0.82577,0.8374 -1.03512,2.291221 h 6.199092 q 0,-0.686203 -0.19772,-1.256101 -0.19772,-0.581528 -0.569898,-0.988598 -0.372178,-0.418701 -0.918814,-0.651312 -0.535007,-0.232611 -1.209579,-0.232611 z m 2.87275,-6.210723 -2.628509,2.896011 q -0.162827,0.174459 -0.325655,0.244242 -0.151198,0.06978 -0.383809,0.06978 h -1.22121 l 1.663171,-2.709922 q 0.151198,-0.255873 0.337287,-0.372179 0.186089,-0.127936 0.558267,-0.127936 z"
         style="font-weight:300;font-family:Carlito;-inkscape-font-specification:'Carlito Light'"
         id="path1875" />
      <path
         d="m 86.669232,35.634476 q 0.709464,0 1.325884,0.162828 0.61642,0.162828 1.116535,0.465222 h 2.977425 v 0.755987 q 0,0.40707 -0.465223,0.476853 l -1.209579,0.174459 q 0.360548,0.744356 0.360548,1.628279 0,0.837401 -0.314025,1.511974 -0.302395,0.674573 -0.849032,1.151426 -0.546637,0.476853 -1.302623,0.744356 -0.744357,0.255873 -1.63991,0.255873 -0.744357,0 -1.372407,-0.174459 -0.337287,0.220981 -0.500115,0.476854 -0.162827,0.244241 -0.162827,0.488483 0,0.40707 0.314025,0.60479 0.314025,0.197719 0.82577,0.290764 0.511745,0.09305 1.163057,0.116306 0.651312,0.02326 1.325884,0.08141 0.686204,0.04652 1.337516,0.162828 0.651311,0.116305 1.163056,0.407069 0.511745,0.279134 0.82577,0.779248 0.314026,0.488484 0.314026,1.279363 0,0.732725 -0.348917,1.418929 -0.348917,0.686203 -1.01186,1.221209 -0.651311,0.535006 -1.605018,0.849032 -0.942076,0.325656 -2.140024,0.325656 -1.197948,0 -2.093502,-0.244242 -0.895554,-0.244242 -1.488713,-0.662943 -0.593159,-0.4187 -0.883923,-0.965337 -0.290764,-0.546636 -0.290764,-1.139795 0,-0.837401 0.488484,-1.418929 0.500114,-0.581529 1.372407,-0.918815 -0.476853,-0.220981 -0.755987,-0.60479 -0.279134,-0.383808 -0.279134,-1.023489 0,-0.488484 0.348917,-1.035121 0.348917,-0.546637 1.046751,-0.907184 -0.802509,-0.476853 -1.267731,-1.256101 -0.453592,-0.779248 -0.453592,-1.814369 0,-0.837401 0.302394,-1.511973 0.314026,-0.674573 0.860662,-1.151427 0.546637,-0.488483 1.302624,-0.744356 0.755987,-0.255872 1.663171,-0.255872 z m 3.349603,12.177203 q 0,-0.40707 -0.220981,-0.662942 -0.20935,-0.255873 -0.581528,-0.395439 -0.372178,-0.151198 -0.860662,-0.209351 -0.488484,-0.06978 -1.035121,-0.104675 -0.546636,-0.03489 -1.116534,-0.05815 -0.558267,-0.02326 -1.081643,-0.104675 -0.569897,0.302395 -0.930445,0.732726 -0.360548,0.4187 -0.360548,1.011859 0,0.383809 0.174459,0.709465 0.174458,0.325656 0.535006,0.558267 0.372178,0.244242 0.942076,0.383809 0.569898,0.139567 1.349146,0.139567 0.767617,0 1.360776,-0.151198 0.593159,-0.151197 1.000229,-0.4187 0.40707,-0.255873 0.61642,-0.628051 0.20935,-0.360547 0.20935,-0.802509 z m -3.349603,-6.199092 q 1.128165,0 1.698062,-0.628051 0.581529,-0.62805 0.581529,-1.639909 0,-1.035121 -0.581529,-1.63991 -0.569897,-0.61642 -1.698062,-0.61642 -1.104904,0 -1.686432,0.61642 -0.569898,0.604789 -0.569898,1.63991 0,0.500114 0.139567,0.918814 0.151197,0.40707 0.430331,0.709465 0.290764,0.302395 0.709464,0.476853 0.430331,0.162828 0.976968,0.162828 z"
         style="font-weight:300;font-family:Carlito;-inkscape-font-specification:'Carlito Light'"
         id="path1877" />
      <path
         d="m 101.10277,47.195259 q -0.3024,0 -0.46523,-0.09304 -0.16283,-0.09305 -0.22098,-0.383809 l -0.25587,-1.058382 q -0.441962,0.40707 -0.872293,0.732726 -0.4187,0.314025 -0.883923,0.535006 -0.465223,0.220981 -1.000229,0.325656 -0.535006,0.116306 -1.174687,0.116306 -0.662942,0 -1.244471,-0.174459 -0.569898,-0.186089 -1.011859,-0.558267 -0.430331,-0.383809 -0.686204,-0.942076 -0.244241,-0.569898 -0.244241,-1.337515 0,-0.674573 0.360547,-1.290993 0.372178,-0.628051 1.197949,-1.116535 0.82577,-0.488483 2.151654,-0.790878 1.325885,-0.314025 3.256557,-0.360548 v -0.872292 q 0,-1.325885 -0.569896,-1.988827 -0.558267,-0.674573 -1.63991,-0.674573 -0.721095,0 -1.221209,0.186089 -0.488484,0.186089 -0.849031,0.40707 -0.360548,0.220981 -0.628051,0.40707 -0.255873,0.186089 -0.523376,0.186089 -0.20935,0 -0.360547,-0.104675 -0.151198,-0.104675 -0.244242,-0.267503 L 93.60105,37.425583 q 0.942076,-0.907184 2.023718,-1.349146 1.093274,-0.453592 2.419158,-0.453592 0.953707,0 1.698063,0.314025 0.744361,0.302395 1.244471,0.872293 0.50011,0.569898 0.75599,1.360776 0.2675,0.790879 0.2675,1.756216 v 7.269104 z m -4.256792,-1.256101 q 0.511745,0 0.942076,-0.104675 0.430331,-0.104675 0.81414,-0.290764 0.383808,-0.19772 0.721095,-0.476854 0.348917,-0.290764 0.686201,-0.639681 V 42.07781 q -1.360774,0.05815 -2.314481,0.232611 -0.953706,0.162828 -1.558496,0.441962 -0.593159,0.279133 -0.860662,0.662942 -0.267503,0.372178 -0.267503,0.837401 0,0.441961 0.139567,0.767617 0.151198,0.314025 0.395439,0.523376 0.244242,0.197719 0.581529,0.302394 0.337286,0.09304 0.721095,0.09304 z"
         style="font-weight:300;font-family:Carlito;-inkscape-font-specification:'Carlito Light'"
         id="path1879" />
      <path
         d="m 103.6266,47.195259 z m 11.1886,-11.165344 v 11.165344 h -2.04698 v -9.676631 h -5.40821 v 6.792251 q 0,0.697834 0.3024,1.046751 0.31402,0.348917 0.81414,0.348917 0.29076,0 0.48848,-0.08141 0.20935,-0.08141 0.34892,-0.186089 0.15119,-0.104676 0.25587,-0.18609 0.10467,-0.08141 0.19772,-0.08141 0.10467,0 0.16283,0.04652 0.0698,0.04652 0.12793,0.151197 l 0.60479,0.976968 q -0.51174,0.488484 -1.20958,0.755987 -0.69783,0.267503 -1.45382,0.267503 -1.29099,0 -1.98882,-0.755987 -0.69784,-0.755987 -0.69784,-2.163286 v -6.931817 h -1.2561 q -0.18609,0 -0.31402,-0.116306 -0.11631,-0.116306 -0.11631,-0.337287 v -0.814139 l 1.75621,-0.232612 0.46523,-3.5008 q 0.0349,-0.174459 0.15119,-0.279134 0.11631,-0.104675 0.31403,-0.104675 h 1.04675 v 3.89624 z m 0.44197,-3.849718 q 0,0.290765 -0.11631,0.558268 -0.11631,0.255872 -0.32566,0.453592 -0.19772,0.186089 -0.46522,0.302394 -0.25587,0.116306 -0.54663,0.116306 -0.29077,0 -0.54664,-0.116306 -0.25587,-0.116305 -0.45359,-0.302394 -0.18609,-0.19772 -0.3024,-0.453592 -0.1163,-0.267503 -0.1163,-0.558268 0,-0.302394 0.1163,-0.558267 0.11631,-0.267503 0.3024,-0.465223 0.19772,-0.197719 0.45359,-0.314025 0.25587,-0.116305 0.54664,-0.116305 0.29076,0 0.54663,0.116305 0.2675,0.116306 0.46522,0.314025 0.20935,0.19772 0.32566,0.465223 0.11631,0.255873 0.11631,0.558267 z"
         style="font-weight:300;font-family:Carlito;-inkscape-font-specification:'Carlito Light'"
         id="path1881" />
      <path
         d="m 122.81704,35.646106 q 1.24447,0 2.24469,0.418701 1.00023,0.40707 1.69807,1.174687 0.69783,0.755987 1.07001,1.837629 0.38381,1.081643 0.38381,2.419158 0,1.349146 -0.38381,2.430789 -0.37218,1.081643 -1.07001,1.84926 -0.69784,0.755987 -1.69807,1.174687 -1.00022,0.40707 -2.24469,0.40707 -1.24448,0 -2.25633,-0.40707 -1.00023,-0.4187 -1.7097,-1.174687 -0.69783,-0.767617 -1.08164,-1.84926 -0.37218,-1.081643 -0.37218,-2.430789 0,-1.337515 0.37218,-2.419158 0.38381,-1.081642 1.08164,-1.837629 0.70947,-0.767617 1.7097,-1.174687 1.01185,-0.418701 2.25633,-0.418701 z m 0,10.118593 q 0.82577,0 1.44219,-0.279133 0.61642,-0.290764 1.02349,-0.837401 0.4187,-0.546637 0.61642,-1.337515 0.20935,-0.790879 0.20935,-1.802738 0,-1.011859 -0.20935,-1.802738 -0.19772,-0.790878 -0.61642,-1.337515 -0.40707,-0.546637 -1.02349,-0.837401 -0.61642,-0.290764 -1.44219,-0.290764 -0.83741,0 -1.46546,0.290764 -0.61642,0.290764 -1.03512,0.837401 -0.40707,0.546637 -0.61642,1.337515 -0.19772,0.790879 -0.19772,1.802738 0,1.011859 0.19772,1.802738 0.20935,0.790878 0.61642,1.337515 0.4187,0.546637 1.03512,0.837401 0.62805,0.279133 1.46546,0.279133 z"
         style="font-weight:300;font-family:Carlito;-inkscape-font-specification:'Carlito Light'"
         id="path1883" />
      <path
         d="M 130.71419,47.195259 V 35.820565 h 1.22121 q 0.22098,0 0.36055,0.104675 0.13956,0.09304 0.16283,0.314025 l 0.17445,1.209579 q 0.73273,-0.81414 1.63991,-1.302623 0.90719,-0.500115 2.09351,-0.500115 0.93044,0 1.62827,0.314026 0.70947,0.302394 1.18632,0.872292 0.47686,0.558267 0.7211,1.360776 0.24424,0.790879 0.24424,1.756216 v 7.245843 h -2.04698 v -7.245843 q 0,-1.267732 -0.58153,-1.977196 -0.5699,-0.709465 -1.74458,-0.709465 -0.8723,0 -1.62828,0.4187 -0.75599,0.40707 -1.38404,1.139796 v 8.374008 z"
         style="font-weight:300;font-family:Carlito;-inkscape-font-specification:'Carlito Light'"
         id="path1885" />
      <path
         d="m 160.76758,45.718177 q -1.11654,0.82577 -2.38427,1.23284 -1.2561,0.40707 -2.73318,0.40707 -1.77948,0 -3.22167,-0.569898 -1.43056,-0.569898 -2.44242,-1.593387 -1.01186,-1.035121 -1.55849,-2.465681 -0.54664,-1.44219 -0.54664,-3.175144 0,-1.744585 0.52337,-3.175145 0.53501,-1.44219 1.51198,-2.46568 0.9886,-1.035121 2.38426,-1.605018 1.39567,-0.569898 3.12863,-0.569898 0.88392,0 1.62828,0.139567 0.75598,0.127936 1.39566,0.383808 0.63969,0.244242 1.17469,0.60479 0.54664,0.360547 1.01186,0.802509 l -0.59316,0.953706 q -0.13956,0.232612 -0.37218,0.290765 -0.23261,0.05815 -0.50011,-0.104676 -0.2675,-0.151197 -0.59316,-0.360547 -0.31402,-0.220981 -0.75599,-0.40707 -0.44196,-0.19772 -1.04675,-0.337286 -0.60479,-0.139567 -1.43056,-0.139567 -1.20958,0 -2.19817,0.4187 -0.97697,0.418701 -1.67481,1.197949 -0.6862,0.779248 -1.05838,1.895782 -0.37218,1.104904 -0.37218,2.477311 0,1.430559 0.38381,2.570355 0.39544,1.128165 1.11654,1.919043 0.73272,0.779248 1.75621,1.197949 1.02349,0.40707 2.29122,0.40707 0.97697,0 1.74459,-0.220981 0.76762,-0.232611 1.51197,-0.639681 v -3.349603 h -2.19817 q -0.20935,0 -0.33729,-0.116306 -0.12794,-0.116306 -0.12794,-0.290764 V 39.83311 h 4.58245 z"
         style="font-weight:300;font-family:Carlito;-inkscape-font-specification:'Carlito Light'"
         id="path1887" />
      <path
         d="m 162.88434,47.195259 z m 5.35006,-11.549153 q 1.02349,0 1.89578,0.337287 0.87229,0.337286 1.51197,0.988598 0.63968,0.651312 1.00023,1.593388 0.36055,0.942075 0.36055,2.163285 0,0.476853 -0.10468,0.639681 -0.10467,0.151198 -0.38381,0.151198 h -7.60639 q 0.0233,1.070012 0.29077,1.872521 0.2675,0.790878 0.73272,1.314254 0.47686,0.523375 1.12817,0.790878 0.65131,0.255873 1.45382,0.255873 0.74436,0 1.29099,-0.162828 0.54664,-0.174459 0.93045,-0.383809 0.39544,-0.20935 0.66294,-0.372178 0.2675,-0.174458 0.46522,-0.174458 0.12794,0 0.22098,0.05815 0.093,0.04652 0.16283,0.139567 l 0.58153,0.744356 q -0.38381,0.453593 -0.90718,0.790879 -0.51175,0.325656 -1.10491,0.546637 -0.59316,0.20935 -1.23284,0.314025 -0.62805,0.104675 -1.24447,0.104675 -1.18632,0 -2.18655,-0.395439 -1.00022,-0.39544 -1.73295,-1.163057 -0.72109,-0.779248 -1.12816,-1.907413 -0.40707,-1.139795 -0.40707,-2.616877 0,-1.186318 0.36054,-2.209808 0.37218,-1.035121 1.05838,-1.791107 0.69784,-0.767618 1.68644,-1.197949 1.00023,-0.430331 2.2447,-0.430331 z m 0.0349,1.488713 q -1.43056,0 -2.26796,0.837401 -0.82577,0.8374 -1.03512,2.291221 h 6.19909 q 0,-0.686203 -0.19772,-1.256101 -0.19772,-0.581528 -0.5699,-0.988598 -0.37218,-0.418701 -0.91881,-0.651312 -0.53501,-0.232611 -1.20958,-0.232611 z m 2.87275,-6.210723 -2.62851,2.896011 q -0.16283,0.174459 -0.32566,0.244242 -0.15119,0.06978 -0.3838,0.06978 h -1.22121 l 1.66317,-2.709922 q 0.15119,-0.255873 0.33728,-0.372179 0.18609,-0.127936 0.55827,-0.127936 z"
         style="font-weight:300;font-family:Carlito;-inkscape-font-specification:'Carlito Light'"
         id="path1889" />
      <path
         d="M 175.49188,47.195259 V 35.820565 h 1.22121 q 0.22098,0 0.36054,0.104675 0.13957,0.09304 0.16283,0.314025 l 0.17446,1.209579 q 0.73273,-0.81414 1.63991,-1.302623 0.90718,-0.500115 2.0935,-0.500115 0.93045,0 1.62828,0.314026 0.70947,0.302394 1.18632,0.872292 0.47685,0.558267 0.72109,1.360776 0.24425,0.790879 0.24425,1.756216 v 7.245843 h -2.04698 v -7.245843 q 0,-1.267732 -0.58153,-1.977196 -0.5699,-0.709465 -1.74459,-0.709465 -0.87229,0 -1.62828,0.4187 -0.75598,0.40707 -1.38403,1.139796 v 8.374008 z"
         style="font-weight:300;font-family:Carlito;-inkscape-font-specification:'Carlito Light'"
         id="path1891" />
      <path
         d="m 187.25037,47.195259 z m 5.35006,-11.549153 q 1.02349,0 1.89578,0.337287 0.8723,0.337286 1.51198,0.988598 0.63968,0.651312 1.00023,1.593388 0.36054,0.942075 0.36054,2.163285 0,0.476853 -0.10467,0.639681 -0.10468,0.151198 -0.38381,0.151198 h -7.60639 q 0.0233,1.070012 0.29076,1.872521 0.26751,0.790878 0.73273,1.314254 0.47685,0.523375 1.12816,0.790878 0.65132,0.255873 1.45383,0.255873 0.74435,0 1.29099,-0.162828 0.54663,-0.174459 0.93044,-0.383809 0.39544,-0.20935 0.66295,-0.372178 0.2675,-0.174458 0.46522,-0.174458 0.12793,0 0.22098,0.05815 0.093,0.04652 0.16283,0.139567 l 0.58153,0.744356 q -0.38381,0.453593 -0.90719,0.790879 -0.51174,0.325656 -1.1049,0.546637 -0.59316,0.20935 -1.23284,0.314025 -0.62805,0.104675 -1.24447,0.104675 -1.18632,0 -2.18655,-0.395439 -1.00023,-0.39544 -1.73295,-1.163057 -0.7211,-0.779248 -1.12817,-1.907413 -0.40707,-1.139795 -0.40707,-2.616877 0,-1.186318 0.36055,-2.209808 0.37218,-1.035121 1.05838,-1.791107 0.69783,-0.767618 1.68643,-1.197949 1.00023,-0.430331 2.2447,-0.430331 z m 0.0349,1.488713 q -1.43056,0 -2.26796,0.837401 -0.82577,0.8374 -1.03512,2.291221 h 6.19909 q 0,-0.686203 -0.19772,-1.256101 -0.19771,-0.581528 -0.56989,-0.988598 -0.37218,-0.418701 -0.91882,-0.651312 -0.535,-0.232611 -1.20958,-0.232611 z m 2.87275,-6.210723 -2.6285,2.896011 q -0.16283,0.174459 -0.32566,0.244242 -0.1512,0.06978 -0.38381,0.06978 h -1.22121 l 1.66317,-2.709922 q 0.1512,-0.255873 0.33729,-0.372179 0.18609,-0.127936 0.55827,-0.127936 z"
         style="font-weight:300;font-family:Carlito;-inkscape-font-specification:'Carlito Light'"
         id="path1893" />
      <path
         d="M 199.75323,47.195259 V 35.820565 h 1.17469 q 0.32565,0 0.45359,0.127936 0.13957,0.127936 0.16283,0.430331 l 0.13956,1.674802 q 0.52338,-1.128165 1.291,-1.779477 0.76761,-0.651312 1.84926,-0.651312 0.36054,0 0.67457,0.08141 0.31403,0.06978 0.5699,0.244242 l -0.16283,1.511974 q -0.0349,0.290764 -0.32566,0.290764 -0.16282,0 -0.46522,-0.05815 -0.29076,-0.06978 -0.65131,-0.06978 -0.52338,0 -0.93045,0.162828 -0.39544,0.151197 -0.72109,0.465222 -0.31403,0.302395 -0.55827,0.744357 -0.24424,0.441961 -0.45359,1.011859 v 7.18769 z"
         style="font-weight:300;font-family:Carlito;-inkscape-font-specification:'Carlito Light'"
         id="path1895" />
      <path
         d="m 215.08233,47.195259 q -0.3024,0 -0.46523,-0.09304 -0.16282,-0.09305 -0.22098,-0.383809 l -0.25587,-1.058382 q -0.44196,0.40707 -0.87229,0.732726 -0.4187,0.314025 -0.88393,0.535006 -0.46522,0.220981 -1.00022,0.325656 -0.53501,0.116306 -1.17469,0.116306 -0.66294,0 -1.24447,-0.174459 -0.5699,-0.186089 -1.01186,-0.558267 -0.43033,-0.383809 -0.6862,-0.942076 -0.24425,-0.569898 -0.24425,-1.337515 0,-0.674573 0.36055,-1.290993 0.37218,-0.628051 1.19795,-1.116535 0.82577,-0.488483 2.15165,-0.790878 1.32589,-0.314025 3.25656,-0.360548 v -0.872292 q 0,-1.325885 -0.56989,-1.988827 -0.55827,-0.674573 -1.63991,-0.674573 -0.7211,0 -1.22121,0.186089 -0.48849,0.186089 -0.84904,0.40707 -0.36054,0.220981 -0.62805,0.40707 -0.25587,0.186089 -0.52337,0.186089 -0.20935,0 -0.36055,-0.104675 -0.1512,-0.104675 -0.24424,-0.267503 l -0.37218,-0.651312 q 0.94208,-0.907184 2.02372,-1.349146 1.09327,-0.453592 2.41916,-0.453592 0.9537,0 1.69806,0.314025 0.74436,0.302395 1.24447,0.872293 0.50011,0.569898 0.75599,1.360776 0.2675,0.790879 0.2675,1.756216 v 7.269104 z m -4.25679,-1.256101 q 0.51174,0 0.94207,-0.104675 0.43034,-0.104675 0.81414,-0.290764 0.38381,-0.19772 0.7211,-0.476854 0.34892,-0.290764 0.6862,-0.639681 V 42.07781 q -1.36077,0.05815 -2.31448,0.232611 -0.95371,0.162828 -1.5585,0.441962 -0.59315,0.279133 -0.86066,0.662942 -0.2675,0.372178 -0.2675,0.837401 0,0.441961 0.13957,0.767617 0.15119,0.314025 0.39544,0.523376 0.24424,0.197719 0.58152,0.302394 0.33729,0.09304 0.7211,0.09304 z"
         style="font-weight:300;font-family:Carlito;-inkscape-font-specification:'Carlito Light'"
         id="path1897" />
      <path
         d="m 221.21163,30.656593 v 16.538666 h -2.04698 V 30.656593 Z"
         style="font-weight:300;font-family:Carlito;-inkscape-font-specification:'Carlito Light'"
         id="path1899" />
      <path
         d="m 229.14368,35.646106 q 1.02348,0 1.89578,0.337287 0.87229,0.337286 1.51197,0.988598 0.63968,0.651312 1.00023,1.593388 0.36055,0.942075 0.36055,2.163285 0,0.476853 -0.10468,0.639681 -0.10467,0.151198 -0.38381,0.151198 h -7.60639 q 0.0233,1.070012 0.29077,1.872521 0.2675,0.790878 0.73272,1.314254 0.47686,0.523375 1.12817,0.790878 0.65131,0.255873 1.45382,0.255873 0.74435,0 1.29099,-0.162828 0.54664,-0.174459 0.93045,-0.383809 0.39544,-0.20935 0.66294,-0.372178 0.2675,-0.174458 0.46522,-0.174458 0.12794,0 0.22098,0.05815 0.0931,0.04652 0.16283,0.139567 l 0.58153,0.744356 q -0.38381,0.453593 -0.90719,0.790879 -0.51174,0.325656 -1.1049,0.546637 -0.59316,0.20935 -1.23284,0.314025 -0.62805,0.104675 -1.24447,0.104675 -1.18632,0 -2.18655,-0.395439 -1.00023,-0.39544 -1.73295,-1.163057 -0.7211,-0.779248 -1.12817,-1.907413 -0.40707,-1.139795 -0.40707,-2.616877 0,-1.186318 0.36055,-2.209808 0.37218,-1.035121 1.05838,-1.791107 0.69784,-0.767618 1.68644,-1.197949 1.00022,-0.430331 2.2447,-0.430331 z m 0.0349,1.488713 q -1.43056,0 -2.26796,0.837401 -0.82577,0.8374 -1.03512,2.291221 h 6.19909 q 0,-0.686203 -0.19772,-1.256101 -0.19772,-0.581528 -0.5699,-0.988598 -0.37218,-0.418701 -0.91881,-0.651312 -0.53501,-0.232611 -1.20958,-0.232611 z"
         style="font-weight:300;font-family:Carlito;-inkscape-font-specification:'Carlito Light'"
         id="path1901" />
      <path
         d="m 40.298163,61.9195 q 0.267503,0 0.40707,0.06978 0.139567,0.05815 0.314025,0.290764 l 8.304225,11.432847 q -0.02326,-0.279133 -0.04652,-0.546636 -0.01163,-0.279134 -0.01163,-0.511745 V 61.9195 h 1.860891 v 15.282565 h -1.070012 q -0.244242,0 -0.418701,-0.08141 -0.162828,-0.08141 -0.325656,-0.290765 L 41.007628,65.431931 q 0.02326,0.267503 0.03489,0.511745 0.01163,0.244242 0.01163,0.465223 V 77.202065 H 39.193259 V 61.9195 Z"
         style="font-weight:300;font-family:Carlito;-inkscape-font-specification:'Carlito Light'"
         id="path1903" />
      <path
         d="m 56.348345,65.82737 v 7.245843 q 0,1.279363 0.569898,1.988827 0.581528,0.697834 1.756216,0.697834 0.872292,0 1.616648,-0.40707 0.755987,-0.4187 1.395668,-1.139795 V 65.82737 h 2.04698 v 11.374695 h -1.23284 q -0.20935,0 -0.348917,-0.09305 Q 62.012431,77.00434 61.98917,76.783359 L 61.803081,75.57378 q -0.732726,0.81414 -1.63991,1.314254 -0.895553,0.488484 -2.081871,0.488484 -0.930446,0 -1.63991,-0.302395 -0.697834,-0.314025 -1.174687,-0.872292 -0.476854,-0.569898 -0.721096,-1.360777 -0.244241,-0.802509 -0.244241,-1.767846 V 65.82737 Z"
         style="font-weight:300;font-family:Carlito;-inkscape-font-specification:'Carlito Light'"
         id="path1905" />
      <path
         d="M 67.071727,77.202065 V 65.82737 h 1.209579 q 0.232611,0 0.360548,0.104675 0.139566,0.09305 0.162828,0.314026 l 0.174458,1.163056 q 0.325656,-0.383808 0.674573,-0.697834 0.360548,-0.325656 0.767617,-0.558267 0.40707,-0.244242 0.872293,-0.372178 0.465223,-0.127936 0.988598,-0.127936 1.174687,0 1.907413,0.639681 0.744356,0.639681 1.058382,1.721324 0.244242,-0.628051 0.639681,-1.070012 0.40707,-0.441962 0.895553,-0.732726 0.488484,-0.290764 1.046751,-0.418701 0.558268,-0.139566 1.139796,-0.139566 1.860891,0 2.87275,1.116534 1.02349,1.116535 1.02349,3.186775 v 7.245844 h -2.04698 v -7.245844 q 0,-1.325884 -0.604789,-2.000457 -0.60479,-0.686204 -1.732955,-0.686204 -0.511745,0 -0.965337,0.174459 -0.453592,0.162828 -0.802509,0.511745 -0.337286,0.337286 -0.546637,0.837401 -0.197719,0.500114 -0.197719,1.163056 v 7.245844 h -2.04698 v -7.245844 q 0,-1.360776 -0.569898,-2.023718 -0.558267,-0.662943 -1.65154,-0.662943 -0.744357,0 -1.395668,0.39544 -0.651312,0.383808 -1.186318,1.070012 v 8.467053 z"
         style="font-weight:300;font-family:Carlito;-inkscape-font-specification:'Carlito Light'"
         id="path1907" />
      <path
         d="m 85.261933,77.202065 z m 5.350061,-11.549153 q 1.02349,0 1.895782,0.337286 0.872293,0.337287 1.511974,0.988598 0.639681,0.651312 1.000229,1.593388 0.360547,0.942076 0.360547,2.163285 0,0.476854 -0.104675,0.639682 -0.104675,0.151197 -0.383808,0.151197 h -7.606391 q 0.02326,1.070012 0.290764,1.872521 0.267503,0.790879 0.732726,1.314254 0.476853,0.523376 1.128165,0.790879 0.651312,0.255872 1.453821,0.255872 0.744356,0 1.290993,-0.162828 0.546636,-0.174458 0.930445,-0.383808 0.395439,-0.209351 0.662942,-0.372179 0.267503,-0.174458 0.465223,-0.174458 0.127936,0 0.220981,0.05815 0.09304,0.04652 0.162828,0.139567 l 0.581528,0.744356 q -0.383809,0.453592 -0.907184,0.790878 -0.511745,0.325656 -1.104904,0.546637 -0.593159,0.20935 -1.23284,0.314025 -0.628051,0.104675 -1.244471,0.104675 -1.186318,0 -2.186546,-0.395439 -1.000229,-0.395439 -1.732955,-1.163057 -0.721095,-0.779247 -1.128165,-1.907412 -0.40707,-1.139796 -0.40707,-2.616878 0,-1.186318 0.360548,-2.209808 0.372178,-1.03512 1.058381,-1.791107 0.697834,-0.767617 1.686433,-1.197948 1.000228,-0.430331 2.244699,-0.430331 z m 0.03489,1.488712 q -1.43056,0 -2.267961,0.837401 -0.82577,0.837401 -1.03512,2.291222 h 6.199092 q 0,-0.686204 -0.19772,-1.256102 -0.197719,-0.581528 -0.569898,-0.988598 -0.372178,-0.4187 -0.918814,-0.651311 -0.535006,-0.232612 -1.209579,-0.232612 z m 2.87275,-6.210722 -2.628508,2.896011 q -0.162828,0.174458 -0.325656,0.244242 -0.151198,0.06978 -0.383809,0.06978 h -1.221209 l 1.663171,-2.709922 q 0.151197,-0.255873 0.337286,-0.372178 0.186089,-0.127936 0.558267,-0.127936 z"
         style="font-weight:300;font-family:Carlito;-inkscape-font-specification:'Carlito Light'"
         id="path1909" />
      <path
         d="M 97.764792,77.202065 V 65.82737 h 1.174688 q 0.325655,0 0.453592,0.127936 0.139566,0.127937 0.162828,0.430331 l 0.139566,1.674802 q 0.523374,-1.128165 1.290994,-1.779477 0.76762,-0.651311 1.84926,-0.651311 0.36055,0 0.67457,0.08141 0.31403,0.06978 0.5699,0.244241 l -0.16283,1.511974 q -0.0349,0.290764 -0.32565,0.290764 -0.16283,0 -0.46523,-0.05815 -0.29076,-0.06978 -0.65131,-0.06978 -0.52337,0 -0.93044,0.162828 -0.39544,0.151197 -0.7211,0.465223 -0.31402,0.302394 -0.55827,0.744356 -0.24424,0.441961 -0.453588,1.011859 v 7.187691 z"
         style="font-weight:300;font-family:Carlito;-inkscape-font-specification:'Carlito Light'"
         id="path1911" />
      <path
         d="m 105.82478,77.202065 z m 2.47731,-11.374695 v 11.374695 h -2.04698 V 65.82737 Z m 0.39544,-3.558953 q 0,0.290764 -0.11631,0.558267 -0.11631,0.255872 -0.32566,0.453592 -0.19771,0.186089 -0.46522,0.302395 -0.25587,0.116305 -0.54663,0.116305 -0.29077,0 -0.54664,-0.116305 -0.25587,-0.116306 -0.45359,-0.302395 -0.18609,-0.19772 -0.3024,-0.453592 -0.1163,-0.267503 -0.1163,-0.558267 0,-0.302395 0.1163,-0.558267 0.11631,-0.267503 0.3024,-0.465223 0.19772,-0.19772 0.45359,-0.314025 0.25587,-0.116306 0.54664,-0.116306 0.29076,0 0.54663,0.116306 0.26751,0.116305 0.46522,0.314025 0.20935,0.19772 0.32566,0.465223 0.11631,0.255872 0.11631,0.558267 z"
         style="font-weight:300;font-family:Carlito;-inkscape-font-specification:'Carlito Light'"
         id="path1913" />
      <path
         d="m 120.88636,65.82737 v 15.212782 h -2.04698 v -5.501259 q -0.70946,0.837401 -1.61664,1.337516 -0.90719,0.488483 -2.07025,0.488483 -0.97696,0 -1.76784,-0.372178 -0.79088,-0.383808 -1.34915,-1.116534 -0.55826,-0.732726 -0.86066,-1.814369 -0.30239,-1.093273 -0.30239,-2.512202 0,-1.256101 0.33728,-2.337744 0.33729,-1.093273 0.96534,-1.884152 0.62805,-0.790878 1.53523,-1.24447 0.90719,-0.453592 2.04698,-0.453592 1.10491,0 1.86089,0.395439 0.76762,0.383809 1.36078,1.093273 l 0.1512,-0.872292 q 0.0814,-0.418701 0.535,-0.418701 z m -5.07092,9.897613 q 0.96533,0 1.68643,-0.441962 0.72109,-0.453592 1.33751,-1.256101 v -5.501258 q -0.52337,-0.709465 -1.18631,-1.01186 -0.65132,-0.314025 -1.43056,-0.314025 -1.5585,0 -2.40753,1.128165 -0.8374,1.128165 -0.8374,3.221667 0,1.104904 0.18609,1.895782 0.19772,0.790879 0.55826,1.302624 0.37218,0.500114 0.89556,0.744356 0.535,0.232612 1.19795,0.232612 z"
         style="font-weight:300;font-family:Carlito;-inkscape-font-specification:'Carlito Light'"
         id="path1915" />
      <path
         d="m 126.02707,65.82737 v 7.245843 q 0,1.279363 0.5699,1.988827 0.58153,0.697834 1.75622,0.697834 0.87229,0 1.61664,-0.40707 0.75599,-0.4187 1.39567,-1.139795 V 65.82737 h 2.04698 v 11.374695 h -1.23284 q -0.20935,0 -0.34891,-0.09305 -0.13957,-0.104675 -0.16283,-0.325656 l -0.18609,-1.209579 q -0.73273,0.81414 -1.63991,1.314254 -0.89556,0.488484 -2.08187,0.488484 -0.93045,0 -1.63991,-0.302395 -0.69784,-0.314025 -1.17469,-0.872292 -0.47685,-0.569898 -0.7211,-1.360777 -0.24424,-0.802509 -0.24424,-1.767846 V 65.82737 Z"
         style="font-weight:300;font-family:Carlito;-inkscape-font-specification:'Carlito Light'"
         id="path1917" />
      <path
         d="m 141.26311,65.652912 q 1.02349,0 1.89579,0.337286 0.87229,0.337287 1.51197,0.988598 0.63968,0.651312 1.00023,1.593388 0.36055,0.942076 0.36055,2.163285 0,0.476854 -0.10468,0.639682 -0.10467,0.151197 -0.38381,0.151197 h -7.60639 q 0.0233,1.070012 0.29077,1.872521 0.2675,0.790879 0.73272,1.314254 0.47685,0.523376 1.12817,0.790879 0.65131,0.255872 1.45382,0.255872 0.74435,0 1.29099,-0.162828 0.54664,-0.174458 0.93045,-0.383808 0.39543,-0.209351 0.66294,-0.372179 0.2675,-0.174458 0.46522,-0.174458 0.12794,0 0.22098,0.05815 0.0931,0.04652 0.16283,0.139567 l 0.58153,0.744356 q -0.38381,0.453592 -0.90719,0.790878 -0.51174,0.325656 -1.1049,0.546637 -0.59316,0.20935 -1.23284,0.314025 -0.62805,0.104675 -1.24447,0.104675 -1.18632,0 -2.18655,-0.395439 -1.00023,-0.395439 -1.73295,-1.163057 -0.7211,-0.779247 -1.12817,-1.907412 -0.40707,-1.139796 -0.40707,-2.616878 0,-1.186318 0.36055,-2.209808 0.37218,-1.03512 1.05838,-1.791107 0.69784,-0.767617 1.68643,-1.197948 1.00023,-0.430331 2.2447,-0.430331 z m 0.0349,1.488712 q -1.43055,0 -2.26796,0.837401 -0.82577,0.837401 -1.03512,2.291222 h 6.1991 q 0,-0.686204 -0.19772,-1.256102 -0.19772,-0.581528 -0.5699,-0.988598 -0.37218,-0.4187 -0.91882,-0.651311 -0.535,-0.232612 -1.20958,-0.232612 z"
         style="font-weight:300;font-family:Carlito;-inkscape-font-specification:'Carlito Light'"
         id="path1919" />
    </g>
  </g>
</svg>
