<?xml version="1.0" encoding="UTF-8" standalone="no"?>
<svg
   version="1.1"
   x="0"
   y="0"
   width="113"
   height="98"
   viewBox="0 -66 295 266"
   xml:space="preserve"
   id="svg543"
   sodipodi:docname="marianne.svg"
   inkscape:version="1.2.1 (9c6d41e410, 2022-07-14)"
   inkscape:export-filename="marianne.png"
   inkscape:export-xdpi="55.221237"
   inkscape:export-ydpi="55.221237"
   xmlns:inkscape="http://www.inkscape.org/namespaces/inkscape"
   xmlns:sodipodi="http://sodipodi.sourceforge.net/DTD/sodipodi-0.dtd"
   xmlns="http://www.w3.org/2000/svg"
   xmlns:svg="http://www.w3.org/2000/svg"><defs
     id="defs547" /><sodipodi:namedview
     id="namedview545"
     pagecolor="#ffffff"
     bordercolor="#666666"
     borderopacity="1.0"
     inkscape:showpageshadow="2"
     inkscape:pageopacity="0.0"
     inkscape:pagecheckerboard="0"
     inkscape:deskcolor="#d1d1d1"
     showgrid="false"
     showguides="true"
     inkscape:zoom="4.1530612"
     inkscape:cx="-4.2137592"
     inkscape:cy="53.815725"
     inkscape:window-width="1920"
     inkscape:window-height="1001"
     inkscape:window-x="-9"
     inkscape:window-y="-9"
     inkscape:window-maximized="1"
     inkscape:current-layer="text13534"><sodipodi:guide
       position="15.08643,94.113022"
       orientation="1,0"
       id="guide666"
       inkscape:locked="false" /><sodipodi:guide
       position="279.72756,97.380835"
       orientation="1,0"
       id="guide668"
       inkscape:locked="false" /><sodipodi:guide
       position="171.60814,191.49386"
       orientation="0,-1"
       id="guide670"
       inkscape:locked="false" /><sodipodi:guide
       position="225.03925,92.805897"
       orientation="0,-1"
       id="guide672"
       inkscape:locked="false" /></sodipodi:namedview><style
     id="style533">.st0{fill:#1f356c}</style><g
     id="g984"
     transform="matrix(0.97459248,0,0,0.98255612,-1.0154221,-97.052459)"><g
       id="g4026-0-6"
       transform="matrix(0.48526703,0,0,0.48526703,-1099.788,259.12178)"><g
         id="g5762-0-7-2-5-3-7"
         transform="translate(341.65802,-1227.5096)"><path
           style="fill:#000000;stroke-width:36.8112;stroke-dasharray:36.8112, 36.8112"
           id="path15082-0-7-1-4-8-4"
           transform="matrix(-0.13997337,-0.99015527,0.9913098,-0.13154798,0,0)"
           d="m -1228.1049,1792.0285 a 153.87494,155.69708 0 0 1 74.9878,203.6158 153.87494,155.69708 0 0 1 -199.2052,81.1693 153.87494,155.69708 0 0 1 -85.3961,-199.3748" /><g
           id="g17548-0-7-0-0-48-3"
           style="fill:none;stroke:#ffffff"><path
             style="color:#000000;fill:#ffffff;stroke:none"
             d="m 2176.5039,977.86914 1.5703,3.04883 35.6953,69.30273 35.3047,-35.4668 z m 5.1094,5.08398 63.7422,32.39648 -31.0078,31.1524 z"
             id="path16488-9-4-0-4-5-0" /><path
             style="color:#000000;fill:#ffffff;stroke:none"
             d="m 2191.2441,909.99023 -13.4492,69.92774 1.8692,0.35742 13.4472,-69.92773 z"
             id="path16492-7-1-8-8-0-1" /><path
             style="color:#000000;fill:#ffffff;stroke:none"
             d="m 2212.7461,1047.2383 17.5156,60.873 1.8281,-0.5254 -16.7187,-58.1015 33.168,4.1738 0.2363,-1.8887 z"
             id="path16687-6-3-9-4-5-5" /></g><path
           style="color:#000000;fill:#ffffff"
           d="m 2177.9902,979.49805 -45.4004,56.06445 77.6719,13.1211 -110.5156,38.7695 0.1758,1.8379 126.1191,18.7559 -117.4472,26.8261 36.0253,36.0254 -82.3086,4.7442 0.1094,1.8984 86.543,-4.9883 -36.5899,-36.5918 119.0137,-27.1855 -0.072,-1.8672 -127.3125,-18.9336 110.371,-38.7168 -0.1562,-1.834 -78.1016,-13.1933 43.3536,-53.53519 z"
           id="path1783-8-7-1-5-0-9" /><path
           style="color:#000000;fill:#ffffff"
           d="m 2085.8613,871.79883 9.8867,103.63672 -2.5937,1.78711 3.6816,0.16406 36.0196,56.92188 -89.7969,23.8105 57.3223,31.4922 35.0996,-54.7129 -36.3282,-57.40817 79.5352,3.55664 0.084,-1.90039 -79.8731,-3.57031 95.3575,-65.68359 z m 2.1758,2.77929 102.0625,35.86915 -92.5605,63.7539 z m 44.1934,161.86328 -32.4903,50.6484 -51.6035,-28.3515 z"
           id="path1818-1-8-4-5-0-4" /><path
           style="color:#000000;fill:#ffffff"
           d="m 2100.9902,1088.1445 -1.8574,0.4102 10.4219,47.0683 1.8574,-0.4121 z"
           id="path1853-9-6-6-2-3-7" /><path
           style="color:#000000;fill:#ffffff"
           d="m 2099.5234,1087.5645 -65.1757,44.6132 73.7168,4.0567 -46.3184,39.6347 1.2363,1.4454 49.9199,-42.7168 -72.8652,-4.0098 60.5606,-41.4531 z"
           id="path1890-4-3-6-6-4-0" /><path
           style="color:#000000;fill:#ffffff"
           d="m 2086.2383,872.55859 -71.25,80.45313 79.582,23.9414 -49.7832,80.97848 1.6211,0.9961 51.0762,-83.08395 -79.1016,-23.79688 69.2793,-78.22851 z"
           id="path1925-8-5-7-9-1-1" /><path
           style="color:#000000;fill:#ffffff"
           d="m 2017.6035,952.2793 -1.8359,0.5 28.8652,105.7227 -8.3848,72.7714 1.8907,0.2168 8.4258,-73.1347 z"
           id="path1960-9-8-7-6-5-5" /><path
           style="color:#000000;fill:#ffffff"
           d="m 1973.9629,928.89648 -14.1973,76.66402 58.5625,-53.24019 -1.1992,-0.63281 z m 1.3984,2.88868 39.6836,20.95117 -52.3828,47.61917 z"
           id="path1995-3-1-8-2-1-2" /><path
           style="color:#000000;fill:#ffffff"
           d="m 2003.4102,1029.1602 -2.8926,42.2968 47.3574,-12.6523 -1.75,-1.166 z m 1.6738,3.4023 38.2344,25.4902 -40.7227,10.8809 z"
           id="path2030-4-6-3-5-9-3" /><path
           style="color:#000000;fill:#ffffff"
           d="m 2015.7461,952.38086 -12.4395,78.33204 1.8789,0.2969 12.4395,-78.33207 z"
           id="path2065-4-7-6-0-4-4" /></g></g><g
       aria-label="Délégation GénéraleNumérique"
       id="text13534"
       style="font-size:139.027px;stroke-width:5.21353"
       transform="matrix(0.11565463,0,0,0.11565463,180.05989,170.0545)"><path
         d="m -79.327505,261.44102 q 0,10.04687 -2.986908,18.26087 -2.919024,8.21399 -8.281882,14.11993 -5.294973,5.83804 -12.830125,9.0286 -7.46727,3.19057 -16.56377,3.19057 h -30.81946 v -89.19994 h 30.81946 q 9.0965,0 16.56377,3.25844 7.535152,3.19057 12.830125,9.02861 5.362858,5.83805 8.281882,14.11993 2.986908,8.214 2.986908,18.19299 z m -12.694359,0 q 0,-8.14612 -1.968644,-14.52724 -1.968644,-6.449 -5.634395,-10.92937 -3.665747,-4.48036 -8.824957,-6.78842 -5.1592,-2.37595 -11.54033,-2.37595 h -18.39663 V 296.062 h 18.39663 q 6.38113,0 11.54033,-2.30807 5.15921,-2.37595 8.824957,-6.78843 3.665751,-4.48036 5.634395,-10.92936 1.968644,-6.44901 1.968644,-14.59512 z"
         style="-inkscape-font-specification:'Carlito Light'"
         id="path770" /><path
         d="m -69.620052,306.04099 z m 31.226766,-67.40909 q 5.973816,0 11.065137,1.96865 5.09132,1.96864 8.824955,5.77016 3.733635,3.80152 5.838048,9.30014 2.104412,5.49863 2.104412,12.62648 0,2.78325 -0.610958,3.73363 -0.610959,0.8825 -2.240181,0.8825 h -44.396315 q 0.135768,6.24535 1.697107,10.92937 1.561338,4.61613 4.276709,7.67092 2.783255,3.05479 6.584774,4.61613 3.80152,1.49346 8.485535,1.49346 4.344593,0 7.535154,-0.95038 3.190561,-1.01827 5.430742,-2.24019 2.308065,-1.22191 3.869404,-2.17229 1.561338,-1.01827 2.715371,-1.01827 0.746727,0 1.289801,0.33942 0.543074,0.27154 0.95038,0.81462 l 3.394213,4.34459 q -2.240181,2.64749 -5.294973,4.61613 -2.986908,1.90076 -6.449006,3.19056 -3.462098,1.22192 -7.195733,1.83288 -3.665751,0.61095 -7.263617,0.61095 -6.924196,0 -12.762244,-2.30806 -5.838047,-2.30807 -10.114757,-6.78843 -4.208825,-4.54824 -6.584774,-11.13302 -2.37595,-6.65266 -2.37595,-15.27396 0,-6.9242 2.104413,-12.89801 2.172296,-6.0417 6.177469,-10.45418 4.073056,-4.48036 9.843219,-6.99208 5.838048,-2.51172 13.101665,-2.51172 z m 0.203653,8.68919 q -8.349766,0 -13.237433,4.88767 -4.819784,4.88766 -6.041701,13.3732 h 36.182318 q 0,-4.00517 -1.154033,-7.3315 -1.154032,-3.39422 -3.326329,-5.77017 -2.172297,-2.44383 -5.362858,-3.80152 -3.122676,-1.35768 -7.059964,-1.35768 z m 16.767416,-36.2502 -15.341846,16.90318 q -0.95038,1.01826 -1.90076,1.42557 -0.882496,0.40731 -2.240181,0.40731 h -7.127849 l 9.707451,-15.81704 q 0.882496,-1.49345 1.968644,-2.1723 1.086149,-0.74672 3.258445,-0.74672 z"
         style="-inkscape-font-specification:'Carlito Light'"
         id="path772" /><path
         d="m 16.389313,209.50955 v 96.53144 H 4.4416805 v -96.53144 z"
         style="-inkscape-font-specification:'Carlito Light'"
         id="path774" /><path
         d="M 31.459622,306.04099 Z M 62.686388,238.6319 q 5.973816,0 11.065137,1.96865 5.09132,1.96864 8.824955,5.77016 3.733635,3.80152 5.838048,9.30014 2.104412,5.49863 2.104412,12.62648 0,2.78325 -0.610958,3.73363 -0.610959,0.8825 -2.240181,0.8825 H 43.271486 q 0.135768,6.24535 1.697106,10.92937 1.561339,4.61613 4.27671,7.67092 2.783255,3.05479 6.584774,4.61613 3.80152,1.49346 8.485534,1.49346 4.344594,0 7.535155,-0.95038 3.190561,-1.01827 5.430742,-2.24019 2.308065,-1.22191 3.869403,-2.17229 1.561339,-1.01827 2.715371,-1.01827 0.746727,0 1.289802,0.33942 0.543074,0.27154 0.950379,0.81462 l 3.394214,4.34459 q -2.240181,2.64749 -5.294973,4.61613 -2.986908,1.90076 -6.449006,3.19056 -3.462098,1.22192 -7.195733,1.83288 -3.665751,0.61095 -7.263618,0.61095 -6.924196,0 -12.762243,-2.30806 -5.838048,-2.30807 -10.114757,-6.78843 -4.208825,-4.54824 -6.584774,-11.13302 -2.37595,-6.65266 -2.37595,-15.27396 0,-6.9242 2.104412,-12.89801 2.172297,-6.0417 6.177469,-10.45418 4.073057,-4.48036 9.84322,-6.99208 5.838048,-2.51172 13.101665,-2.51172 z m 0.203653,8.68919 q -8.349766,0 -13.237434,4.88767 -4.819783,4.88766 -6.0417,13.3732 h 36.182318 q 0,-4.00517 -1.154033,-7.3315 -1.154032,-3.39422 -3.326329,-5.77017 -2.172297,-2.44383 -5.362858,-3.80152 -3.122676,-1.35768 -7.059964,-1.35768 z m 16.767415,-36.2502 -15.341846,16.90318 q -0.950379,1.01826 -1.900759,1.42557 -0.882496,0.40731 -2.240181,0.40731 h -7.127849 l 9.707451,-15.81704 q 0.882496,-1.49345 1.968644,-2.1723 1.086148,-0.74672 3.258445,-0.74672 z"
         style="-inkscape-font-specification:'Carlito Light'"
         id="path776" /><path
         d="m 126.90491,238.56402 q 4.14094,0 7.73881,0.95038 3.59786,0.95038 6.51689,2.71537 h 17.37837 v 4.41248 q 0,2.37595 -2.71537,2.78325 l -7.05997,1.01826 q 2.10442,4.3446 2.10442,9.5038 0,4.88767 -1.83288,8.82496 -1.76499,3.93729 -4.95555,6.72054 -3.19056,2.78326 -7.60304,4.3446 -4.34459,1.49345 -9.57168,1.49345 -4.3446,0 -8.01035,-1.01826 -1.96864,1.2898 -2.91902,2.78325 -0.95038,1.42557 -0.95038,2.85114 0,2.37595 1.83288,3.52998 1.83287,1.15403 4.81978,1.69711 2.98691,0.54307 6.78843,0.67884 3.80152,0.13577 7.7388,0.47519 4.00518,0.27154 7.8067,0.95038 3.80151,0.67884 6.78842,2.37595 2.98691,1.62922 4.81979,4.54825 1.83287,2.85114 1.83287,7.46727 0,4.27671 -2.03653,8.28188 -2.03653,4.00517 -5.90593,7.12785 -3.80152,3.12267 -9.36803,4.95555 -5.49862,1.90076 -12.4907,1.90076 -6.99209,0 -12.21917,-1.42557 -5.22709,-1.42557 -8.68919,-3.8694 -3.4621,-2.44384 -5.15921,-5.6344 -1.697103,-3.19056 -1.697103,-6.65266 0,-4.88767 2.851143,-8.28188 2.91902,-3.39421 8.01034,-5.36286 -2.78325,-1.2898 -4.41248,-3.52998 -1.62922,-2.24018 -1.62922,-5.97381 0,-2.85114 2.03653,-6.04171 2.03653,-3.19056 6.10958,-5.29497 -4.68401,-2.78325 -7.39938,-7.3315 -2.64749,-4.54825 -2.64749,-10.58995 0,-4.88766 1.76499,-8.82495 1.83288,-3.93729 5.02344,-6.72055 3.19056,-2.85114 7.60304,-4.34459 4.41247,-1.49345 9.70745,-1.49345 z m 19.55067,71.07483 q 0,-2.37595 -1.2898,-3.8694 -1.22192,-1.49346 -3.39422,-2.30807 -2.17229,-0.88249 -5.02343,-1.22191 -2.85114,-0.40731 -6.0417,-0.61096 -3.19056,-0.20366 -6.51689,-0.33942 -3.25845,-0.13577 -6.31324,-0.61096 -3.32633,1.76499 -5.43074,4.27671 -2.10441,2.44383 -2.10441,5.90593 0,2.24018 1.01826,4.14094 1.01826,1.90076 3.12268,3.25844 2.17229,1.42557 5.49862,2.24019 3.32633,0.81461 7.87458,0.81461 4.48036,0 7.94246,-0.8825 3.4621,-0.88249 5.83805,-2.44383 2.37595,-1.49346 3.59786,-3.66575 1.22192,-2.10442 1.22192,-4.68402 z m -19.55067,-36.18232 q 6.58477,0 9.9111,-3.66575 3.39422,-3.66575 3.39422,-9.57168 0,-6.0417 -3.39422,-9.57168 -3.32633,-3.59787 -9.9111,-3.59787 -6.44901,0 -9.84322,3.59787 -3.32633,3.52998 -3.32633,9.57168 0,2.91902 0.81461,5.36286 0.8825,2.37595 2.51172,4.14094 1.69711,1.76499 4.14094,2.78325 2.51172,0.95038 5.70228,0.95038 z"
         style="-inkscape-font-specification:'Carlito Light'"
         id="path778" /><path
         d="m 211.14929,306.04099 q -1.76499,0 -2.71537,-0.54308 -0.95038,-0.54307 -1.2898,-2.24018 l -1.49345,-6.17747 q -2.5796,2.37595 -5.09132,4.27671 -2.44384,1.83288 -5.15921,3.12268 -2.71537,1.2898 -5.83804,1.90076 -3.12268,0.67884 -6.85632,0.67884 -3.8694,0 -7.26361,-1.01826 -3.32633,-1.08615 -5.90594,-3.25845 -2.51171,-2.24018 -4.00517,-5.49863 -1.42557,-3.32633 -1.42557,-7.80669 0,-3.93729 2.10441,-7.53515 2.1723,-3.66575 6.99209,-6.51689 4.81978,-2.85114 12.55859,-4.61613 7.7388,-1.83288 19.00759,-2.10442 v -5.09132 q 0,-7.7388 -3.32633,-11.60821 -3.25844,-3.93728 -9.57168,-3.93728 -4.20882,0 -7.12785,1.08614 -2.85114,1.08615 -4.95555,2.37595 -2.10441,1.2898 -3.66575,2.37595 -1.49346,1.08615 -3.05479,1.08615 -1.22192,0 -2.10442,-0.61096 -0.88249,-0.61096 -1.42557,-1.56134 l -2.17229,-3.80151 q 5.49862,-5.29498 11.81186,-7.87458 6.38112,-2.64749 14.11993,-2.64749 5.56651,0 9.9111,1.83288 4.3446,1.76499 7.26362,5.09132 2.91903,3.32633 4.41248,7.94246 1.56134,4.61613 1.56134,10.25052 v 42.42768 z m -24.84564,-7.33151 q 2.98691,0 5.49863,-0.61095 2.51171,-0.61096 4.7519,-1.69711 2.24018,-1.15403 4.20882,-2.78326 2.03653,-1.6971 4.00517,-3.73363 V 276.1719 q -7.94246,0.33943 -13.50897,1.35769 -5.56651,0.95038 -9.09649,2.5796 -3.4621,1.62923 -5.02344,3.86941 -1.56134,2.17229 -1.56134,4.88766 0,2.57961 0.81462,4.48037 0.88249,1.83287 2.30806,3.05479 1.42557,1.15403 3.39422,1.76499 1.96864,0.54307 4.20882,0.54307 z"
         style="-inkscape-font-specification:'Carlito Light'"
         id="path780" /><path
         d="m 225.8802,306.04099 z m 65.30467,-65.16891 v 65.16891 h -11.94763 v -56.47972 h -31.56619 v 39.64442 q 0,4.07305 1.76499,6.10958 1.83288,2.03653 4.7519,2.03653 1.69711,0 2.85114,-0.47519 1.22192,-0.47519 2.03653,-1.08615 0.88249,-0.61096 1.49345,-1.08615 0.61096,-0.47519 1.15403,-0.47519 0.61096,0 0.95038,0.27154 0.40731,0.27154 0.74673,0.88249 l 3.52998,5.70228 q -2.9869,2.85114 -7.05996,4.41248 -4.07306,1.56134 -8.48554,1.56134 -7.53515,0 -11.60821,-4.41248 -4.07305,-4.41248 -4.07305,-12.62647 v -40.45903 h -7.3315 q -1.08615,0 -1.83288,-0.67884 -0.67884,-0.67885 -0.67884,-1.96865 v -4.7519 l 10.25052,-1.35768 2.71537,-20.43317 q 0.20366,-1.01826 0.8825,-1.62922 0.67884,-0.61096 1.83288,-0.61096 h 6.10958 v 22.74123 z m 2.5796,-22.46969 q 0,1.6971 -0.67884,3.25844 -0.67884,1.49346 -1.90076,2.64749 -1.15403,1.08615 -2.71537,1.76499 -1.49346,0.67884 -3.19056,0.67884 -1.69711,0 -3.19056,-0.67884 -1.49346,-0.67884 -2.64749,-1.76499 -1.08615,-1.15403 -1.76499,-2.64749 -0.67884,-1.56134 -0.67884,-3.25844 0,-1.76499 0.67884,-3.25845 0.67884,-1.56134 1.76499,-2.71537 1.15403,-1.15403 2.64749,-1.83287 1.49345,-0.67885 3.19056,-0.67885 1.6971,0 3.19056,0.67885 1.56134,0.67884 2.71537,1.83287 1.22192,1.15403 1.90076,2.71537 0.67884,1.49346 0.67884,3.25845 z"
         style="-inkscape-font-specification:'Carlito Light'"
         id="path782" /><path
         d="m 337.88923,238.6319 q 7.26361,0 13.10166,2.44384 5.83805,2.37594 9.9111,6.85631 4.07306,4.41247 6.24536,10.72571 2.24018,6.31324 2.24018,14.11993 0,7.87458 -2.24018,14.18781 -2.1723,6.31324 -6.24536,10.7936 -4.07305,4.41248 -9.9111,6.85632 -5.83805,2.37594 -13.10166,2.37594 -7.26362,0 -13.16955,-2.37594 -5.83805,-2.44384 -9.97899,-6.85632 -4.07306,-4.48036 -6.31324,-10.7936 -2.1723,-6.31323 -2.1723,-14.18781 0,-7.80669 2.1723,-14.11993 2.24018,-6.31324 6.31324,-10.72571 4.14094,-4.48037 9.97899,-6.85631 5.90593,-2.44384 13.16955,-2.44384 z m 0,59.05932 q 4.81978,0 8.41765,-1.62922 3.59786,-1.69711 5.97381,-4.88767 2.44384,-3.19056 3.59787,-7.80669 1.22192,-4.61613 1.22192,-10.52206 0,-5.90594 -1.22192,-10.52207 -1.15403,-4.61613 -3.59787,-7.80669 -2.37595,-3.19056 -5.97381,-4.88767 -3.59787,-1.6971 -8.41765,-1.6971 -4.88767,0 -8.55342,1.6971 -3.59787,1.69711 -6.0417,4.88767 -2.37595,3.19056 -3.59787,7.80669 -1.15403,4.61613 -1.15403,10.52207 0,5.90593 1.15403,10.52206 1.22192,4.61613 3.59787,7.80669 2.44383,3.19056 6.0417,4.88767 3.66575,1.62922 8.55342,1.62922 z"
         style="-inkscape-font-specification:'Carlito Light'"
         id="path784" /><path
         d="m 383.98266,306.04099 v -66.39082 h 7.12785 q 1.2898,0 2.10442,0.61095 0.81461,0.54308 0.95038,1.83288 l 1.01826,7.05996 q 4.27671,-4.7519 9.57168,-7.60304 5.29498,-2.91902 12.21917,-2.91902 5.43074,0 9.5038,1.83288 4.14094,1.76499 6.9242,5.09132 2.78325,3.25844 4.20882,7.94246 1.42557,4.61613 1.42557,10.25052 v 42.29191 h -11.94763 v -42.29191 q 0,-7.39938 -3.39421,-11.54032 -3.32633,-4.14094 -10.18265,-4.14094 -5.09132,0 -9.50379,2.44383 -4.41248,2.37595 -8.07823,6.65266 v 48.87668 z"
         style="-inkscape-font-specification:'Carlito Light'"
         id="path786" /><path
         d="m 559.39561,297.41968 q -6.51689,4.81979 -13.91628,7.19574 -7.3315,2.37594 -15.9528,2.37594 -10.3863,0 -18.80395,-3.32632 -8.34976,-3.32633 -14.25569,-9.30015 -5.90594,-6.0417 -9.0965,-14.39147 -3.19056,-8.41765 -3.19056,-18.5324 0,-10.18264 3.05479,-18.53241 3.12268,-8.41765 8.82496,-14.39147 5.77016,-6.0417 13.91628,-9.36803 8.14611,-3.32632 18.26087,-3.32632 5.1592,0 9.50379,0.81461 4.41248,0.74672 8.14612,2.24018 3.73363,1.42557 6.85631,3.52998 3.19056,2.10441 5.90593,4.68401 l -3.4621,5.56652 q -0.81461,1.35768 -2.17229,1.6971 -1.35769,0.33942 -2.91903,-0.61096 -1.56134,-0.88249 -3.4621,-2.10441 -1.83287,-1.2898 -4.41247,-2.37595 -2.57961,-1.15403 -6.10959,-1.96864 -3.52998,-0.81461 -8.34976,-0.81461 -7.05997,0 -12.83013,2.44383 -5.70228,2.44383 -9.77534,6.99208 -4.00517,4.54825 -6.17747,11.06514 -2.17229,6.449 -2.17229,14.45935 0,8.34976 2.24018,15.00242 2.30806,6.58478 6.51689,11.20091 4.27671,4.54824 10.25052,6.99208 5.97382,2.37595 13.37321,2.37595 5.70228,0 10.18264,-1.2898 4.48036,-1.35769 8.82495,-3.73364 v -19.55067 h -12.83012 q -1.22192,0 -1.96865,-0.67884 -0.74673,-0.67885 -0.74673,-1.69711 v -6.99208 h 26.74641 z"
         style="-inkscape-font-specification:'Carlito Light'"
         id="path788" /><path
         d="m 571.75055,306.04099 z m 31.22676,-67.40909 q 5.97382,0 11.06514,1.96865 5.09132,1.96864 8.82495,5.77016 3.73364,3.80152 5.83805,9.30014 2.10441,5.49863 2.10441,12.62648 0,2.78325 -0.61095,3.73363 -0.61096,0.8825 -2.24019,0.8825 h -44.39631 q 0.13577,6.24535 1.69711,10.92937 1.56133,4.61613 4.27671,7.67092 2.78325,3.05479 6.58477,4.61613 3.80152,1.49346 8.48553,1.49346 4.3446,0 7.53516,-0.95038 3.19056,-1.01827 5.43074,-2.24019 2.30807,-1.22191 3.8694,-2.17229 1.56134,-1.01827 2.71538,-1.01827 0.74672,0 1.2898,0.33942 0.54307,0.27154 0.95038,0.81462 l 3.39421,4.34459 q -2.24018,2.64749 -5.29497,4.61613 -2.98691,1.90076 -6.44901,3.19056 -3.4621,1.22192 -7.19573,1.83288 -3.66575,0.61095 -7.26362,0.61095 -6.9242,0 -12.76224,-2.30806 -5.83805,-2.30807 -10.11476,-6.78843 -4.20882,-4.54824 -6.58477,-11.13302 -2.37595,-6.65266 -2.37595,-15.27396 0,-6.9242 2.10441,-12.89801 2.1723,-6.0417 6.17747,-10.45418 4.07305,-4.48036 9.84322,-6.99208 5.83804,-2.51172 13.10166,-2.51172 z m 0.20365,8.68919 q -8.34976,0 -13.23743,4.88767 -4.81978,4.88766 -6.0417,13.3732 h 36.18232 q 0,-4.00517 -1.15403,-7.3315 -1.15404,-3.39422 -3.32633,-5.77017 -2.1723,-2.44383 -5.36286,-3.80152 -3.12268,-1.35768 -7.05997,-1.35768 z m 16.76742,-36.2502 -15.34185,16.90318 q -0.95038,1.01826 -1.90076,1.42557 -0.88249,0.40731 -2.24018,0.40731 h -7.12784 l 9.70745,-15.81704 q 0.88249,-1.49345 1.96864,-2.1723 1.08615,-0.74672 3.25845,-0.74672 z"
         style="-inkscape-font-specification:'Carlito Light'"
         id="path790" /><path
         d="m 645.3371,306.04099 v -66.39082 h 7.12784 q 1.28981,0 2.10442,0.61095 0.81461,0.54308 0.95038,1.83288 l 1.01826,7.05996 q 4.27671,-4.7519 9.57168,-7.60304 5.29498,-2.91902 12.21917,-2.91902 5.43075,0 9.5038,1.83288 4.14094,1.76499 6.9242,5.09132 2.78325,3.25844 4.20882,7.94246 1.42557,4.61613 1.42557,10.25052 v 42.29191 h -11.94763 v -42.29191 q 0,-7.39938 -3.39421,-11.54032 -3.32633,-4.14094 -10.18264,-4.14094 -5.09133,0 -9.5038,2.44383 -4.41248,2.37595 -8.07823,6.65266 v 48.87668 z"
         style="-inkscape-font-specification:'Carlito Light'"
         id="path792" /><path
         d="M 713.96814,306.04099 Z M 745.1949,238.6319 q 5.97382,0 11.06514,1.96865 5.09132,1.96864 8.82495,5.77016 3.73364,3.80152 5.83805,9.30014 2.10441,5.49863 2.10441,12.62648 0,2.78325 -0.61095,3.73363 -0.61096,0.8825 -2.24018,0.8825 H 725.78 q 0.13577,6.24535 1.69711,10.92937 1.56134,4.61613 4.27671,7.67092 2.78325,3.05479 6.58477,4.61613 3.80152,1.49346 8.48553,1.49346 4.3446,0 7.53516,-0.95038 3.19056,-1.01827 5.43074,-2.24019 2.30807,-1.22191 3.8694,-2.17229 1.56134,-1.01827 2.71538,-1.01827 0.74672,0 1.2898,0.33942 0.54307,0.27154 0.95038,0.81462 l 3.39421,4.34459 q -2.24018,2.64749 -5.29497,4.61613 -2.98691,1.90076 -6.44901,3.19056 -3.4621,1.22192 -7.19573,1.83288 -3.66575,0.61095 -7.26362,0.61095 -6.9242,0 -12.76224,-2.30806 -5.83805,-2.30807 -10.11476,-6.78843 -4.20882,-4.54824 -6.58477,-11.13302 -2.37595,-6.65266 -2.37595,-15.27396 0,-6.9242 2.10441,-12.89801 2.1723,-6.0417 6.17747,-10.45418 4.07305,-4.48036 9.84322,-6.99208 5.83804,-2.51172 13.10166,-2.51172 z m 0.20366,8.68919 q -8.34977,0 -13.23744,4.88767 -4.81978,4.88766 -6.0417,13.3732 h 36.18232 q 0,-4.00517 -1.15403,-7.3315 -1.15404,-3.39422 -3.32633,-5.77017 -2.1723,-2.44383 -5.36286,-3.80152 -3.12268,-1.35768 -7.05996,-1.35768 z m 16.76741,-36.2502 -15.34185,16.90318 q -0.95037,1.01826 -1.90075,1.42557 -0.8825,0.40731 -2.24019,0.40731 h -7.12784 l 9.70745,-15.81704 q 0.88249,-1.49345 1.96864,-2.1723 1.08615,-0.74672 3.25845,-0.74672 z"
         style="-inkscape-font-specification:'Carlito Light'"
         id="path794" /><path
         d="m 786.94373,306.04099 v -66.39082 h 6.85631 q 1.90076,0 2.64749,0.74672 0.81461,0.74673 0.95038,2.51172 l 0.81461,9.77534 q 3.05479,-6.58478 7.53515,-10.3863 4.48036,-3.80152 10.7936,-3.80152 2.10441,0 3.93729,0.47519 1.83287,0.40731 3.32633,1.42557 l -0.95038,8.82496 q -0.20365,1.6971 -1.90076,1.6971 -0.95038,0 -2.71537,-0.33942 -1.69711,-0.4073 -3.80152,-0.4073 -3.05479,0 -5.43074,0.95038 -2.30807,0.88249 -4.20883,2.71537 -1.83287,1.76499 -3.25844,4.34459 -1.42557,2.5796 -2.64749,5.90593 v 41.95249 z"
         style="-inkscape-font-specification:'Carlito Light'"
         id="path796" /><path
         d="m 876.41519,306.04099 q -1.76499,0 -2.71537,-0.54308 -0.95038,-0.54307 -1.2898,-2.24018 l -1.49345,-6.17747 q -2.5796,2.37595 -5.09132,4.27671 -2.44384,1.83288 -5.15921,3.12268 -2.71537,1.2898 -5.83805,1.90076 -3.12267,0.67884 -6.85631,0.67884 -3.8694,0 -7.26361,-1.01826 -3.32633,-1.08615 -5.90594,-3.25845 -2.51171,-2.24018 -4.00517,-5.49863 -1.42557,-3.32633 -1.42557,-7.80669 0,-3.93729 2.10441,-7.53515 2.1723,-3.66575 6.99208,-6.51689 4.81979,-2.85114 12.5586,-4.61613 7.7388,-1.83288 19.00759,-2.10442 v -5.09132 q 0,-7.7388 -3.32633,-11.60821 -3.25844,-3.93728 -9.57168,-3.93728 -4.20882,0 -7.12785,1.08614 -2.85114,1.08615 -4.95555,2.37595 -2.10441,1.2898 -3.66575,2.37595 -1.49346,1.08615 -3.05479,1.08615 -1.22192,0 -2.10442,-0.61096 -0.88249,-0.61096 -1.42557,-1.56134 l -2.17229,-3.80151 q 5.49862,-5.29498 11.81186,-7.87458 6.38112,-2.64749 14.11993,-2.64749 5.56651,0 9.9111,1.83288 4.3446,1.76499 7.26362,5.09132 2.91902,3.32633 4.41248,7.94246 1.56134,4.61613 1.56134,10.25052 v 42.42768 z m -24.84564,-7.33151 q 2.98691,0 5.49863,-0.61095 2.51171,-0.61096 4.7519,-1.69711 2.24018,-1.15403 4.20882,-2.78326 2.03653,-1.6971 4.00517,-3.73363 V 276.1719 q -7.94246,0.33943 -13.50897,1.35769 -5.56651,0.95038 -9.09649,2.5796 -3.4621,1.62923 -5.02344,3.86941 -1.56134,2.17229 -1.56134,4.88766 0,2.57961 0.81462,4.48037 0.88249,1.83287 2.30806,3.05479 1.42557,1.15403 3.39421,1.76499 1.96865,0.54307 4.20883,0.54307 z"
         style="-inkscape-font-specification:'Carlito Light'"
         id="path798" /><path
         d="m 912.19022,209.50955 v 96.53144 h -11.94764 v -96.53144 z"
         style="-inkscape-font-specification:'Carlito Light'"
         id="path800" /><path
         d="m 958.48732,238.6319 q 5.97382,0 11.06514,1.96865 5.09132,1.96864 8.82495,5.77016 3.73364,3.80152 5.83805,9.30014 2.10441,5.49863 2.10441,12.62648 0,2.78325 -0.61095,3.73363 -0.61096,0.8825 -2.24019,0.8825 h -44.39631 q 0.13577,6.24535 1.69711,10.92937 1.56133,4.61613 4.27671,7.67092 2.78325,3.05479 6.58477,4.61613 3.80152,1.49346 8.48553,1.49346 4.3446,0 7.53516,-0.95038 3.19056,-1.01827 5.43074,-2.24019 2.30807,-1.22191 3.8694,-2.17229 1.56134,-1.01827 2.71538,-1.01827 0.74672,0 1.2898,0.33942 0.54307,0.27154 0.95038,0.81462 l 3.39421,4.34459 q -2.24018,2.64749 -5.29497,4.61613 -2.98691,1.90076 -6.44901,3.19056 -3.4621,1.22192 -7.19573,1.83288 -3.66575,0.61095 -7.26362,0.61095 -6.9242,0 -12.76224,-2.30806 -5.83805,-2.30807 -10.11476,-6.78843 -4.20883,-4.54824 -6.58477,-11.13302 -2.37595,-6.65266 -2.37595,-15.27396 0,-6.9242 2.10441,-12.89801 2.1723,-6.0417 6.17747,-10.45418 4.07305,-4.48036 9.84322,-6.99208 5.83804,-2.51172 13.10166,-2.51172 z m 0.20365,8.68919 q -8.34976,0 -13.23743,4.88767 -4.81978,4.88766 -6.0417,13.3732 h 36.18232 q 0,-4.00517 -1.15403,-7.3315 -1.15404,-3.39422 -3.32633,-5.77017 -2.1723,-2.44383 -5.36286,-3.80152 -3.12268,-1.35768 -7.05997,-1.35768 z"
         style="-inkscape-font-specification:'Carlito Light'"
         id="path802" /><path
         d="m -143.74968,391.9828 q 1.56134,0 2.37595,0.40731 0.81461,0.33942 1.83287,1.69711 l 48.469375,66.73024 q -0.135768,-1.62923 -0.271537,-3.19056 -0.06788,-1.62923 -0.06788,-2.98691 V 391.9828 h 10.861484 v 89.19994 h -6.245353 q -1.42557,0 -2.443834,-0.47519 -0.95038,-0.47519 -1.90076,-1.69711 l -48.469375,-66.52659 q 0.13577,1.56134 0.20365,2.98691 0.0679,1.42557 0.0679,2.71537 v 62.99661 h -10.86149 V 391.9828 h 6.44901 z"
         style="-inkscape-font-specification:'Carlito Light'"
         id="path804" /><path
         d="m -50.069382,414.79192 v 42.2919 q 0,7.46727 3.32633,11.60821 3.394213,4.07306 10.250525,4.07306 5.091321,0 9.435914,-2.37595 4.412478,-2.44383 8.146113,-6.65266 v -48.94456 h 11.9476321 v 66.39082 h -7.1957331 q -1.221917,0 -2.036528,-0.54307 -0.814611,-0.61096 -0.95038,-1.90076 l -1.086148,-7.05997 q -4.27671,4.7519 -9.571683,7.67092 -5.227089,2.85114 -12.151285,2.85114 -5.430742,0 -9.571683,-1.76499 -4.073056,-1.83287 -6.856311,-5.09132 -2.783255,-3.32633 -4.208825,-7.94246 -1.42557,-4.68401 -1.42557,-10.31841 v -42.2919 z"
         style="-inkscape-font-specification:'Carlito Light'"
         id="path806" /><path
         d="m 12.519928,481.18274 v -66.39082 h 7.059964 q 1.357686,0 2.104413,0.61096 0.814611,0.54307 0.950379,1.83287 l 1.018264,6.78843 q 1.90076,-2.24018 3.937288,-4.07306 2.104413,-1.90076 4.480362,-3.25844 2.37595,-1.42557 5.091321,-2.1723 2.715371,-0.74672 5.770163,-0.74672 6.856312,0 11.133021,3.73363 4.344594,3.73364 6.177469,10.04687 1.42557,-3.66575 3.733635,-6.24535 2.37595,-2.5796 5.227089,-4.27671 2.85114,-1.69711 6.109585,-2.44383 3.258445,-0.81461 6.652659,-0.81461 10.861484,0 16.767415,6.51689 5.973815,6.51689 5.973815,18.60029 v 42.2919 H 92.759139 v -42.2919 q 0,-7.73881 -3.529982,-11.6761 -3.529982,-4.00517 -10.114757,-4.00517 -2.986908,0 -5.634395,1.01826 -2.647486,0.95038 -4.684014,2.98691 -1.968644,1.96865 -3.190561,4.88767 -1.154033,2.91902 -1.154033,6.78843 v 42.2919 H 52.503765 v -42.2919 q 0,-7.94246 -3.32633,-11.81187 -3.258445,-3.8694 -9.639566,-3.8694 -4.344594,0 -8.146113,2.30806 -3.80152,2.24019 -6.924196,6.24536 v 49.41975 z"
         style="-inkscape-font-specification:'Carlito Light'"
         id="path808" /><path
         d="m 118.69091,481.18274 z m 31.22677,-67.40908 q 5.97382,0 11.06514,1.96864 5.09132,1.96864 8.82495,5.77016 3.73364,3.80152 5.83805,9.30015 2.10441,5.49862 2.10441,12.62647 0,2.78326 -0.61096,3.73364 -0.61095,0.88249 -2.24018,0.88249 h -44.39631 q 0.13577,6.24536 1.69711,10.92937 1.56133,4.61613 4.2767,7.67092 2.78326,3.0548 6.58478,4.61614 3.80152,1.49345 8.48553,1.49345 4.3446,0 7.53516,-0.95038 3.19056,-1.01826 5.43074,-2.24018 2.30806,-1.22192 3.8694,-2.1723 1.56134,-1.01826 2.71537,-1.01826 0.74673,0 1.28981,0.33942 0.54307,0.27154 0.95038,0.81461 l 3.39421,4.34459 q -2.24018,2.64749 -5.29497,4.61613 -2.98691,1.90076 -6.44901,3.19057 -3.4621,1.22191 -7.19573,1.83287 -3.66575,0.61096 -7.26362,0.61096 -6.9242,0 -12.76224,-2.30807 -5.83805,-2.30806 -10.11476,-6.78842 -4.20883,-4.54825 -6.58478,-11.13302 -2.37595,-6.65266 -2.37595,-15.27397 0,-6.92419 2.10442,-12.89801 2.17229,-6.0417 6.17747,-10.45418 4.07305,-4.48036 9.84322,-6.99208 5.83804,-2.51171 13.10166,-2.51171 z m 0.20365,8.68918 q -8.34976,0 -13.23743,4.88767 -4.81978,4.88767 -6.0417,13.3732 h 36.18232 q 0,-4.00517 -1.15404,-7.3315 -1.15403,-3.39421 -3.32632,-5.77016 -2.1723,-2.44384 -5.36286,-3.80152 -3.12268,-1.35769 -7.05997,-1.35769 z m 16.76742,-36.2502 -15.34185,16.90318 q -0.95038,1.01827 -1.90076,1.42557 -0.88249,0.40731 -2.24018,0.40731 h -7.12785 l 9.70745,-15.81704 q 0.8825,-1.49345 1.96865,-2.17229 1.08615,-0.74673 3.25844,-0.74673 z"
         style="-inkscape-font-specification:'Carlito Light'"
         id="path810" /><path
         d="m 191.66651,481.18274 v -66.39082 h 6.85631 q 1.90076,0 2.64748,0.74673 0.81462,0.74672 0.95038,2.51171 l 0.81462,9.77534 q 3.05479,-6.58477 7.53515,-10.38629 4.48036,-3.80152 10.7936,-3.80152 2.10441,0 3.93729,0.47519 1.83287,0.4073 3.32633,1.42557 l -0.95038,8.82495 q -0.20366,1.69711 -1.90076,1.69711 -0.95038,0 -2.71537,-0.33942 -1.69711,-0.40731 -3.80152,-0.40731 -3.0548,0 -5.43074,0.95038 -2.30807,0.8825 -4.20883,2.71537 -1.83288,1.76499 -3.25844,4.3446 -1.42557,2.5796 -2.64749,5.90593 v 41.95248 z"
         style="-inkscape-font-specification:'Carlito Light'"
         id="path812" /><path
         d="m 238.71033,481.18274 z m 14.45935,-66.39082 v 66.39082 h -11.94763 v -66.39082 z m 2.30806,-20.77259 q 0,1.69711 -0.67884,3.25845 -0.67884,1.49345 -1.90076,2.64748 -1.15403,1.08615 -2.71537,1.76499 -1.49345,0.67885 -3.19056,0.67885 -1.69711,0 -3.19056,-0.67885 -1.49346,-0.67884 -2.64749,-1.76499 -1.08615,-1.15403 -1.76499,-2.64748 -0.67884,-1.56134 -0.67884,-3.25845 0,-1.76499 0.67884,-3.25844 0.67884,-1.56134 1.76499,-2.71537 1.15403,-1.15404 2.64749,-1.83288 1.49345,-0.67884 3.19056,-0.67884 1.69711,0 3.19056,0.67884 1.56134,0.67884 2.71537,1.83288 1.22192,1.15403 1.90076,2.71537 0.67884,1.49345 0.67884,3.25844 z"
         style="-inkscape-font-specification:'Carlito Light'"
         id="path814" /><path
         d="m 326.62046,414.79192 v 88.79263 h -11.94763 v -32.10926 q -4.14094,4.88767 -9.43591,7.80669 -5.29498,2.85114 -12.0834,2.85114 -5.70228,0 -10.31841,-2.1723 -4.61613,-2.24018 -7.87458,-6.51689 -3.25845,-4.27671 -5.02344,-10.58994 -1.76499,-6.38113 -1.76499,-14.66301 0,-7.3315 1.96865,-13.64474 1.96864,-6.38112 5.63439,-10.99725 3.66575,-4.61613 8.96073,-7.26362 5.29497,-2.64748 11.94763,-2.64748 6.449,0 10.86148,2.30806 4.48036,2.24018 7.94246,6.38112 l 0.8825,-5.09132 q 0.47519,-2.44383 3.12267,-2.44383 z m -29.59754,57.76952 q 5.63439,0 9.84322,-2.57961 4.20882,-2.64748 7.80669,-7.3315 v -32.10926 q -3.05479,-4.14094 -6.9242,-5.90593 -3.80152,-1.83288 -8.34976,-1.83288 -9.09649,0 -14.05205,6.58478 -4.88766,6.58477 -4.88766,18.80394 0,6.44901 1.08614,11.06514 1.15404,4.61613 3.25845,7.60304 2.1723,2.91902 5.22709,4.34459 3.12268,1.35769 6.99208,1.35769 z"
         style="-inkscape-font-specification:'Carlito Light'"
         id="path816" /><path
         d="m 356.62529,414.79192 v 42.2919 q 0,7.46727 3.32633,11.60821 3.39421,4.07306 10.25052,4.07306 5.09133,0 9.43592,-2.37595 4.41248,-2.44383 8.14611,-6.65266 v -48.94456 h 11.94763 v 66.39082 h -7.19573 q -1.22192,0 -2.03653,-0.54307 -0.81461,-0.61096 -0.95038,-1.90076 l -1.08615,-7.05997 q -4.2767,4.7519 -9.57168,7.67092 -5.22709,2.85114 -12.15128,2.85114 -5.43075,0 -9.57169,-1.76499 -4.07305,-1.83287 -6.85631,-5.09132 -2.78325,-3.32633 -4.20882,-7.94246 -1.42557,-4.68401 -1.42557,-10.31841 v -42.2919 z"
         style="-inkscape-font-specification:'Carlito Light'"
         id="path818" /><path
         d="m 445.55373,413.77366 q 5.97381,0 11.06513,1.96864 5.09133,1.96864 8.82496,5.77016 3.73364,3.80152 5.83805,9.30015 2.10441,5.49862 2.10441,12.62647 0,2.78326 -0.61096,3.73364 -0.61096,0.88249 -2.24018,0.88249 h -44.39631 q 0.13576,6.24536 1.6971,10.92937 1.56134,4.61613 4.27671,7.67092 2.78326,3.0548 6.58478,4.61614 3.80152,1.49345 8.48553,1.49345 4.34459,0 7.53515,-0.95038 3.19057,-1.01826 5.43075,-2.24018 2.30806,-1.22192 3.8694,-2.1723 1.56134,-1.01826 2.71537,-1.01826 0.74673,0 1.2898,0.33942 0.54308,0.27154 0.95038,0.81461 l 3.39422,4.34459 q -2.24018,2.64749 -5.29498,4.61613 -2.98691,1.90076 -6.449,3.19057 -3.4621,1.22191 -7.19574,1.83287 -3.66575,0.61096 -7.26361,0.61096 -6.9242,0 -12.76225,-2.30807 -5.83804,-2.30806 -10.11475,-6.78842 -4.20883,-4.54825 -6.58478,-11.13302 -2.37595,-6.65266 -2.37595,-15.27397 0,-6.92419 2.10441,-12.89801 2.1723,-6.0417 6.17747,-10.45418 4.07306,-4.48036 9.84322,-6.99208 5.83805,-2.51171 13.10167,-2.51171 z m 0.20365,8.68918 q -8.34976,0 -13.23743,4.88767 -4.81979,4.88767 -6.0417,13.3732 h 36.18231 q 0,-4.00517 -1.15403,-7.3315 -1.15403,-3.39421 -3.32633,-5.77016 -2.17229,-2.44384 -5.36285,-3.80152 -3.12268,-1.35769 -7.05997,-1.35769 z"
         style="-inkscape-font-specification:'Carlito Light'"
         id="path820" /></g><path
       d="m 116.14309,161.40791 q 0,4.64919 -1.46483,8.56597 -1.46482,3.88493 -4.17155,6.68719 -2.67488,2.80225 -6.46429,4.36259 -3.7894,1.56034 -8.406706,1.56034 h -15.41237 v -42.2885 h 15.41237 q 4.617306,0 8.406706,1.56035 3.78941,1.56034 6.46429,4.36259 2.70673,2.80225 4.17155,6.68719 1.46483,3.88494 1.46483,8.50228 z m -8.50231,0 q 0,-3.37544 -0.82792,-6.05031 -0.82796,-2.67488 -2.38829,-4.55366 -1.52849,-1.87878 -3.75757,-2.86594 -2.229066,-1.019 -5.031286,-1.019 h -7.00566 v 29.00966 h 7.00566 q 2.80222,0 5.031286,-0.98716 2.22908,-0.98715 3.75757,-2.86594 1.56033,-1.87877 2.38829,-4.55365 0.82792,-2.70672 0.82792,-6.114 z"
       style="-inkscape-font-specification:'Carlito Bold';fill:#ffffff;stroke-width:0.922871"
       id="path823" /><path
       d="m 156.36173,178.508 q -3.18437,2.38829 -6.78273,3.47097 -3.59835,1.05085 -7.64251,1.05085 -5.12685,0 -9.29835,-1.59219 -4.13972,-1.62403 -7.10115,-4.48997 -2.96149,-2.89778 -4.58554,-6.84641 -1.59216,-3.98046 -1.59216,-8.69334 0,-4.74472 1.5285,-8.69334 1.52849,-3.98047 4.3626,-6.84641 2.86593,-2.86594 6.87822,-4.45813 4.04417,-1.59218 9.0118,-1.59218 2.57933,0 4.80841,0.41397 2.22907,0.41396 4.13967,1.14637 1.91064,0.73241 3.47096,1.75141 1.59221,1.019 2.86594,2.26091 l -2.38829,3.75756 q -0.54131,0.89162 -1.46478,1.11453 -0.89162,0.19106 -1.94247,-0.44581 -0.98718,-0.60504 -1.97431,-1.11454 -0.98718,-0.54134 -2.13352,-0.92346 -1.11457,-0.41398 -2.48384,-0.63688 -1.36928,-0.22291 -3.15254,-0.22291 -2.99327,0 -5.38156,1.05085 -2.38829,1.019 -4.076,2.89778 -1.68771,1.87878 -2.61122,4.5855 -0.89158,2.67487 -0.89158,5.95478 0,3.5665 0.98713,6.36875 0.98717,2.80225 2.77038,4.74472 1.8151,1.91062 4.3626,2.92962 2.54751,0.98716 5.66821,0.98716 2.10169,0 3.75757,-0.41397 1.68771,-0.44581 3.31175,-1.21006 v -7.38775 h -4.87213 q -0.76424,0 -1.24189,-0.44581 -0.44582,-0.44582 -0.44582,-1.08269 V 161.185 h 14.13865 z"
       style="-inkscape-font-specification:'Carlito Bold';fill:#ffffff;stroke-width:0.922871"
       id="path825" /><path
       d="m 167.47521,140.2955 q 0.54132,0 0.92347,0.0637 0.3821,0.0318 0.66869,0.19106 0.31844,0.12738 0.5732,0.38213 0.2866,0.25475 0.63687,0.66872 l 20.82581,27.44931 q -0.19105,-2.10169 -0.19105,-3.98047 v -24.77444 h 7.35587 v 42.2885 h -4.29888 q -0.98718,0 -1.65588,-0.31844 -0.63686,-0.35028 -1.27373,-1.11453 l -20.76214,-27.29009 q 0.19105,1.97431 0.19105,3.66203 v 25.06103 h -7.38776 v -42.2885 z"
       style="-inkscape-font-specification:'Carlito Bold';stroke-width:0.922871"
       id="path827" /><path
       d="m 223.07439,177.9985 q 2.51567,0 4.48998,-0.85978 2.00614,-0.89162 3.37542,-2.45197 1.36928,-1.59218 2.06986,-3.75756 0.73241,-2.16537 0.73241,-4.77656 v -25.41131 h 5.79554 v 25.41131 q 0,3.63018 -1.14639,6.71903 -1.14635,3.08884 -3.27987,5.34975 -2.10169,2.2609 -5.15873,3.5665 -3.05699,1.27375 -6.87822,1.27375 -3.82124,0 -6.87827,-1.27375 -3.02516,-1.3056 -5.15868,-3.5665 -2.13353,-2.26091 -3.27992,-5.34975 -1.14635,-3.08885 -1.14635,-6.71903 v -25.41131 h 5.79554 v 25.37947 q 0,2.61118 0.70058,4.8084 0.73242,2.16538 2.1017,3.75756 1.36927,1.56035 3.34358,2.45197 2.00614,0.85978 4.52182,0.85978 z"
       style="-inkscape-font-specification:Carlito;stroke-width:0.922871"
       id="path829" /><path
       d="m 270.58523,167.33085 q 0.41398,0.7324 0.73241,1.49665 0.35031,0.76425 0.66875,1.56034 0.31843,-0.82793 0.63686,-1.59218 0.35027,-0.76425 0.73241,-1.46481 l 14.77551,-25.63422 q 0.3821,-0.66872 0.82791,-0.7961 0.44582,-0.15921 1.21007,-0.15921 h 4.26705 V 182.584 h -5.12685 v -30.53816 q 0,-0.63687 0.032,-1.40112 0.0637,-0.79609 0.12738,-1.59219 l -14.93472,26.23925 q -0.73242,1.3056 -2.10169,1.3056 h -0.82797 q -1.36927,0 -2.10169,-1.3056 l -15.28498,-26.2074 q 0.19104,1.59219 0.19104,2.96146 V 182.584 h -5.09496 v -41.84268 h 4.26705 q 0.76425,0 1.17823,0.15921 0.44581,0.12738 0.85975,0.82794 l 14.96655,25.60238 z"
       style="-inkscape-font-specification:Carlito;stroke-width:0.922871"
       id="path831" /></g></svg>
