<?xml version="1.0" encoding="UTF-8" standalone="no"?>
<svg
   version="1.1"
   id="Calque_1"
   x="0"
   y="0"
   width="113"
   height="98"
   viewBox="0 0 635 572"
   xml:space="preserve"
   sodipodi:docname="republique-francaise-logo.svg"
   inkscape:version="1.2.1 (9c6d41e410, 2022-07-14)"
   xmlns:inkscape="http://www.inkscape.org/namespaces/inkscape"
   xmlns:sodipodi="http://sodipodi.sourceforge.net/DTD/sodipodi-0.dtd"
   xmlns="http://www.w3.org/2000/svg"
   xmlns:svg="http://www.w3.org/2000/svg"><defs
     id="defs5373" /><sodipodi:namedview
     id="namedview5371"
     pagecolor="#ffffff"
     bordercolor="#666666"
     borderopacity="1.0"
     inkscape:showpageshadow="2"
     inkscape:pageopacity="0.0"
     inkscape:pagecheckerboard="0"
     inkscape:deskcolor="#d1d1d1"
     showgrid="false"
     showguides="true"
     inkscape:zoom="5.8733155"
     inkscape:cx="27.326984"
     inkscape:cy="48.609682"
     inkscape:window-width="1920"
     inkscape:window-height="1001"
     inkscape:window-x="-9"
     inkscape:window-y="-9"
     inkscape:window-maximized="1"
     inkscape:current-layer="text4325-7-8-6-7-3-6"><sodipodi:guide
       position="315.7373,564.04983"
       orientation="0,-1"
       id="guide5994"
       inkscape:locked="false" /><sodipodi:guide
       position="22.005933,493.49204"
       orientation="1,0"
       id="guide5996"
       inkscape:locked="false" /><sodipodi:guide
       position="109.55128,7.5376785"
       orientation="0,-1"
       id="guide5998"
       inkscape:locked="false" /><sodipodi:guide
       position="615.68773,347.4076"
       orientation="1,0"
       id="guide6000"
       inkscape:locked="false" /></sodipodi:namedview><style
     id="style5350">.st0{fill:#1f356c}</style><g
     id="g5629"
     transform="matrix(0.24870091,0,0,0.24870091,377.58996,300.51139)"><g
       id="g6866"
       transform="translate(-7.2859273,16.137687)"><g
         id="g4026-0-6"
         transform="matrix(4.1958288,0,0,4.1958288,-11066.119,770.11429)"><g
           id="g5762-0-7-2-5-3-7"
           transform="translate(341.65802,-1227.5096)"><path
             style="opacity:1;fill:#000000;fill-opacity:1;stroke:none;stroke-width:36.8112;stroke-dasharray:36.8112, 36.8112;stop-color:#000000"
             id="path15082-0-7-1-4-8-4"
             transform="matrix(-0.13997337,-0.99015527,0.9913098,-0.13154798,0,0)"
             d="m -1228.1049,1792.0285 a 153.87494,155.69708 0 0 1 74.9878,203.6158 153.87494,155.69708 0 0 1 -199.2052,81.1693 153.87494,155.69708 0 0 1 -85.3961,-199.3748" /><g
             id="g17548-0-7-0-0-48-3"
             style="fill:none;fill-opacity:1;stroke:#ffffff;stroke-opacity:1"><path
               style="fill:none;fill-opacity:1;stroke:#ffffff;stroke-width:2.21555px;stroke-linecap:butt;stroke-linejoin:miter;stroke-opacity:1"
               d="m 2179.0586,980.41016 68.1567,34.64154 -33.1573,33.3093 z"
               id="path16488-9-4-0-4-5-0" /><path
               style="fill:none;fill-opacity:1;stroke:#ffffff;stroke-width:1.90178px;stroke-linecap:butt;stroke-linejoin:miter;stroke-opacity:1"
               d="m 2178.7295,980.09664 13.4477,-69.92761"
               id="path16492-7-1-8-8-0-1" /><path
               style="fill:none;fill-opacity:1;stroke:#ffffff;stroke-width:1.90178px;stroke-linecap:butt;stroke-linejoin:miter;stroke-opacity:1"
               d="m 2248.6571,1052.7138 -34.5991,-4.3528 17.1173,59.488"
               id="path16687-6-3-9-4-5-5" /></g><path
             style="fill:none;stroke:#ffffff;stroke-width:1.90178px;stroke-linecap:butt;stroke-linejoin:miter;stroke-opacity:1"
             d="m 2178.7295,980.09664 -44.3771,54.79906 79.7056,13.4653 -113.997,39.989 131.1143,19.499 -120.6924,27.5676 36.3085,36.3086 -84.4267,4.8658"
             id="path1783-8-7-1-5-0-9" /><path
             style="fill:none;stroke:#ffffff;stroke-width:1.90178px;stroke-linecap:butt;stroke-linejoin:miter;stroke-opacity:1"
             d="m 2178.7295,980.09664 -82.7028,-3.69809 96.1505,-66.22952 -105.2277,-36.98095 9.7495,102.2019 37.6534,59.50572 -34.2914,53.4543 -54.4629,-29.921 88.7543,-23.5333"
             id="path1818-1-8-4-5-0-4" /><path
             style="fill:none;stroke:#ffffff;stroke-width:1.90178px;stroke-linecap:butt;stroke-linejoin:miter;stroke-opacity:1"
             d="M 2110.4829,1135.4166 2100.061,1088.35"
             id="path1853-9-6-6-2-3-7" /><path
             style="fill:none;stroke:#ffffff;stroke-width:1.90178px;stroke-linecap:butt;stroke-linejoin:miter;stroke-opacity:1"
             d="m 2062.3647,1176.591 48.1182,-41.1744 -73.2896,-4.0343 62.8677,-43.0323"
             id="path1890-4-3-6-6-4-0" /><path
             style="fill:none;stroke:#ffffff;stroke-width:1.90178px;stroke-linecap:butt;stroke-linejoin:miter;stroke-opacity:1"
             d="m 2045.5981,1058.429 50.4286,-82.03045 -79.341,-23.86953 70.2638,-79.34094"
             id="path1925-8-5-7-9-1-1" /><path
             style="fill:none;stroke:#ffffff;stroke-width:1.90178px;stroke-linecap:butt;stroke-linejoin:miter;stroke-opacity:1"
             d="m 2016.6857,952.52902 28.9124,105.89998 -8.4048,72.9533"
             id="path1960-9-8-7-6-5-5" /><path
             style="fill:none;stroke:#ffffff;stroke-width:1.90178px;stroke-linecap:butt;stroke-linejoin:miter;stroke-opacity:1"
             d="m 2016.6857,952.52902 -42.0238,-22.18856 -13.4476,72.61714 z"
             id="path1995-3-1-8-2-1-2" /><path
             style="fill:none;stroke:#ffffff;stroke-width:1.90178px;stroke-linecap:butt;stroke-linejoin:miter;stroke-opacity:1"
             d="m 2045.5981,1058.429 -44.0409,11.7667 2.6895,-39.3343 z"
             id="path2030-4-6-3-5-9-3" /><path
             style="fill:none;stroke:#ffffff;stroke-width:1.90178px;stroke-linecap:butt;stroke-linejoin:miter;stroke-opacity:1"
             d="m 2004.2467,1030.8614 12.439,-78.33238"
             id="path2065-4-7-6-0-4-4" /></g></g><g
         aria-label="DGNUM"
         transform="matrix(4.1958288,0,0,4.1958288,-10649.717,-1221.0577)"
         id="text4325-7-8-6-7-3-6"
         style="font-size:134.392px;line-height:1.15;white-space:pre;inline-size:492.011;stroke-width:1.90178"><path
           d="m 2406.453,273.19883 q 0,9.58068 -3.0186,17.65207 -3.0186,8.00577 -8.5964,13.78043 -5.5122,5.77466 -13.3211,8.99009 -7.8089,3.21543 -17.3239,3.21543 h -31.7606 v -87.14481 h 31.7606 q 9.515,0 17.3239,3.21544 7.8089,3.21543 13.3211,8.99008 5.5778,5.77466 8.5964,13.78043 3.0186,8.00578 3.0186,17.52084 z m -17.5209,0 q 0,-6.95584 -1.7061,-12.46801 -1.7062,-5.51217 -4.9216,-9.38382 -3.1498,-3.87164 -7.7433,-5.9059 -4.5935,-2.09987 -10.3681,-2.09987 h -14.4367 v 59.78081 h 14.4367 q 5.7746,0 10.3681,-2.03425 4.5935,-2.03425 7.7433,-5.9059 3.2154,-3.87164 4.9216,-9.38381 1.7061,-5.5778 1.7061,-12.59925 z"
           style="font-weight:bold;font-family:Carlito;-inkscape-font-specification:'Carlito Bold';fill:#ffffff"
           id="path823" /><path
           d="m 2489.3324,308.43735 q -6.5621,4.92159 -13.9773,7.1527 -7.4152,2.1655 -15.7491,2.1655 -10.565,0 -19.1613,-3.28106 -8.5308,-3.34667 -14.6335,-9.25257 -6.1028,-5.97152 -9.4495,-14.10854 -3.281,-8.20263 -3.281,-17.91455 0,-9.77755 3.1498,-17.91456 3.1498,-8.20264 8.9901,-14.10854 5.9059,-5.9059 14.1741,-9.18695 8.3339,-3.28105 18.5708,-3.28105 5.3153,0 9.9088,0.85307 4.5935,0.85307 8.5307,2.36236 3.9373,1.50928 7.1527,3.60916 3.2811,2.09987 5.9059,4.6591 l -4.9216,7.74329 q -1.1155,1.83739 -3.0185,2.29673 -1.8374,0.39373 -4.0029,-0.91869 -2.0343,-1.2468 -4.0685,-2.29674 -2.0343,-1.11556 -4.3966,-1.90301 -2.2968,-0.85308 -5.1185,-1.31242 -2.8217,-0.45935 -6.4965,-0.45935 -6.1683,0 -11.0899,2.1655 -4.9216,2.09987 -8.3995,5.97151 -3.4779,3.87165 -5.381,9.44944 -1.8373,5.51217 -1.8373,12.27115 0,7.34956 2.0342,13.12421 2.0343,5.77466 5.709,9.77755 3.7404,3.93726 8.9901,6.03714 5.2497,2.03425 11.6806,2.03425 4.331,0 7.7433,-0.85307 3.4779,-0.9187 6.8246,-2.4936 v -15.2241 h -10.0401 q -1.5749,0 -2.5592,-0.91869 -0.9187,-0.9187 -0.9187,-2.23112 v -9.71192 h 29.1358 v 35.69787 z"
           style="font-weight:bold;font-family:Carlito;-inkscape-font-specification:'Carlito Bold';fill:#ffffff"
           id="path825" /><path
           d="m 2512.2342,229.69204 q 1.1155,0 1.903,0.13124 0.7874,0.0656 1.378,0.39373 0.6562,0.26248 1.1812,0.78745 0.5906,0.52497 1.3124,1.37805 l 42.9162,56.56538 q -0.3937,-4.33099 -0.3937,-8.20264 v -51.05321 h 15.1584 v 87.14481 h -8.8588 q -2.0343,0 -3.4123,-0.65621 -1.3124,-0.72183 -2.6248,-2.29674 l -42.785,-56.23727 q 0.3937,4.0685 0.3937,7.54642 v 51.6438 h -15.2241 v -87.14481 h 9.0558 z"
           style="font-weight:bold;font-family:Carlito;-inkscape-font-specification:'Carlito Bold'"
           id="path827" /><path
           d="m 2626.8086,307.38742 q 5.1841,0 9.2526,-1.77177 4.1341,-1.83739 6.9558,-5.05283 2.8217,-3.28105 4.2654,-7.74329 1.5093,-4.46223 1.5093,-9.84316 v -52.36563 h 11.943 v 52.36563 q 0,7.4808 -2.3624,13.84605 -2.3623,6.36525 -6.7589,11.02434 -4.331,4.6591 -10.6307,7.34957 -6.2996,2.62484 -14.1741,2.62484 -7.8745,0 -14.1742,-2.62484 -6.234,-2.69047 -10.6306,-7.34957 -4.3966,-4.65909 -6.759,-11.02434 -2.3623,-6.36525 -2.3623,-13.84605 v -52.36563 h 11.943 v 52.30001 q 0,5.38093 1.4437,9.90878 1.5093,4.46224 4.331,7.74329 2.8217,3.21544 6.8902,5.05283 4.1341,1.77177 9.3182,1.77177 z"
           style="font-family:Carlito;-inkscape-font-specification:Carlito"
           id="path829" /><path
           d="m 2724.7152,285.40435 q 0.8531,1.50928 1.5093,3.08419 0.7219,1.57491 1.3781,3.21543 0.6562,-1.70614 1.3124,-3.28105 0.7218,-1.57491 1.5093,-3.01857 l 30.4482,-52.82498 q 0.7874,-1.37804 1.7061,-1.64053 0.9187,-0.3281 2.4936,-0.3281 h 8.7932 v 86.22611 h -10.565 v -62.93063 q 0,-1.31242 0.066,-2.88732 0.1312,-1.64053 0.2625,-3.28106 l -30.7763,54.07178 q -1.5093,2.69047 -4.331,2.69047 h -1.7062 q -2.8217,0 -4.331,-2.69047 l -31.4981,-54.00616 q 0.3937,3.28106 0.3937,6.10276 v 62.93063 h -10.4993 v -86.22611 h 8.7932 q 1.5749,0 2.428,0.3281 0.9187,0.26249 1.7717,1.70615 l 30.8419,52.75936 z"
           style="font-family:Carlito;-inkscape-font-specification:Carlito"
           id="path831" /></g><g
         aria-label="Délégation GénéraleNumérique"
         id="text13534"
         style="font-size:139.027px;line-height:1.25;stroke-width:5.21353"><path
           d="m -79.327505,261.44102 q 0,10.04687 -2.986908,18.26087 -2.919024,8.21399 -8.281882,14.11993 -5.294973,5.83804 -12.830125,9.0286 -7.46727,3.19057 -16.56377,3.19057 h -30.81946 v -89.19994 h 30.81946 q 9.0965,0 16.56377,3.25844 7.535152,3.19057 12.830125,9.02861 5.362858,5.83805 8.281882,14.11993 2.986908,8.214 2.986908,18.19299 z m -12.694359,0 q 0,-8.14612 -1.968644,-14.52724 -1.968644,-6.449 -5.634395,-10.92937 -3.665747,-4.48036 -8.824957,-6.78842 -5.1592,-2.37595 -11.54033,-2.37595 h -18.39663 V 296.062 h 18.39663 q 6.38113,0 11.54033,-2.30807 5.15921,-2.37595 8.824957,-6.78843 3.665751,-4.48036 5.634395,-10.92936 1.968644,-6.44901 1.968644,-14.59512 z"
           style="font-weight:300;font-family:Carlito;-inkscape-font-specification:'Carlito Light'"
           id="path770" /><path
           d="m -69.620052,306.04099 z m 31.226766,-67.40909 q 5.973816,0 11.065137,1.96865 5.09132,1.96864 8.824955,5.77016 3.733635,3.80152 5.838048,9.30014 2.104412,5.49863 2.104412,12.62648 0,2.78325 -0.610958,3.73363 -0.610959,0.8825 -2.240181,0.8825 h -44.396315 q 0.135768,6.24535 1.697107,10.92937 1.561338,4.61613 4.276709,7.67092 2.783255,3.05479 6.584774,4.61613 3.80152,1.49346 8.485535,1.49346 4.344593,0 7.535154,-0.95038 3.190561,-1.01827 5.430742,-2.24019 2.308065,-1.22191 3.869404,-2.17229 1.561338,-1.01827 2.715371,-1.01827 0.746727,0 1.289801,0.33942 0.543074,0.27154 0.95038,0.81462 l 3.394213,4.34459 q -2.240181,2.64749 -5.294973,4.61613 -2.986908,1.90076 -6.449006,3.19056 -3.462098,1.22192 -7.195733,1.83288 -3.665751,0.61095 -7.263617,0.61095 -6.924196,0 -12.762244,-2.30806 -5.838047,-2.30807 -10.114757,-6.78843 -4.208825,-4.54824 -6.584774,-11.13302 -2.37595,-6.65266 -2.37595,-15.27396 0,-6.9242 2.104413,-12.89801 2.172296,-6.0417 6.177469,-10.45418 4.073056,-4.48036 9.843219,-6.99208 5.838048,-2.51172 13.101665,-2.51172 z m 0.203653,8.68919 q -8.349766,0 -13.237433,4.88767 -4.819784,4.88766 -6.041701,13.3732 h 36.182318 q 0,-4.00517 -1.154033,-7.3315 -1.154032,-3.39422 -3.326329,-5.77017 -2.172297,-2.44383 -5.362858,-3.80152 -3.122676,-1.35768 -7.059964,-1.35768 z m 16.767416,-36.2502 -15.341846,16.90318 q -0.95038,1.01826 -1.90076,1.42557 -0.882496,0.40731 -2.240181,0.40731 h -7.127849 l 9.707451,-15.81704 q 0.882496,-1.49345 1.968644,-2.1723 1.086149,-0.74672 3.258445,-0.74672 z"
           style="font-weight:300;font-family:Carlito;-inkscape-font-specification:'Carlito Light'"
           id="path772" /><path
           d="m 16.389313,209.50955 v 96.53144 H 4.4416805 v -96.53144 z"
           style="font-weight:300;font-family:Carlito;-inkscape-font-specification:'Carlito Light'"
           id="path774" /><path
           d="M 31.459622,306.04099 Z M 62.686388,238.6319 q 5.973816,0 11.065137,1.96865 5.09132,1.96864 8.824955,5.77016 3.733635,3.80152 5.838048,9.30014 2.104412,5.49863 2.104412,12.62648 0,2.78325 -0.610958,3.73363 -0.610959,0.8825 -2.240181,0.8825 H 43.271486 q 0.135768,6.24535 1.697106,10.92937 1.561339,4.61613 4.27671,7.67092 2.783255,3.05479 6.584774,4.61613 3.80152,1.49346 8.485534,1.49346 4.344594,0 7.535155,-0.95038 3.190561,-1.01827 5.430742,-2.24019 2.308065,-1.22191 3.869403,-2.17229 1.561339,-1.01827 2.715371,-1.01827 0.746727,0 1.289802,0.33942 0.543074,0.27154 0.950379,0.81462 l 3.394214,4.34459 q -2.240181,2.64749 -5.294973,4.61613 -2.986908,1.90076 -6.449006,3.19056 -3.462098,1.22192 -7.195733,1.83288 -3.665751,0.61095 -7.263618,0.61095 -6.924196,0 -12.762243,-2.30806 -5.838048,-2.30807 -10.114757,-6.78843 -4.208825,-4.54824 -6.584774,-11.13302 -2.37595,-6.65266 -2.37595,-15.27396 0,-6.9242 2.104412,-12.89801 2.172297,-6.0417 6.177469,-10.45418 4.073057,-4.48036 9.84322,-6.99208 5.838048,-2.51172 13.101665,-2.51172 z m 0.203653,8.68919 q -8.349766,0 -13.237434,4.88767 -4.819783,4.88766 -6.0417,13.3732 h 36.182318 q 0,-4.00517 -1.154033,-7.3315 -1.154032,-3.39422 -3.326329,-5.77017 -2.172297,-2.44383 -5.362858,-3.80152 -3.122676,-1.35768 -7.059964,-1.35768 z m 16.767415,-36.2502 -15.341846,16.90318 q -0.950379,1.01826 -1.900759,1.42557 -0.882496,0.40731 -2.240181,0.40731 h -7.127849 l 9.707451,-15.81704 q 0.882496,-1.49345 1.968644,-2.1723 1.086148,-0.74672 3.258445,-0.74672 z"
           style="font-weight:300;font-family:Carlito;-inkscape-font-specification:'Carlito Light'"
           id="path776" /><path
           d="m 126.90491,238.56402 q 4.14094,0 7.73881,0.95038 3.59786,0.95038 6.51689,2.71537 h 17.37837 v 4.41248 q 0,2.37595 -2.71537,2.78325 l -7.05997,1.01826 q 2.10442,4.3446 2.10442,9.5038 0,4.88767 -1.83288,8.82496 -1.76499,3.93729 -4.95555,6.72054 -3.19056,2.78326 -7.60304,4.3446 -4.34459,1.49345 -9.57168,1.49345 -4.3446,0 -8.01035,-1.01826 -1.96864,1.2898 -2.91902,2.78325 -0.95038,1.42557 -0.95038,2.85114 0,2.37595 1.83288,3.52998 1.83287,1.15403 4.81978,1.69711 2.98691,0.54307 6.78843,0.67884 3.80152,0.13577 7.7388,0.47519 4.00518,0.27154 7.8067,0.95038 3.80151,0.67884 6.78842,2.37595 2.98691,1.62922 4.81979,4.54825 1.83287,2.85114 1.83287,7.46727 0,4.27671 -2.03653,8.28188 -2.03653,4.00517 -5.90593,7.12785 -3.80152,3.12267 -9.36803,4.95555 -5.49862,1.90076 -12.4907,1.90076 -6.99209,0 -12.21917,-1.42557 -5.22709,-1.42557 -8.68919,-3.8694 -3.4621,-2.44384 -5.15921,-5.6344 -1.697103,-3.19056 -1.697103,-6.65266 0,-4.88767 2.851143,-8.28188 2.91902,-3.39421 8.01034,-5.36286 -2.78325,-1.2898 -4.41248,-3.52998 -1.62922,-2.24018 -1.62922,-5.97381 0,-2.85114 2.03653,-6.04171 2.03653,-3.19056 6.10958,-5.29497 -4.68401,-2.78325 -7.39938,-7.3315 -2.64749,-4.54825 -2.64749,-10.58995 0,-4.88766 1.76499,-8.82495 1.83288,-3.93729 5.02344,-6.72055 3.19056,-2.85114 7.60304,-4.34459 4.41247,-1.49345 9.70745,-1.49345 z m 19.55067,71.07483 q 0,-2.37595 -1.2898,-3.8694 -1.22192,-1.49346 -3.39422,-2.30807 -2.17229,-0.88249 -5.02343,-1.22191 -2.85114,-0.40731 -6.0417,-0.61096 -3.19056,-0.20366 -6.51689,-0.33942 -3.25845,-0.13577 -6.31324,-0.61096 -3.32633,1.76499 -5.43074,4.27671 -2.10441,2.44383 -2.10441,5.90593 0,2.24018 1.01826,4.14094 1.01826,1.90076 3.12268,3.25844 2.17229,1.42557 5.49862,2.24019 3.32633,0.81461 7.87458,0.81461 4.48036,0 7.94246,-0.8825 3.4621,-0.88249 5.83805,-2.44383 2.37595,-1.49346 3.59786,-3.66575 1.22192,-2.10442 1.22192,-4.68402 z m -19.55067,-36.18232 q 6.58477,0 9.9111,-3.66575 3.39422,-3.66575 3.39422,-9.57168 0,-6.0417 -3.39422,-9.57168 -3.32633,-3.59787 -9.9111,-3.59787 -6.44901,0 -9.84322,3.59787 -3.32633,3.52998 -3.32633,9.57168 0,2.91902 0.81461,5.36286 0.8825,2.37595 2.51172,4.14094 1.69711,1.76499 4.14094,2.78325 2.51172,0.95038 5.70228,0.95038 z"
           style="font-weight:300;font-family:Carlito;-inkscape-font-specification:'Carlito Light'"
           id="path778" /><path
           d="m 211.14929,306.04099 q -1.76499,0 -2.71537,-0.54308 -0.95038,-0.54307 -1.2898,-2.24018 l -1.49345,-6.17747 q -2.5796,2.37595 -5.09132,4.27671 -2.44384,1.83288 -5.15921,3.12268 -2.71537,1.2898 -5.83804,1.90076 -3.12268,0.67884 -6.85632,0.67884 -3.8694,0 -7.26361,-1.01826 -3.32633,-1.08615 -5.90594,-3.25845 -2.51171,-2.24018 -4.00517,-5.49863 -1.42557,-3.32633 -1.42557,-7.80669 0,-3.93729 2.10441,-7.53515 2.1723,-3.66575 6.99209,-6.51689 4.81978,-2.85114 12.55859,-4.61613 7.7388,-1.83288 19.00759,-2.10442 v -5.09132 q 0,-7.7388 -3.32633,-11.60821 -3.25844,-3.93728 -9.57168,-3.93728 -4.20882,0 -7.12785,1.08614 -2.85114,1.08615 -4.95555,2.37595 -2.10441,1.2898 -3.66575,2.37595 -1.49346,1.08615 -3.05479,1.08615 -1.22192,0 -2.10442,-0.61096 -0.88249,-0.61096 -1.42557,-1.56134 l -2.17229,-3.80151 q 5.49862,-5.29498 11.81186,-7.87458 6.38112,-2.64749 14.11993,-2.64749 5.56651,0 9.9111,1.83288 4.3446,1.76499 7.26362,5.09132 2.91903,3.32633 4.41248,7.94246 1.56134,4.61613 1.56134,10.25052 v 42.42768 z m -24.84564,-7.33151 q 2.98691,0 5.49863,-0.61095 2.51171,-0.61096 4.7519,-1.69711 2.24018,-1.15403 4.20882,-2.78326 2.03653,-1.6971 4.00517,-3.73363 V 276.1719 q -7.94246,0.33943 -13.50897,1.35769 -5.56651,0.95038 -9.09649,2.5796 -3.4621,1.62923 -5.02344,3.86941 -1.56134,2.17229 -1.56134,4.88766 0,2.57961 0.81462,4.48037 0.88249,1.83287 2.30806,3.05479 1.42557,1.15403 3.39422,1.76499 1.96864,0.54307 4.20882,0.54307 z"
           style="font-weight:300;font-family:Carlito;-inkscape-font-specification:'Carlito Light'"
           id="path780" /><path
           d="m 225.8802,306.04099 z m 65.30467,-65.16891 v 65.16891 h -11.94763 v -56.47972 h -31.56619 v 39.64442 q 0,4.07305 1.76499,6.10958 1.83288,2.03653 4.7519,2.03653 1.69711,0 2.85114,-0.47519 1.22192,-0.47519 2.03653,-1.08615 0.88249,-0.61096 1.49345,-1.08615 0.61096,-0.47519 1.15403,-0.47519 0.61096,0 0.95038,0.27154 0.40731,0.27154 0.74673,0.88249 l 3.52998,5.70228 q -2.9869,2.85114 -7.05996,4.41248 -4.07306,1.56134 -8.48554,1.56134 -7.53515,0 -11.60821,-4.41248 -4.07305,-4.41248 -4.07305,-12.62647 v -40.45903 h -7.3315 q -1.08615,0 -1.83288,-0.67884 -0.67884,-0.67885 -0.67884,-1.96865 v -4.7519 l 10.25052,-1.35768 2.71537,-20.43317 q 0.20366,-1.01826 0.8825,-1.62922 0.67884,-0.61096 1.83288,-0.61096 h 6.10958 v 22.74123 z m 2.5796,-22.46969 q 0,1.6971 -0.67884,3.25844 -0.67884,1.49346 -1.90076,2.64749 -1.15403,1.08615 -2.71537,1.76499 -1.49346,0.67884 -3.19056,0.67884 -1.69711,0 -3.19056,-0.67884 -1.49346,-0.67884 -2.64749,-1.76499 -1.08615,-1.15403 -1.76499,-2.64749 -0.67884,-1.56134 -0.67884,-3.25844 0,-1.76499 0.67884,-3.25845 0.67884,-1.56134 1.76499,-2.71537 1.15403,-1.15403 2.64749,-1.83287 1.49345,-0.67885 3.19056,-0.67885 1.6971,0 3.19056,0.67885 1.56134,0.67884 2.71537,1.83287 1.22192,1.15403 1.90076,2.71537 0.67884,1.49346 0.67884,3.25845 z"
           style="font-weight:300;font-family:Carlito;-inkscape-font-specification:'Carlito Light'"
           id="path782" /><path
           d="m 337.88923,238.6319 q 7.26361,0 13.10166,2.44384 5.83805,2.37594 9.9111,6.85631 4.07306,4.41247 6.24536,10.72571 2.24018,6.31324 2.24018,14.11993 0,7.87458 -2.24018,14.18781 -2.1723,6.31324 -6.24536,10.7936 -4.07305,4.41248 -9.9111,6.85632 -5.83805,2.37594 -13.10166,2.37594 -7.26362,0 -13.16955,-2.37594 -5.83805,-2.44384 -9.97899,-6.85632 -4.07306,-4.48036 -6.31324,-10.7936 -2.1723,-6.31323 -2.1723,-14.18781 0,-7.80669 2.1723,-14.11993 2.24018,-6.31324 6.31324,-10.72571 4.14094,-4.48037 9.97899,-6.85631 5.90593,-2.44384 13.16955,-2.44384 z m 0,59.05932 q 4.81978,0 8.41765,-1.62922 3.59786,-1.69711 5.97381,-4.88767 2.44384,-3.19056 3.59787,-7.80669 1.22192,-4.61613 1.22192,-10.52206 0,-5.90594 -1.22192,-10.52207 -1.15403,-4.61613 -3.59787,-7.80669 -2.37595,-3.19056 -5.97381,-4.88767 -3.59787,-1.6971 -8.41765,-1.6971 -4.88767,0 -8.55342,1.6971 -3.59787,1.69711 -6.0417,4.88767 -2.37595,3.19056 -3.59787,7.80669 -1.15403,4.61613 -1.15403,10.52207 0,5.90593 1.15403,10.52206 1.22192,4.61613 3.59787,7.80669 2.44383,3.19056 6.0417,4.88767 3.66575,1.62922 8.55342,1.62922 z"
           style="font-weight:300;font-family:Carlito;-inkscape-font-specification:'Carlito Light'"
           id="path784" /><path
           d="m 383.98266,306.04099 v -66.39082 h 7.12785 q 1.2898,0 2.10442,0.61095 0.81461,0.54308 0.95038,1.83288 l 1.01826,7.05996 q 4.27671,-4.7519 9.57168,-7.60304 5.29498,-2.91902 12.21917,-2.91902 5.43074,0 9.5038,1.83288 4.14094,1.76499 6.9242,5.09132 2.78325,3.25844 4.20882,7.94246 1.42557,4.61613 1.42557,10.25052 v 42.29191 h -11.94763 v -42.29191 q 0,-7.39938 -3.39421,-11.54032 -3.32633,-4.14094 -10.18265,-4.14094 -5.09132,0 -9.50379,2.44383 -4.41248,2.37595 -8.07823,6.65266 v 48.87668 z"
           style="font-weight:300;font-family:Carlito;-inkscape-font-specification:'Carlito Light'"
           id="path786" /><path
           d="m 559.39561,297.41968 q -6.51689,4.81979 -13.91628,7.19574 -7.3315,2.37594 -15.9528,2.37594 -10.3863,0 -18.80395,-3.32632 -8.34976,-3.32633 -14.25569,-9.30015 -5.90594,-6.0417 -9.0965,-14.39147 -3.19056,-8.41765 -3.19056,-18.5324 0,-10.18264 3.05479,-18.53241 3.12268,-8.41765 8.82496,-14.39147 5.77016,-6.0417 13.91628,-9.36803 8.14611,-3.32632 18.26087,-3.32632 5.1592,0 9.50379,0.81461 4.41248,0.74672 8.14612,2.24018 3.73363,1.42557 6.85631,3.52998 3.19056,2.10441 5.90593,4.68401 l -3.4621,5.56652 q -0.81461,1.35768 -2.17229,1.6971 -1.35769,0.33942 -2.91903,-0.61096 -1.56134,-0.88249 -3.4621,-2.10441 -1.83287,-1.2898 -4.41247,-2.37595 -2.57961,-1.15403 -6.10959,-1.96864 -3.52998,-0.81461 -8.34976,-0.81461 -7.05997,0 -12.83013,2.44383 -5.70228,2.44383 -9.77534,6.99208 -4.00517,4.54825 -6.17747,11.06514 -2.17229,6.449 -2.17229,14.45935 0,8.34976 2.24018,15.00242 2.30806,6.58478 6.51689,11.20091 4.27671,4.54824 10.25052,6.99208 5.97382,2.37595 13.37321,2.37595 5.70228,0 10.18264,-1.2898 4.48036,-1.35769 8.82495,-3.73364 v -19.55067 h -12.83012 q -1.22192,0 -1.96865,-0.67884 -0.74673,-0.67885 -0.74673,-1.69711 v -6.99208 h 26.74641 v 34.34944 z"
           style="font-weight:300;font-family:Carlito;-inkscape-font-specification:'Carlito Light'"
           id="path788" /><path
           d="m 571.75055,306.04099 z m 31.22676,-67.40909 q 5.97382,0 11.06514,1.96865 5.09132,1.96864 8.82495,5.77016 3.73364,3.80152 5.83805,9.30014 2.10441,5.49863 2.10441,12.62648 0,2.78325 -0.61095,3.73363 -0.61096,0.8825 -2.24019,0.8825 h -44.39631 q 0.13577,6.24535 1.69711,10.92937 1.56133,4.61613 4.27671,7.67092 2.78325,3.05479 6.58477,4.61613 3.80152,1.49346 8.48553,1.49346 4.3446,0 7.53516,-0.95038 3.19056,-1.01827 5.43074,-2.24019 2.30807,-1.22191 3.8694,-2.17229 1.56134,-1.01827 2.71538,-1.01827 0.74672,0 1.2898,0.33942 0.54307,0.27154 0.95038,0.81462 l 3.39421,4.34459 q -2.24018,2.64749 -5.29497,4.61613 -2.98691,1.90076 -6.44901,3.19056 -3.4621,1.22192 -7.19573,1.83288 -3.66575,0.61095 -7.26362,0.61095 -6.9242,0 -12.76224,-2.30806 -5.83805,-2.30807 -10.11476,-6.78843 -4.20882,-4.54824 -6.58477,-11.13302 -2.37595,-6.65266 -2.37595,-15.27396 0,-6.9242 2.10441,-12.89801 2.1723,-6.0417 6.17747,-10.45418 4.07305,-4.48036 9.84322,-6.99208 5.83804,-2.51172 13.10166,-2.51172 z m 0.20365,8.68919 q -8.34976,0 -13.23743,4.88767 -4.81978,4.88766 -6.0417,13.3732 h 36.18232 q 0,-4.00517 -1.15403,-7.3315 -1.15404,-3.39422 -3.32633,-5.77017 -2.1723,-2.44383 -5.36286,-3.80152 -3.12268,-1.35768 -7.05997,-1.35768 z m 16.76742,-36.2502 -15.34185,16.90318 q -0.95038,1.01826 -1.90076,1.42557 -0.88249,0.40731 -2.24018,0.40731 h -7.12784 l 9.70745,-15.81704 q 0.88249,-1.49345 1.96864,-2.1723 1.08615,-0.74672 3.25845,-0.74672 z"
           style="font-weight:300;font-family:Carlito;-inkscape-font-specification:'Carlito Light'"
           id="path790" /><path
           d="m 645.3371,306.04099 v -66.39082 h 7.12784 q 1.28981,0 2.10442,0.61095 0.81461,0.54308 0.95038,1.83288 l 1.01826,7.05996 q 4.27671,-4.7519 9.57168,-7.60304 5.29498,-2.91902 12.21917,-2.91902 5.43075,0 9.5038,1.83288 4.14094,1.76499 6.9242,5.09132 2.78325,3.25844 4.20882,7.94246 1.42557,4.61613 1.42557,10.25052 v 42.29191 h -11.94763 v -42.29191 q 0,-7.39938 -3.39421,-11.54032 -3.32633,-4.14094 -10.18264,-4.14094 -5.09133,0 -9.5038,2.44383 -4.41248,2.37595 -8.07823,6.65266 v 48.87668 z"
           style="font-weight:300;font-family:Carlito;-inkscape-font-specification:'Carlito Light'"
           id="path792" /><path
           d="M 713.96814,306.04099 Z M 745.1949,238.6319 q 5.97382,0 11.06514,1.96865 5.09132,1.96864 8.82495,5.77016 3.73364,3.80152 5.83805,9.30014 2.10441,5.49863 2.10441,12.62648 0,2.78325 -0.61095,3.73363 -0.61096,0.8825 -2.24018,0.8825 H 725.78 q 0.13577,6.24535 1.69711,10.92937 1.56134,4.61613 4.27671,7.67092 2.78325,3.05479 6.58477,4.61613 3.80152,1.49346 8.48553,1.49346 4.3446,0 7.53516,-0.95038 3.19056,-1.01827 5.43074,-2.24019 2.30807,-1.22191 3.8694,-2.17229 1.56134,-1.01827 2.71538,-1.01827 0.74672,0 1.2898,0.33942 0.54307,0.27154 0.95038,0.81462 l 3.39421,4.34459 q -2.24018,2.64749 -5.29497,4.61613 -2.98691,1.90076 -6.44901,3.19056 -3.4621,1.22192 -7.19573,1.83288 -3.66575,0.61095 -7.26362,0.61095 -6.9242,0 -12.76224,-2.30806 -5.83805,-2.30807 -10.11476,-6.78843 -4.20882,-4.54824 -6.58477,-11.13302 -2.37595,-6.65266 -2.37595,-15.27396 0,-6.9242 2.10441,-12.89801 2.1723,-6.0417 6.17747,-10.45418 4.07305,-4.48036 9.84322,-6.99208 5.83804,-2.51172 13.10166,-2.51172 z m 0.20366,8.68919 q -8.34977,0 -13.23744,4.88767 -4.81978,4.88766 -6.0417,13.3732 h 36.18232 q 0,-4.00517 -1.15403,-7.3315 -1.15404,-3.39422 -3.32633,-5.77017 -2.1723,-2.44383 -5.36286,-3.80152 -3.12268,-1.35768 -7.05996,-1.35768 z m 16.76741,-36.2502 -15.34185,16.90318 q -0.95037,1.01826 -1.90075,1.42557 -0.8825,0.40731 -2.24019,0.40731 h -7.12784 l 9.70745,-15.81704 q 0.88249,-1.49345 1.96864,-2.1723 1.08615,-0.74672 3.25845,-0.74672 z"
           style="font-weight:300;font-family:Carlito;-inkscape-font-specification:'Carlito Light'"
           id="path794" /><path
           d="m 786.94373,306.04099 v -66.39082 h 6.85631 q 1.90076,0 2.64749,0.74672 0.81461,0.74673 0.95038,2.51172 l 0.81461,9.77534 q 3.05479,-6.58478 7.53515,-10.3863 4.48036,-3.80152 10.7936,-3.80152 2.10441,0 3.93729,0.47519 1.83287,0.40731 3.32633,1.42557 l -0.95038,8.82496 q -0.20365,1.6971 -1.90076,1.6971 -0.95038,0 -2.71537,-0.33942 -1.69711,-0.4073 -3.80152,-0.4073 -3.05479,0 -5.43074,0.95038 -2.30807,0.88249 -4.20883,2.71537 -1.83287,1.76499 -3.25844,4.34459 -1.42557,2.5796 -2.64749,5.90593 v 41.95249 z"
           style="font-weight:300;font-family:Carlito;-inkscape-font-specification:'Carlito Light'"
           id="path796" /><path
           d="m 876.41519,306.04099 q -1.76499,0 -2.71537,-0.54308 -0.95038,-0.54307 -1.2898,-2.24018 l -1.49345,-6.17747 q -2.5796,2.37595 -5.09132,4.27671 -2.44384,1.83288 -5.15921,3.12268 -2.71537,1.2898 -5.83805,1.90076 -3.12267,0.67884 -6.85631,0.67884 -3.8694,0 -7.26361,-1.01826 -3.32633,-1.08615 -5.90594,-3.25845 -2.51171,-2.24018 -4.00517,-5.49863 -1.42557,-3.32633 -1.42557,-7.80669 0,-3.93729 2.10441,-7.53515 2.1723,-3.66575 6.99208,-6.51689 4.81979,-2.85114 12.5586,-4.61613 7.7388,-1.83288 19.00759,-2.10442 v -5.09132 q 0,-7.7388 -3.32633,-11.60821 -3.25844,-3.93728 -9.57168,-3.93728 -4.20882,0 -7.12785,1.08614 -2.85114,1.08615 -4.95555,2.37595 -2.10441,1.2898 -3.66575,2.37595 -1.49346,1.08615 -3.05479,1.08615 -1.22192,0 -2.10442,-0.61096 -0.88249,-0.61096 -1.42557,-1.56134 l -2.17229,-3.80151 q 5.49862,-5.29498 11.81186,-7.87458 6.38112,-2.64749 14.11993,-2.64749 5.56651,0 9.9111,1.83288 4.3446,1.76499 7.26362,5.09132 2.91902,3.32633 4.41248,7.94246 1.56134,4.61613 1.56134,10.25052 v 42.42768 z m -24.84564,-7.33151 q 2.98691,0 5.49863,-0.61095 2.51171,-0.61096 4.7519,-1.69711 2.24018,-1.15403 4.20882,-2.78326 2.03653,-1.6971 4.00517,-3.73363 V 276.1719 q -7.94246,0.33943 -13.50897,1.35769 -5.56651,0.95038 -9.09649,2.5796 -3.4621,1.62923 -5.02344,3.86941 -1.56134,2.17229 -1.56134,4.88766 0,2.57961 0.81462,4.48037 0.88249,1.83287 2.30806,3.05479 1.42557,1.15403 3.39421,1.76499 1.96865,0.54307 4.20883,0.54307 z"
           style="font-weight:300;font-family:Carlito;-inkscape-font-specification:'Carlito Light'"
           id="path798" /><path
           d="m 912.19022,209.50955 v 96.53144 h -11.94764 v -96.53144 z"
           style="font-weight:300;font-family:Carlito;-inkscape-font-specification:'Carlito Light'"
           id="path800" /><path
           d="m 958.48732,238.6319 q 5.97382,0 11.06514,1.96865 5.09132,1.96864 8.82495,5.77016 3.73364,3.80152 5.83805,9.30014 2.10441,5.49863 2.10441,12.62648 0,2.78325 -0.61095,3.73363 -0.61096,0.8825 -2.24019,0.8825 h -44.39631 q 0.13577,6.24535 1.69711,10.92937 1.56133,4.61613 4.27671,7.67092 2.78325,3.05479 6.58477,4.61613 3.80152,1.49346 8.48553,1.49346 4.3446,0 7.53516,-0.95038 3.19056,-1.01827 5.43074,-2.24019 2.30807,-1.22191 3.8694,-2.17229 1.56134,-1.01827 2.71538,-1.01827 0.74672,0 1.2898,0.33942 0.54307,0.27154 0.95038,0.81462 l 3.39421,4.34459 q -2.24018,2.64749 -5.29497,4.61613 -2.98691,1.90076 -6.44901,3.19056 -3.4621,1.22192 -7.19573,1.83288 -3.66575,0.61095 -7.26362,0.61095 -6.9242,0 -12.76224,-2.30806 -5.83805,-2.30807 -10.11476,-6.78843 -4.20883,-4.54824 -6.58477,-11.13302 -2.37595,-6.65266 -2.37595,-15.27396 0,-6.9242 2.10441,-12.89801 2.1723,-6.0417 6.17747,-10.45418 4.07305,-4.48036 9.84322,-6.99208 5.83804,-2.51172 13.10166,-2.51172 z m 0.20365,8.68919 q -8.34976,0 -13.23743,4.88767 -4.81978,4.88766 -6.0417,13.3732 h 36.18232 q 0,-4.00517 -1.15403,-7.3315 -1.15404,-3.39422 -3.32633,-5.77017 -2.1723,-2.44383 -5.36286,-3.80152 -3.12268,-1.35768 -7.05997,-1.35768 z"
           style="font-weight:300;font-family:Carlito;-inkscape-font-specification:'Carlito Light'"
           id="path802" /><path
           d="m -143.74968,391.9828 q 1.56134,0 2.37595,0.40731 0.81461,0.33942 1.83287,1.69711 l 48.469375,66.73024 q -0.135768,-1.62923 -0.271537,-3.19056 -0.06788,-1.62923 -0.06788,-2.98691 V 391.9828 h 10.861484 v 89.19994 h -6.245353 q -1.42557,0 -2.443834,-0.47519 -0.95038,-0.47519 -1.90076,-1.69711 l -48.469371,-66.52659 q 0.13577,1.56134 0.20365,2.98691 0.0679,1.42557 0.0679,2.71537 v 62.99661 h -10.86149 V 391.9828 h 6.44901 z"
           style="font-weight:300;font-family:Carlito;-inkscape-font-specification:'Carlito Light'"
           id="path804" /><path
           d="m -50.069382,414.79192 v 42.2919 q 0,7.46727 3.32633,11.60821 3.394213,4.07306 10.250525,4.07306 5.091321,0 9.435914,-2.37595 4.412478,-2.44383 8.146113,-6.65266 v -48.94456 h 11.9476321 v 66.39082 h -7.1957331 q -1.221917,0 -2.036528,-0.54307 -0.814611,-0.61096 -0.95038,-1.90076 l -1.086148,-7.05997 q -4.27671,4.7519 -9.571683,7.67092 -5.227089,2.85114 -12.151285,2.85114 -5.430742,0 -9.571683,-1.76499 -4.073056,-1.83287 -6.856311,-5.09132 -2.783255,-3.32633 -4.208825,-7.94246 -1.42557,-4.68401 -1.42557,-10.31841 v -42.2919 z"
           style="font-weight:300;font-family:Carlito;-inkscape-font-specification:'Carlito Light'"
           id="path806" /><path
           d="m 12.519928,481.18274 v -66.39082 h 7.059964 q 1.357686,0 2.104413,0.61096 0.814611,0.54307 0.950379,1.83287 l 1.018264,6.78843 q 1.90076,-2.24018 3.937288,-4.07306 2.104413,-1.90076 4.480362,-3.25844 2.37595,-1.42557 5.091321,-2.1723 2.715371,-0.74672 5.770163,-0.74672 6.856312,0 11.133021,3.73363 4.344594,3.73364 6.177469,10.04687 1.42557,-3.66575 3.733635,-6.24535 2.37595,-2.5796 5.227089,-4.27671 2.85114,-1.69711 6.109585,-2.44383 3.258445,-0.81461 6.652659,-0.81461 10.861484,0 16.767415,6.51689 5.973815,6.51689 5.973815,18.60029 v 42.2919 H 92.759139 v -42.2919 q 0,-7.73881 -3.529982,-11.6761 -3.529982,-4.00517 -10.114757,-4.00517 -2.986908,0 -5.634395,1.01826 -2.647486,0.95038 -4.684014,2.98691 -1.968644,1.96865 -3.190561,4.88767 -1.154033,2.91902 -1.154033,6.78843 v 42.2919 H 52.503765 v -42.2919 q 0,-7.94246 -3.32633,-11.81187 -3.258445,-3.8694 -9.639566,-3.8694 -4.344594,0 -8.146113,2.30806 -3.80152,2.24019 -6.924196,6.24536 v 49.41975 z"
           style="font-weight:300;font-family:Carlito;-inkscape-font-specification:'Carlito Light'"
           id="path808" /><path
           d="m 118.69091,481.18274 z m 31.22677,-67.40908 q 5.97382,0 11.06514,1.96864 5.09132,1.96864 8.82495,5.77016 3.73364,3.80152 5.83805,9.30015 2.10441,5.49862 2.10441,12.62647 0,2.78326 -0.61096,3.73364 -0.61095,0.88249 -2.24018,0.88249 h -44.39631 q 0.13577,6.24536 1.69711,10.92937 1.56133,4.61613 4.2767,7.67092 2.78326,3.0548 6.58478,4.61614 3.80152,1.49345 8.48553,1.49345 4.3446,0 7.53516,-0.95038 3.19056,-1.01826 5.43074,-2.24018 2.30806,-1.22192 3.8694,-2.1723 1.56134,-1.01826 2.71537,-1.01826 0.74673,0 1.28981,0.33942 0.54307,0.27154 0.95038,0.81461 l 3.39421,4.34459 q -2.24018,2.64749 -5.29497,4.61613 -2.98691,1.90076 -6.44901,3.19057 -3.4621,1.22191 -7.19573,1.83287 -3.66575,0.61096 -7.26362,0.61096 -6.9242,0 -12.76224,-2.30807 -5.83805,-2.30806 -10.11476,-6.78842 -4.20883,-4.54825 -6.58478,-11.13302 -2.37595,-6.65266 -2.37595,-15.27397 0,-6.92419 2.10442,-12.89801 2.17229,-6.0417 6.17747,-10.45418 4.07305,-4.48036 9.84322,-6.99208 5.83804,-2.51171 13.10166,-2.51171 z m 0.20365,8.68918 q -8.34976,0 -13.23743,4.88767 -4.81978,4.88767 -6.0417,13.3732 h 36.18232 q 0,-4.00517 -1.15404,-7.3315 -1.15403,-3.39421 -3.32632,-5.77016 -2.1723,-2.44384 -5.36286,-3.80152 -3.12268,-1.35769 -7.05997,-1.35769 z m 16.76742,-36.2502 -15.34185,16.90318 q -0.95038,1.01827 -1.90076,1.42557 -0.88249,0.40731 -2.24018,0.40731 h -7.12785 l 9.70745,-15.81704 q 0.8825,-1.49345 1.96865,-2.17229 1.08615,-0.74673 3.25844,-0.74673 z"
           style="font-weight:300;font-family:Carlito;-inkscape-font-specification:'Carlito Light'"
           id="path810" /><path
           d="m 191.66651,481.18274 v -66.39082 h 6.85631 q 1.90076,0 2.64748,0.74673 0.81462,0.74672 0.95038,2.51171 l 0.81462,9.77534 q 3.05479,-6.58477 7.53515,-10.38629 4.48036,-3.80152 10.7936,-3.80152 2.10441,0 3.93729,0.47519 1.83287,0.4073 3.32633,1.42557 l -0.95038,8.82495 q -0.20366,1.69711 -1.90076,1.69711 -0.95038,0 -2.71537,-0.33942 -1.69711,-0.40731 -3.80152,-0.40731 -3.0548,0 -5.43074,0.95038 -2.30807,0.8825 -4.20883,2.71537 -1.83288,1.76499 -3.25844,4.3446 -1.42557,2.5796 -2.64749,5.90593 v 41.95248 z"
           style="font-weight:300;font-family:Carlito;-inkscape-font-specification:'Carlito Light'"
           id="path812" /><path
           d="m 238.71033,481.18274 z m 14.45935,-66.39082 v 66.39082 h -11.94763 v -66.39082 z m 2.30806,-20.77259 q 0,1.69711 -0.67884,3.25845 -0.67884,1.49345 -1.90076,2.64748 -1.15403,1.08615 -2.71537,1.76499 -1.49345,0.67885 -3.19056,0.67885 -1.69711,0 -3.19056,-0.67885 -1.49346,-0.67884 -2.64749,-1.76499 -1.08615,-1.15403 -1.76499,-2.64748 -0.67884,-1.56134 -0.67884,-3.25845 0,-1.76499 0.67884,-3.25844 0.67884,-1.56134 1.76499,-2.71537 1.15403,-1.15404 2.64749,-1.83288 1.49345,-0.67884 3.19056,-0.67884 1.69711,0 3.19056,0.67884 1.56134,0.67884 2.71537,1.83288 1.22192,1.15403 1.90076,2.71537 0.67884,1.49345 0.67884,3.25844 z"
           style="font-weight:300;font-family:Carlito;-inkscape-font-specification:'Carlito Light'"
           id="path814" /><path
           d="m 326.62046,414.79192 v 88.79263 h -11.94763 v -32.10926 q -4.14094,4.88767 -9.43591,7.80669 -5.29498,2.85114 -12.0834,2.85114 -5.70228,0 -10.31841,-2.1723 -4.61613,-2.24018 -7.87458,-6.51689 -3.25845,-4.27671 -5.02344,-10.58994 -1.76499,-6.38113 -1.76499,-14.66301 0,-7.3315 1.96865,-13.64474 1.96864,-6.38112 5.63439,-10.99725 3.66575,-4.61613 8.96073,-7.26362 5.29497,-2.64748 11.94763,-2.64748 6.449,0 10.86148,2.30806 4.48036,2.24018 7.94246,6.38112 l 0.8825,-5.09132 q 0.47519,-2.44383 3.12267,-2.44383 z m -29.59754,57.76952 q 5.63439,0 9.84322,-2.57961 4.20882,-2.64748 7.80669,-7.3315 v -32.10926 q -3.05479,-4.14094 -6.9242,-5.90593 -3.80152,-1.83288 -8.34976,-1.83288 -9.09649,0 -14.05205,6.58478 -4.88766,6.58477 -4.88766,18.80394 0,6.44901 1.08614,11.06514 1.15404,4.61613 3.25845,7.60304 2.1723,2.91902 5.22709,4.34459 3.12268,1.35769 6.99208,1.35769 z"
           style="font-weight:300;font-family:Carlito;-inkscape-font-specification:'Carlito Light'"
           id="path816" /><path
           d="m 356.62529,414.79192 v 42.2919 q 0,7.46727 3.32633,11.60821 3.39421,4.07306 10.25052,4.07306 5.09133,0 9.43592,-2.37595 4.41248,-2.44383 8.14611,-6.65266 v -48.94456 h 11.94763 v 66.39082 h -7.19573 q -1.22192,0 -2.03653,-0.54307 -0.81461,-0.61096 -0.95038,-1.90076 l -1.08615,-7.05997 q -4.2767,4.7519 -9.57168,7.67092 -5.22709,2.85114 -12.15128,2.85114 -5.43075,0 -9.57169,-1.76499 -4.07305,-1.83287 -6.85631,-5.09132 -2.78325,-3.32633 -4.20882,-7.94246 -1.42557,-4.68401 -1.42557,-10.31841 v -42.2919 z"
           style="font-weight:300;font-family:Carlito;-inkscape-font-specification:'Carlito Light'"
           id="path818" /><path
           d="m 445.55373,413.77366 q 5.97381,0 11.06513,1.96864 5.09133,1.96864 8.82496,5.77016 3.73364,3.80152 5.83805,9.30015 2.10441,5.49862 2.10441,12.62647 0,2.78326 -0.61096,3.73364 -0.61096,0.88249 -2.24018,0.88249 h -44.39631 q 0.13576,6.24536 1.6971,10.92937 1.56134,4.61613 4.27671,7.67092 2.78326,3.0548 6.58478,4.61614 3.80152,1.49345 8.48553,1.49345 4.34459,0 7.53515,-0.95038 3.19057,-1.01826 5.43075,-2.24018 2.30806,-1.22192 3.8694,-2.1723 1.56134,-1.01826 2.71537,-1.01826 0.74673,0 1.2898,0.33942 0.54308,0.27154 0.95038,0.81461 l 3.39422,4.34459 q -2.24018,2.64749 -5.29498,4.61613 -2.98691,1.90076 -6.449,3.19057 -3.4621,1.22191 -7.19574,1.83287 -3.66575,0.61096 -7.26361,0.61096 -6.9242,0 -12.76225,-2.30807 -5.83804,-2.30806 -10.11475,-6.78842 -4.20883,-4.54825 -6.58478,-11.13302 -2.37595,-6.65266 -2.37595,-15.27397 0,-6.92419 2.10441,-12.89801 2.1723,-6.0417 6.17747,-10.45418 4.07306,-4.48036 9.84322,-6.99208 5.83805,-2.51171 13.10167,-2.51171 z m 0.20365,8.68918 q -8.34976,0 -13.23743,4.88767 -4.81979,4.88767 -6.0417,13.3732 h 36.18231 q 0,-4.00517 -1.15403,-7.3315 -1.15403,-3.39421 -3.32633,-5.77016 -2.17229,-2.44384 -5.36285,-3.80152 -3.12268,-1.35769 -7.05997,-1.35769 z"
           style="font-weight:300;font-family:Carlito;-inkscape-font-specification:'Carlito Light'"
           id="path820" /></g></g></g></svg>
